SplineFontDB: 3.0
FontName: TheanoDidot-Regular
FullName: Theano Didot Regular
FamilyName: Theano Didot
Weight: Regular
Copyright: Copyright (c) Alexey Kryukov, 2007-2011. All rights reserved.
UComments: "Stems: UC/LC+AAoA-Thick: 0.788+AAoA-Thin: 0.923"
Version: 2.0
ItalicAngle: 0
UnderlinePosition: -352
UnderlineWidth: 96
Ascent: 1580
Descent: 468
InvalidEm: 0
LayerCount: 3
Layer: 0 0 "Back" 1
Layer: 1 0 "Fore" 0
Layer: 2 1 "TTF" 0
XUID: [1021 675 718133685 10663932]
UniqueID: 4169751
FSType: 0
OS2Version: 0
OS2_WeightWidthSlopeOnly: 0
OS2_UseTypoMetrics: 1
CreationTime: 1298973652
ModificationTime: 1316884304
PfmFamily: 17
TTFWeight: 400
TTFWidth: 5
LineGap: 560
VLineGap: 0
Panose: 2 6 6 3 6 7 6 2 2 3
OS2TypoAscent: 0
OS2TypoAOffset: 1
OS2TypoDescent: 0
OS2TypoDOffset: 1
OS2TypoLinegap: 560
OS2WinAscent: 0
OS2WinAOffset: 1
OS2WinDescent: 0
OS2WinDOffset: 1
HheadAscent: 0
HheadAOffset: 1
HheadDescent: 0
HheadDOffset: 1
OS2SubXSize: 1400
OS2SubYSize: 1300
OS2SubXOff: 0
OS2SubYOff: 280
OS2SupXSize: 1400
OS2SupYSize: 1300
OS2SupXOff: 0
OS2SupYOff: 954
OS2StrikeYSize: 100
OS2StrikeYPos: 500
OS2FamilyClass: 768
OS2Vendor: '    '
Lookup: 4 0 0 "'ccmp' Simple Glyph Composition" { "'ccmp' Simple Glyph Composition-1"  } ['ccmp' ('cyrl' <'dflt' > 'grek' <'dflt' > 'latn' <'AZE ' 'CRT ' 'DEU ' 'MOL ' 'ROM ' 'TRK ' 'dflt' > ) ]
Lookup: 5 0 0 "'ccmp' Dotless Variants" { "'ccmp' Dotless Variants-1"  } ['ccmp' ('cyrl' <'dflt' > 'grek' <'dflt' > 'latn' <'AZE ' 'CRT ' 'DEU ' 'MOL ' 'ROM ' 'TRK ' 'dflt' > ) ]
Lookup: 5 0 0 "'ccmp' Cyrillic Accents" { "'ccmp' Cyrillic Accents-1"  } ['ccmp' ('cyrl' <'dflt' > 'grek' <'dflt' > 'latn' <'AZE ' 'CRT ' 'DEU ' 'MOL ' 'ROM ' 'TRK ' 'dflt' > ) ]
Lookup: 5 0 0 "'ccmp' Capital Accents" { "'ccmp' Capital Accents-1"  } ['ccmp' ('cyrl' <'dflt' > 'grek' <'dflt' > 'latn' <'AZE ' 'CRT ' 'DEU ' 'MOL ' 'ROM ' 'TRK ' 'dflt' > ) ]

StartChar: exclam
Encoding: 33 33 1
Width: 528
VWidth: 2078
Flags: W
HStem: -24 256<166.773 361.227> 1492 20G<216 312>
VStem: 136 256<6.77267 201.227 895.477 1484.05>
LayerCount: 3
Fore
SplineSet
126 1343 m 0
 126 1431 168 1512 264 1512 c 0
 360 1512 402 1431 402 1343 c 0
 402 1288 392 1179 378 1096 c 0
 360 992 344 880 335 795 c 10
 292 390 l 25
 236 390 l 25
 193 795 l 18
 184 880 168 992 150 1096 c 0
 136 1179 126 1288 126 1343 c 0
136 104 m 0
 136 176 192 232 264 232 c 0
 336 232 392 176 392 104 c 0
 392 32 336 -24 264 -24 c 0
 192 -24 136 32 136 104 c 0
EndSplineSet
Layer: 2
SplineSet
126 1343 m 0,0,1
 126 1415 126 1415 161 1463.5 c 128,-1,2
 196 1512 196 1512 264 1512 c 128,-1,3
 332 1512 332 1512 367 1463.5 c 128,-1,4
 402 1415 402 1415 402 1343 c 0,5,6
 402 1238 402 1238 378 1096 c 0,7,8
 349 930 349 930 335 795 c 2,9,-1
 292 390 l 1,10,-1
 236 390 l 1,11,-1
 193 795 l 2,12,13
 179 930 179 930 150 1096 c 0,14,15
 126 1238 126 1238 126 1343 c 0,0,1
136 104 m 128,-1,17
 136 158 136 158 173 195 c 128,-1,18
 210 232 210 232 264 232 c 128,-1,19
 318 232 318 232 355 195 c 128,-1,20
 392 158 392 158 392 104 c 128,-1,21
 392 50 392 50 355 13 c 128,-1,22
 318 -24 318 -24 264 -24 c 128,-1,23
 210 -24 210 -24 173 13 c 128,-1,16
 136 50 136 50 136 104 c 128,-1,17
EndSplineSet
EndChar

StartChar: numbersign
Encoding: 35 35 3
Width: 1152
VWidth: 2078
Flags: W
HStem: 0 21G<170 262.047 592 684.047> 430 96<62 257 365 679 787 1090> 934 96<62 360 467 782 889 1090> 1440 20G<461.953 554 883.953 976>
DStem2: 170 0 258 0 0.198697 0.980061<17.4854 438.713 554.258 953.129 1068.48 1489.7> 592 0 680 0 0.198697 0.980061<17.4854 438.713 554.258 953.129 1068.48 1489.7>
LayerCount: 3
Fore
SplineSet
62 430 m 1
 62 526 l 1
 277 526 l 1
 360 934 l 1
 62 934 l 1
 62 1030 l 1
 379 1030 l 1
 466 1460 l 1
 554 1460 l 1
 467 1030 l 1
 801 1030 l 1
 888 1460 l 1
 976 1460 l 1
 889 1030 l 1
 1090 1030 l 1
 1090 934 l 1
 870 934 l 1
 787 526 l 1
 1090 526 l 1
 1090 430 l 1
 767 430 l 1
 680 0 l 1
 592 0 l 1
 679 430 l 1
 345 430 l 1
 258 0 l 1
 170 0 l 1
 257 430 l 1
 62 430 l 1
365 526 m 1
 699 526 l 1
 782 934 l 1
 448 934 l 1
 365 526 l 1
EndSplineSet
Layer: 2
SplineSet
62 430 m 1,0,-1
 62 526 l 1,1,-1
 277 526 l 1,2,-1
 360 934 l 1,3,-1
 62 934 l 1,4,-1
 62 1030 l 1,5,-1
 379 1030 l 1,6,-1
 466 1460 l 1,7,-1
 554 1460 l 1,8,-1
 467 1030 l 1,9,-1
 801 1030 l 1,10,-1
 888 1460 l 1,11,-1
 976 1460 l 1,12,-1
 889 1030 l 1,13,-1
 1090 1030 l 1,14,-1
 1090 934 l 1,15,-1
 870 934 l 1,16,-1
 787 526 l 1,17,-1
 1090 526 l 1,18,-1
 1090 430 l 1,19,-1
 767 430 l 1,20,-1
 680 0 l 1,21,-1
 592 0 l 1,22,-1
 679 430 l 1,23,-1
 345 430 l 1,24,-1
 258 0 l 1,25,-1
 170 0 l 1,26,-1
 257 430 l 1,27,-1
 62 430 l 1,0,-1
365 526 m 1,28,-1
 699 526 l 1,29,-1
 782 934 l 1,30,-1
 448 934 l 1,31,-1
 365 526 l 1,28,-1
EndSplineSet
EndChar

StartChar: dollar
Encoding: 36 36 4
Width: 1152
VWidth: 2078
Flags: W
HStem: -20 48<473.359 677.148> -6 51<333.092 412 472 555.733 559.921 679> 1388 54<739 826.683> 1405 49<472 679>
VStem: 74 112<147.349 332> 106 114<1002.64 1219.75> 412 60<-136 -15 45 671 905 1373 1443 1544> 679 60<-136 -10 58 593 826 1388 1450 1544> 926 116<1140.5 1309.24> 982 94<233.073 478.879>
LayerCount: 3
Fore
SplineSet
74 280 m 0x4b40
 74 384 133 458 229 458 c 0
 278 458 323 429 323 378 c 0
 323 318 284 291 240 273 c 0
 199 256 186 238 186 200 c 0x4b40
 186 131 291 73 412 45 c 1
 412 691 l 1
 229 754 106 841 106 1040 c 0
 106 1222 227 1369 412 1427 c 1
 412 1544 l 1
 472 1544 l 1
 472 1443 l 1
 510 1450 551 1454 593 1454 c 0x57
 623 1454 651 1453 679 1450 c 1
 679 1544 l 1
 739 1544 l 1
 739 1442 l 1
 924 1409 1042 1313 1042 1182 c 0
 1042 1099 998 1014 912 1014 c 0
 854 1014 818 1052 818 1091 c 0
 818 1133 842 1165 880 1190 c 0
 906 1208 926 1222 926 1263 c 0x2780
 926 1324 839 1367 739 1388 c 1
 739 808 l 1
 985 731 1076 634 1076 434 c 0
 1076 201 933 57 739 4 c 1
 739 -136 l 1
 679 -136 l 1
 679 -10 l 1
 640 -17 599 -20 557 -20 c 0xa340
 530 -20 501 -18 472 -15 c 1
 472 -136 l 1
 412 -136 l 1
 412 -6 l 1
 242 26 74 115 74 280 c 0x4b40
220 1132 m 0x07
 220 1023 277 959 412 905 c 1
 412 1373 l 1
 299 1329 220 1243 220 1132 c 0x07
472 34 m 1
 501 30 530 28 558 28 c 0x83
 599 28 639 32 679 41 c 1
 679 612 l 1
 472 671 l 1
 472 34 l 1
472 883 m 1
 679 826 l 1
 679 1399 l 1
 648 1403 618 1405 590 1405 c 0x13
 549 1405 509 1400 472 1391 c 1
 472 883 l 1
739 58 m 1
 875 104 982 204 982 351 c 0x0340
 982 475 905 536 739 593 c 1
 739 58 l 1
EndSplineSet
Layer: 2
SplineSet
74 280 m 0,0,1
 74 359 74 359 116 408.5 c 128,-1,2
 158 458 158 458 229 458 c 0,3,4
 268 458 268 458 295.5 436.5 c 128,-1,5
 323 415 323 415 323 378 c 0,6,7
 323 307 323 307 240 273 c 0,8,9
 209 260 209 260 197.5 244.5 c 128,-1,10
 186 229 186 229 186 200 c 0,11,12
 186 151 186 151 250.5 109 c 128,-1,13
 315 67 315 67 412 45 c 1,14,-1
 412 691 l 1,15,16
 339 716 339 716 286.5 744.5 c 128,-1,17
 234 773 234 773 191.5 814 c 128,-1,18
 149 855 149 855 127.5 911 c 128,-1,19
 106 967 106 967 106 1040 c 0,20,21
 106 1175 106 1175 189 1279 c 128,-1,22
 272 1383 272 1383 412 1427 c 1,23,-1
 412 1544 l 1,24,-1
 472 1544 l 1,25,-1
 472 1443 l 1,26,27
 532 1454 532 1454 593 1454 c 0,28,29
 642 1454 642 1454 679 1450 c 1,30,-1
 679 1544 l 1,31,-1
 739 1544 l 1,32,-1
 739 1442 l 1,33,34
 879 1417 879 1417 960.5 1348 c 128,-1,35
 1042 1279 1042 1279 1042 1182 c 0,36,37
 1042 1114 1042 1114 1007.5 1064 c 128,-1,38
 973 1014 973 1014 912 1014 c 0,39,40
 870 1014 870 1014 844 1037 c 128,-1,41
 818 1060 818 1060 818 1091 c 0,42,43
 818 1149 818 1149 880 1190 c 0,44,45
 897 1201 897 1201 904.5 1208 c 128,-1,46
 912 1215 912 1215 919 1229.5 c 128,-1,47
 926 1244 926 1244 926 1263 c 0,48,49
 926 1306 926 1306 873 1338.5 c 128,-1,50
 820 1371 820 1371 739 1388 c 1,51,-1
 739 808 l 1,52,53
 924 750 924 750 1000 666.5 c 128,-1,54
 1076 583 1076 583 1076 434 c 0,55,56
 1076 266 1076 266 984 156 c 128,-1,57
 892 46 892 46 739 4 c 1,58,-1
 739 -136 l 1,59,-1
 679 -136 l 1,60,-1
 679 -10 l 1,61,62
 623 -20 623 -20 557 -20 c 0,63,64
 520 -20 520 -20 472 -15 c 1,65,-1
 472 -136 l 1,66,-1
 412 -136 l 1,67,-1
 412 -6 l 1,68,69
 345 7 345 7 287 29.5 c 128,-1,70
 229 52 229 52 180 86.5 c 128,-1,71
 131 121 131 121 102.5 171 c 128,-1,72
 74 221 74 221 74 280 c 0,0,1
220 1132 m 128,-1,74
 220 1051 220 1051 265 998.5 c 128,-1,75
 310 946 310 946 412 905 c 1,76,-1
 412 1373 l 1,77,78
 324 1339 324 1339 272 1276 c 128,-1,73
 220 1213 220 1213 220 1132 c 128,-1,74
472 34 m 1,79,80
 516 28 516 28 558 28 c 0,81,82
 621 28 621 28 679 41 c 1,83,-1
 679 612 l 1,84,-1
 472 671 l 1,85,-1
 472 34 l 1,79,80
472 883 m 1,86,-1
 679 826 l 1,87,-1
 679 1399 l 1,88,89
 633 1405 633 1405 590 1405 c 0,90,91
 530 1405 530 1405 472 1391 c 1,92,-1
 472 883 l 1,86,-1
739 58 m 1,93,94
 847 95 847 95 914.5 170.5 c 128,-1,95
 982 246 982 246 982 351 c 0,96,97
 982 441 982 441 925 495 c 128,-1,98
 868 549 868 549 739 593 c 1,99,-1
 739 58 l 1,93,94
EndSplineSet
EndChar

StartChar: percent
Encoding: 37 37 5
Width: 1540
VWidth: 2078
Flags: W
HStem: -28 36<1124.33 1231.67> 652 36<1124.33 1231.67> 792 36<308.329 415.671> 1472 36<308.329 415.671>
VStem: 80 134<961.766 1338.23> 510 134<961.766 1338.23> 896 134<141.766 518.234> 1326 134<141.766 518.234>
DStem2: 279 -16 375 -16 0.505573 0.862784<48.535 1751.46>
LayerCount: 3
Fore
SplineSet
80 1150 m 0
 80 1332 196 1508 362 1508 c 0
 528 1508 644 1332 644 1150 c 0
 644 968 528 792 362 792 c 0
 196 792 80 968 80 1150 c 0
214 1150 m 0
 214 1022 240 828 362 828 c 0
 484 828 510 1022 510 1150 c 0
 510 1278 484 1472 362 1472 c 0
 240 1472 214 1278 214 1150 c 0
279 -16 m 25
 1163 1496 l 25
 1261 1496 l 25
 375 -16 l 25
 279 -16 l 25
896 330 m 0
 896 512 1012 688 1178 688 c 0
 1344 688 1460 512 1460 330 c 0
 1460 148 1344 -28 1178 -28 c 0
 1012 -28 896 148 896 330 c 0
1030 330 m 0
 1030 202 1056 8 1178 8 c 0
 1300 8 1326 202 1326 330 c 0
 1326 458 1300 652 1178 652 c 0
 1056 652 1030 458 1030 330 c 0
EndSplineSet
Layer: 2
SplineSet
80 1150 m 128,-1,1
 80 1241 80 1241 115 1323 c 128,-1,2
 150 1405 150 1405 216 1456.5 c 128,-1,3
 282 1508 282 1508 362 1508 c 128,-1,4
 442 1508 442 1508 508 1456.5 c 128,-1,5
 574 1405 574 1405 609 1323 c 128,-1,6
 644 1241 644 1241 644 1150 c 128,-1,7
 644 1059 644 1059 609 977 c 128,-1,8
 574 895 574 895 508 843.5 c 128,-1,9
 442 792 442 792 362 792 c 128,-1,10
 282 792 282 792 216 843.5 c 128,-1,11
 150 895 150 895 115 977 c 128,-1,0
 80 1059 80 1059 80 1150 c 128,-1,1
214 1150 m 128,-1,13
 214 1095 214 1095 220.5 1044.5 c 128,-1,14
 227 994 227 994 242 942 c 128,-1,15
 257 890 257 890 288 859 c 128,-1,16
 319 828 319 828 362 828 c 128,-1,17
 405 828 405 828 436 859 c 128,-1,18
 467 890 467 890 482 942 c 128,-1,19
 497 994 497 994 503.5 1044.5 c 128,-1,20
 510 1095 510 1095 510 1150 c 128,-1,21
 510 1205 510 1205 503.5 1255.5 c 128,-1,22
 497 1306 497 1306 482 1358 c 128,-1,23
 467 1410 467 1410 436 1441 c 128,-1,24
 405 1472 405 1472 362 1472 c 128,-1,25
 319 1472 319 1472 288 1441 c 128,-1,26
 257 1410 257 1410 242 1358 c 128,-1,27
 227 1306 227 1306 220.5 1255.5 c 128,-1,12
 214 1205 214 1205 214 1150 c 128,-1,13
279 -16 m 1,28,-1
 1163 1496 l 1,29,-1
 1261 1496 l 1,30,-1
 375 -16 l 1,31,-1
 279 -16 l 1,28,-1
896 330 m 128,-1,33
 896 421 896 421 931 503 c 128,-1,34
 966 585 966 585 1032 636.5 c 128,-1,35
 1098 688 1098 688 1178 688 c 128,-1,36
 1258 688 1258 688 1324 636.5 c 128,-1,37
 1390 585 1390 585 1425 503 c 128,-1,38
 1460 421 1460 421 1460 330 c 128,-1,39
 1460 239 1460 239 1425 157 c 128,-1,40
 1390 75 1390 75 1324 23.5 c 128,-1,41
 1258 -28 1258 -28 1178 -28 c 128,-1,42
 1098 -28 1098 -28 1032 23.5 c 128,-1,43
 966 75 966 75 931 157 c 128,-1,32
 896 239 896 239 896 330 c 128,-1,33
1030 330 m 128,-1,45
 1030 275 1030 275 1036.5 224.5 c 128,-1,46
 1043 174 1043 174 1058 122 c 128,-1,47
 1073 70 1073 70 1104 39 c 128,-1,48
 1135 8 1135 8 1178 8 c 128,-1,49
 1221 8 1221 8 1252 39 c 128,-1,50
 1283 70 1283 70 1298 122 c 128,-1,51
 1313 174 1313 174 1319.5 224.5 c 128,-1,52
 1326 275 1326 275 1326 330 c 128,-1,53
 1326 385 1326 385 1319.5 435.5 c 128,-1,54
 1313 486 1313 486 1298 538 c 128,-1,55
 1283 590 1283 590 1252 621 c 128,-1,56
 1221 652 1221 652 1178 652 c 128,-1,57
 1135 652 1135 652 1104 621 c 128,-1,58
 1073 590 1073 590 1058 538 c 128,-1,59
 1043 486 1043 486 1036.5 435.5 c 128,-1,44
 1030 385 1030 385 1030 330 c 128,-1,45
EndSplineSet
EndChar

StartChar: ampersand
Encoding: 38 38 6
Width: 1614
VWidth: 2078
Flags: W
HStem: -24 106<525.865 813.634> -24 72<1300.6 1553.9> 785 52<1018 1266 1316.77 1582> 1470 48<691.123 842.996>
VStem: 122 198<278.611 560.924> 464 152<1101.7 1362.33> 900 72<1173.32 1425.4> 1266 55<670.719 785>
DStem2: 739 960 575 865 0.497836 -0.867271<0.745628 720.768 756.336 793.234>
LayerCount: 3
Fore
SplineSet
122 367 m 0xbf
 122 611 302 771 546 916 c 1
 505 993 464 1090 464 1190 c 0
 464 1378 604 1518 754 1518 c 0
 919 1518 972 1410 972 1291 c 0
 972 1169 881 1052 739 960 c 1
 1098 335 l 1
 1192 491 1244 656 1266 785 c 1
 1018 785 l 1
 1018 837 l 1
 1582 837 l 1
 1582 785 l 1
 1321 785 l 1
 1292 641 1241 460 1127 284 c 1
 1220 126 1311 48 1418 48 c 0
 1459 48 1513 58 1548 71 c 1
 1568 14 l 1
 1498 -9 1431 -24 1350 -24 c 0x7f
 1174 -24 1069 35 998 133 c 1
 887 38 751 -24 589 -24 c 0
 442 -24 315 18 237 96 c 0
 167 166 122 269 122 367 c 0xbf
320 470 m 0
 320 384 341 300 390 237 c 0
 483 117 613 82 727 82 c 0xbf
 813 82 898 123 965 183 c 1
 575 865 l 1
 411 764 320 652 320 470 c 0
616 1288 m 0
 616 1189 643 1128 685 1054 c 2
 709 1013 l 1
 831 1098 900 1200 900 1298 c 0
 900 1389 870 1470 762 1470 c 0
 691 1470 616 1405 616 1288 c 0
EndSplineSet
Layer: 2
SplineSet
122 367 m 0,0,1
 122 438 122 438 143 504 c 128,-1,2
 164 570 164 570 200 624 c 128,-1,3
 236 678 236 678 291.5 730.5 c 128,-1,4
 347 783 347 783 407.5 826.5 c 128,-1,5
 468 870 468 870 546 916 c 1,6,7
 464 1070 464 1070 464 1190 c 0,8,9
 464 1328 464 1328 551.5 1423 c 128,-1,10
 639 1518 639 1518 754 1518 c 128,-1,11
 869 1518 869 1518 920.5 1454.5 c 128,-1,12
 972 1391 972 1391 972 1291 c 0,13,14
 972 1202 972 1202 910.5 1116.5 c 128,-1,15
 849 1031 849 1031 739 960 c 1,16,-1
 1098 335 l 1,17,18
 1225 546 1225 546 1266 785 c 1,19,-1
 1018 785 l 1,20,-1
 1018 837 l 1,21,-1
 1582 837 l 1,22,-1
 1582 785 l 1,23,-1
 1321 785 l 1,24,25
 1262 493 1262 493 1127 284 c 1,26,27
 1198 164 1198 164 1268.5 106 c 128,-1,28
 1339 48 1339 48 1418 48 c 0,29,30
 1486 48 1486 48 1548 71 c 1,31,-1
 1568 14 l 1,32,33
 1452 -24 1452 -24 1350 -24 c 0,34,35
 1112 -24 1112 -24 998 133 c 1,36,37
 815 -24 815 -24 589 -24 c 0,38,39
 357 -24 357 -24 237 96 c 0,40,41
 184 149 184 149 153 221.5 c 128,-1,42
 122 294 122 294 122 367 c 0,0,1
320 470 m 0,43,44
 320 327 320 327 390 237 c 0,45,46
 510 82 510 82 727 82 c 0,47,48
 852 82 852 82 965 183 c 1,49,-1
 575 865 l 1,50,51
 446 785 446 785 383 693 c 128,-1,52
 320 601 320 601 320 470 c 0,43,44
616 1288 m 0,53,54
 616 1219 616 1219 632.5 1168 c 128,-1,55
 649 1117 649 1117 685 1054 c 2,56,-1
 709 1013 l 1,57,58
 801 1077 801 1077 850.5 1151 c 128,-1,59
 900 1225 900 1225 900 1298 c 0,60,61
 900 1470 900 1470 762 1470 c 0,62,63
 705 1470 705 1470 660.5 1420.5 c 128,-1,64
 616 1371 616 1371 616 1288 c 0,53,54
EndSplineSet
EndChar

StartChar: quotesingle
Encoding: 39 39 7
Width: 528
VWidth: 2078
Flags: W
HStem: 854 664<236 292>
VStem: 170 188<1020.88 1504.27>
LayerCount: 3
Fore
SplineSet
170 1412 m 0
 170 1472 204 1518 264 1518 c 0
 324 1518 358 1472 358 1412 c 0
 358 1396 354 1348 348 1299 c 2
 292 854 l 1
 236 854 l 1
 180 1299 l 2
 174 1349 170 1396 170 1412 c 0
EndSplineSet
Layer: 2
SplineSet
170 1412 m 0,0,1
 170 1458 170 1458 195 1488 c 128,-1,2
 220 1518 220 1518 264 1518 c 128,-1,3
 308 1518 308 1518 333 1488 c 128,-1,4
 358 1458 358 1458 358 1412 c 0,5,6
 358 1381 358 1381 348 1299 c 2,7,-1
 292 854 l 1,8,-1
 236 854 l 1,9,-1
 180 1299 l 2,10,11
 170 1382 170 1382 170 1412 c 0,0,1
EndSplineSet
EndChar

StartChar: parenleft
Encoding: 40 40 8
Width: 660
VWidth: 2078
Flags: W
HStem: -536 21G<381 522.571> 1492 20G<381 522.571>
VStem: 144 152<136.462 839.539>
LayerCount: 3
Fore
SplineSet
144 488 m 0
 144 812 268 1185 494 1512 c 9
 534 1484 l 17
 366 1169 296 912 296 488 c 0
 296 64 366 -193 534 -508 c 9
 494 -536 l 17
 268 -209 144 164 144 488 c 0
EndSplineSet
Layer: 2
SplineSet
144 488 m 128,-1,1
 144 733 144 733 235 1001 c 128,-1,2
 326 1269 326 1269 494 1512 c 1,3,-1
 534 1484 l 1,4,5
 405 1242 405 1242 350.5 1020.5 c 128,-1,6
 296 799 296 799 296 488 c 128,-1,7
 296 177 296 177 350.5 -44.5 c 128,-1,8
 405 -266 405 -266 534 -508 c 1,9,-1
 494 -536 l 1,10,11
 326 -293 326 -293 235 -25 c 128,-1,0
 144 243 144 243 144 488 c 128,-1,1
EndSplineSet
EndChar

StartChar: parenright
Encoding: 41 41 9
Width: 660
VWidth: 2078
Flags: W
HStem: -536 21G<137.429 279> 1492 20G<137.429 279>
VStem: 364 152<136.462 839.539>
LayerCount: 3
Fore
SplineSet
126 -508 m 17
 294 -193 364 64 364 488 c 0
 364 912 294 1169 126 1484 c 9
 166 1512 l 17
 392 1185 516 812 516 488 c 0
 516 164 392 -209 166 -536 c 9
 126 -508 l 17
EndSplineSet
Layer: 2
SplineSet
126 -508 m 1,0,1
 255 -266 255 -266 309.5 -44.5 c 128,-1,2
 364 177 364 177 364 488 c 128,-1,3
 364 799 364 799 309.5 1020.5 c 128,-1,4
 255 1242 255 1242 126 1484 c 1,5,-1
 166 1512 l 1,6,7
 334 1269 334 1269 425 1001 c 128,-1,8
 516 733 516 733 516 488 c 128,-1,9
 516 243 516 243 425 -25 c 128,-1,10
 334 -293 334 -293 166 -536 c 1,11,-1
 126 -508 l 1,0,1
EndSplineSet
EndChar

StartChar: asterisk
Encoding: 42 42 10
Width: 1104
VWidth: 1606
Flags: W
HStem: 801 185<173.207 318.226 785.774 930.793> 1008 118<482.139 525.996 578.004 621.861> 1148 185<173.207 318.226 785.774 930.793> 1498 20G<525.5 578.5>
VStem: 468 168<625.277 864.406 1043.01 1090.99 1269.59 1508.72> 526 52<820.126 1008 1126 1313.87>
LayerCount: 3
Fore
SplineSet
148 882 m 0xf4
 148 950 214 975 296 986 c 0
 342 992 405 1012 460 1043 c 0
 460 1043 482 1054 482 1067 c 0
 482 1080 460 1091 460 1091 c 0
 405 1122 342 1142 296 1148 c 0
 214 1159 148 1184 148 1252 c 0
 148 1289 177 1333 230 1333 c 0
 278 1333 313 1300 353 1247 c 0
 382 1210 424 1173 477 1140 c 0
 484 1135 499 1126 508 1126 c 0
 521 1126 526 1131 526 1159 c 0xf4
 526 1221 512 1285 495 1329 c 0
 479 1366 468 1406 468 1423 c 0
 468 1476 499 1518 552 1518 c 0
 605 1518 636 1476 636 1423 c 0xf8
 636 1406 625 1366 609 1329 c 0
 592 1285 578 1221 578 1159 c 0
 578 1131 583 1126 596 1126 c 0
 605 1126 620 1135 627 1140 c 0
 680 1173 722 1210 751 1247 c 0
 791 1300 826 1333 874 1333 c 0
 927 1333 956 1289 956 1252 c 0
 956 1184 890 1159 808 1148 c 0
 762 1142 699 1122 644 1091 c 0
 644 1091 622 1080 622 1067 c 0
 622 1054 644 1043 644 1043 c 0
 699 1012 762 992 808 986 c 0
 890 975 956 950 956 882 c 0
 956 845 927 801 874 801 c 0
 826 801 791 834 751 887 c 0
 722 924 680 961 627 994 c 0
 620 999 605 1008 596 1008 c 0
 583 1008 578 1003 578 975 c 0xf4
 578 913 592 849 609 805 c 0
 625 768 636 728 636 711 c 0
 636 658 605 616 552 616 c 0
 499 616 468 658 468 711 c 0xf8
 468 728 479 768 495 805 c 0
 512 849 526 913 526 975 c 0
 526 1003 521 1008 508 1008 c 0
 499 1008 484 999 477 994 c 0
 424 961 382 924 353 887 c 0
 313 834 278 801 230 801 c 0
 177 801 148 845 148 882 c 0xf4
EndSplineSet
Layer: 2
SplineSet
148 882 m 0,0,1
 148 966 148 966 296 986 c 0,2,3
 378 997 378 997 460 1043 c 1,4,5
 482 1054 482 1054 482 1067 c 0,6,7
 482 1073 482 1073 476.5 1079 c 128,-1,8
 471 1085 471 1085 465.5 1088 c 2,9,-1
 460 1091 l 1,10,11
 378 1137 378 1137 296 1148 c 0,12,13
 148 1168 148 1168 148 1252 c 0,14,15
 148 1283 148 1283 170.5 1308 c 128,-1,16
 193 1333 193 1333 230 1333 c 0,17,18
 264 1333 264 1333 292 1312 c 128,-1,19
 320 1291 320 1291 353 1247 c 1,20,21
 399 1189 399 1189 477 1140 c 1,22,23
 497 1126 497 1126 508 1126 c 0,24,25
 518 1126 518 1126 522 1132.5 c 128,-1,26
 526 1139 526 1139 526 1159 c 0,27,28
 526 1249 526 1249 495 1329 c 1,29,30
 468 1391 468 1391 468 1423 c 0,31,32
 468 1464 468 1464 490.5 1491 c 128,-1,33
 513 1518 513 1518 552 1518 c 128,-1,34
 591 1518 591 1518 613.5 1491 c 128,-1,35
 636 1464 636 1464 636 1423 c 0,36,37
 636 1391 636 1391 609 1329 c 1,38,39
 578 1249 578 1249 578 1159 c 0,40,41
 578 1139 578 1139 582 1132.5 c 128,-1,42
 586 1126 586 1126 596 1126 c 0,43,44
 607 1126 607 1126 627 1140 c 1,45,46
 705 1189 705 1189 751 1247 c 1,47,48
 784 1291 784 1291 812 1312 c 128,-1,49
 840 1333 840 1333 874 1333 c 0,50,51
 911 1333 911 1333 933.5 1308 c 128,-1,52
 956 1283 956 1283 956 1252 c 0,53,54
 956 1168 956 1168 808 1148 c 0,55,56
 726 1137 726 1137 644 1091 c 1,57,58
 622 1080 622 1080 622 1067 c 0,59,60
 622 1061 622 1061 627.5 1055 c 128,-1,61
 633 1049 633 1049 638.5 1046 c 2,62,-1
 644 1043 l 1,63,64
 726 997 726 997 808 986 c 0,65,66
 956 966 956 966 956 882 c 0,67,68
 956 851 956 851 933.5 826 c 128,-1,69
 911 801 911 801 874 801 c 0,70,71
 840 801 840 801 812 822 c 128,-1,72
 784 843 784 843 751 887 c 1,73,74
 705 945 705 945 627 994 c 1,75,76
 607 1008 607 1008 596 1008 c 0,77,78
 586 1008 586 1008 582 1001.5 c 128,-1,79
 578 995 578 995 578 975 c 0,80,81
 578 885 578 885 609 805 c 1,82,83
 636 743 636 743 636 711 c 0,84,85
 636 670 636 670 613.5 643 c 128,-1,86
 591 616 591 616 552 616 c 128,-1,87
 513 616 513 616 490.5 643 c 128,-1,88
 468 670 468 670 468 711 c 0,89,90
 468 743 468 743 495 805 c 1,91,92
 526 885 526 885 526 975 c 0,93,94
 526 995 526 995 522 1001.5 c 128,-1,95
 518 1008 518 1008 508 1008 c 0,96,97
 497 1008 497 1008 477 994 c 1,98,99
 399 945 399 945 353 887 c 1,100,101
 320 843 320 843 292 822 c 128,-1,102
 264 801 264 801 230 801 c 0,103,104
 193 801 193 801 170.5 826 c 128,-1,105
 148 851 148 851 148 882 c 0,0,1
EndSplineSet
EndChar

StartChar: plus
Encoding: 43 43 11
Width: 1152
VWidth: 2078
Flags: W
HStem: 0 21G<522 630> 466 96<62 522 630 1090>
VStem: 522 108<0 466 562 1028>
LayerCount: 3
Fore
SplineSet
62 466 m 1
 62 562 l 1
 522 562 l 1
 522 1028 l 1
 630 1028 l 1
 630 562 l 1
 1090 562 l 1
 1090 466 l 1
 630 466 l 1
 630 0 l 1
 522 0 l 1
 522 466 l 1
 62 466 l 1
EndSplineSet
Layer: 2
SplineSet
62 466 m 1,0,-1
 62 562 l 1,1,-1
 522 562 l 1,2,-1
 522 1028 l 1,3,-1
 630 1028 l 1,4,-1
 630 562 l 1,5,-1
 1090 562 l 1,6,-1
 1090 466 l 1,7,-1
 630 466 l 1,8,-1
 630 0 l 1,9,-1
 522 0 l 1,10,-1
 522 466 l 1,11,-1
 62 466 l 1,0,-1
EndSplineSet
EndChar

StartChar: comma
Encoding: 44 44 12
Width: 528
VWidth: 2078
Flags: W
HStem: 26 220<158.612 327.441>
VStem: 328 80<-104.611 110.5>
LayerCount: 3
Fore
SplineSet
102 -390 m 1
 197 -306 272 -203 308 -124 c 0
 325 -86 328 -58 328 -27 c 0
 328 9 301 26 244 26 c 0
 193 26 133 49 133 126 c 0
 133 199 188 246 248 246 c 0
 368 246 408 154 408 67 c 0
 408 -78 308 -265 133 -424 c 1
 102 -390 l 1
EndSplineSet
Layer: 2
SplineSet
102 -390 m 1,0,1
 171 -329 171 -329 225.5 -257.5 c 128,-1,2
 280 -186 280 -186 308 -124 c 0,3,4
 328 -79 328 -79 328 -27 c 0,5,6
 328 26 328 26 244 26 c 0,7,8
 199 26 199 26 166 49.5 c 128,-1,9
 133 73 133 73 133 126 c 128,-1,10
 133 179 133 179 167 212.5 c 128,-1,11
 201 246 201 246 248 246 c 0,12,13
 331 246 331 246 369.5 194 c 128,-1,14
 408 142 408 142 408 67 c 0,15,16
 408 -43 408 -43 335.5 -174.5 c 128,-1,17
 263 -306 263 -306 133 -424 c 1,18,-1
 102 -390 l 1,0,1
EndSplineSet
EndChar

StartChar: hyphen
Encoding: 45 45 13
Width: 900
VWidth: 2078
Flags: W
HStem: 346 132<136 764>
VStem: 136 628<346 478>
LayerCount: 3
Fore
SplineSet
136 346 m 1
 136 478 l 1
 764 478 l 1
 764 346 l 1
 136 346 l 1
EndSplineSet
Layer: 2
SplineSet
136 346 m 1,0,-1
 136 478 l 1,1,-1
 764 478 l 1,2,-1
 764 346 l 1,3,-1
 136 346 l 1,0,-1
EndSplineSet
EndChar

StartChar: period
Encoding: 46 46 14
Width: 528
VWidth: 2078
Flags: W
HStem: -24 256<166.773 361.227>
VStem: 136 256<6.77267 201.227>
LayerCount: 3
Fore
SplineSet
136 104 m 0
 136 176 192 232 264 232 c 0
 336 232 392 176 392 104 c 0
 392 32 336 -24 264 -24 c 0
 192 -24 136 32 136 104 c 0
EndSplineSet
Layer: 2
SplineSet
136 104 m 128,-1,1
 136 158 136 158 173 195 c 128,-1,2
 210 232 210 232 264 232 c 128,-1,3
 318 232 318 232 355 195 c 128,-1,4
 392 158 392 158 392 104 c 128,-1,5
 392 50 392 50 355 13 c 128,-1,6
 318 -24 318 -24 264 -24 c 128,-1,7
 210 -24 210 -24 173 13 c 128,-1,0
 136 50 136 50 136 104 c 128,-1,1
EndSplineSet
EndChar

StartChar: slash
Encoding: 47 47 15
Width: 722
VWidth: 2078
Flags: W
HStem: -520 21G<80 186.708> 1414 20G<535.292 642>
VStem: 80 562
DStem2: 80 -520 182 -520 0.22915 0.973391<23.3733 2007.42>
LayerCount: 3
Fore
SplineSet
80 -520 m 1
 540 1434 l 1
 642 1434 l 1
 182 -520 l 1
 80 -520 l 1
EndSplineSet
Layer: 2
SplineSet
80 -520 m 1,0,-1
 540 1434 l 1,1,-1
 642 1434 l 1,2,-1
 182 -520 l 1,3,-1
 80 -520 l 1,0,-1
EndSplineSet
Substitution2: "'frac' Diagonal Fractions-1" fraction
EndChar

StartChar: zero
Encoding: 48 48 16
Width: 1152
VWidth: 2078
Flags: W
HStem: -16 48<470.432 681.905> 1402 48<480.292 672.024>
VStem: 96 208<421.797 983.565> 848 208<421.797 983.565>
LayerCount: 3
Fore
SplineSet
96 700 m 0
 96 1017 278 1450 576 1450 c 0
 875 1450 1056 1017 1056 700 c 0
 1056 383 875 -16 576 -16 c 0
 278 -16 96 383 96 700 c 0
304 700 m 0
 304 205 380 32 576 32 c 0
 773 32 848 205 848 700 c 0
 848 1195 773 1402 576 1402 c 0
 380 1402 304 1195 304 700 c 0
EndSplineSet
Layer: 2
SplineSet
96 700 m 0,0,1
 96 796 96 796 117 899.5 c 128,-1,2
 138 1003 138 1003 179.5 1101 c 128,-1,3
 221 1199 221 1199 277.5 1277 c 128,-1,4
 334 1355 334 1355 412 1402.5 c 128,-1,5
 490 1450 490 1450 576 1450 c 128,-1,6
 662 1450 662 1450 740 1402.5 c 128,-1,7
 818 1355 818 1355 874.5 1277 c 128,-1,8
 931 1199 931 1199 972.5 1101 c 128,-1,9
 1014 1003 1014 1003 1035 899.5 c 128,-1,10
 1056 796 1056 796 1056 700 c 0,11,12
 1056 579 1056 579 1022.5 454 c 128,-1,13
 989 329 989 329 929 223.5 c 128,-1,14
 869 118 869 118 776 51 c 128,-1,15
 683 -16 683 -16 576 -16 c 128,-1,16
 469 -16 469 -16 376 51 c 128,-1,17
 283 118 283 118 223.5 223.5 c 128,-1,18
 164 329 164 329 130 454 c 128,-1,19
 96 579 96 579 96 700 c 0,0,1
304 700 m 0,20,21
 304 451 304 451 331.5 306 c 128,-1,22
 359 161 359 161 417.5 96.5 c 128,-1,23
 476 32 476 32 576 32 c 128,-1,24
 676 32 676 32 734.5 96.5 c 128,-1,25
 793 161 793 161 820.5 306 c 128,-1,26
 848 451 848 451 848 700 c 0,27,28
 848 1074 848 1074 785.5 1238 c 128,-1,29
 723 1402 723 1402 576 1402 c 0,30,31
 430 1402 430 1402 367 1237.5 c 128,-1,32
 304 1073 304 1073 304 700 c 0,20,21
EndSplineSet
Substitution2: "'dnom' Denominators-1" zero.dnom
Substitution2: "'subs' Subscript Forms-1" zeroinferior
Substitution2: "'sups' Superscript Forms-1" zerosuperior
AlternateSubs2: "'aalt' Access All Alternates-1" zerooldstyle
Substitution2: "'onum' Oldstyle Figures-1" zerooldstyle
EndChar

StartChar: one
Encoding: 49 49 17
Width: 1152
VWidth: 2078
Flags: W
HStem: 0 48<258 522 706 970> 1426 20G<600 706>
VStem: 522 184<48 1185>
LayerCount: 3
Fore
SplineSet
212 1106 m 1
 400 1174 546 1263 654 1446 c 1
 706 1446 l 9
 706 48 l 17
 970 48 l 25
 970 0 l 17
 258 0 l 9
 258 48 l 25
 522 48 l 9
 522 1185 l 17
 514 1188 l 1
 432 1131 334 1086 233 1051 c 1
 212 1106 l 1
EndSplineSet
Layer: 2
SplineSet
212 1106 m 1,0,1
 313 1142 313 1142 387.5 1183.5 c 128,-1,2
 462 1225 462 1225 532 1291 c 128,-1,3
 602 1357 602 1357 654 1446 c 1,4,-1
 706 1446 l 1,5,-1
 706 48 l 1,6,-1
 970 48 l 1,7,-1
 970 0 l 1,8,-1
 258 0 l 1,9,-1
 258 48 l 1,10,-1
 522 48 l 1,11,-1
 522 1185 l 1,12,-1
 514 1188 l 1,13,14
 400 1109 400 1109 233 1051 c 1,15,-1
 212 1106 l 1,0,1
EndSplineSet
Substitution2: "'dnom' Denominators-1" one.dnom
Substitution2: "'subs' Subscript Forms-1" oneinferior
AlternateSubs2: "'aalt' Access All Alternates-1" onesuperior oneoldstyle
Substitution2: "'sups' Superscript Forms-1" onesuperior
Substitution2: "'onum' Oldstyle Figures-1" oneoldstyle
EndChar

StartChar: two
Encoding: 50 50 18
Width: 1152
VWidth: 2078
Flags: W
HStem: 0 176<364 894.411> 763 162<205.837 380.5> 1386 64<359.413 609.223>
VStem: 114 56<948.194 1178.28> 775 208<832.598 1226.98> 972 48<306.383 382.389>
LayerCount: 3
Fore
SplineSet
114 1026 m 0xf8
 114 1258 267 1450 524 1450 c 0
 833 1450 983 1253 983 1032 c 0xf8
 983 726 645 426 356 194 c 9
 364 176 l 25
 762 176 l 18
 835 176 882 200 911 238 c 0
 939 274 960 321 972 388 c 9
 1020 380 l 25xf4
 946 0 l 25
 116 0 l 25
 116 48 l 17
 284 185 391 292 498 414 c 0
 672 612 775 825 775 1050 c 0
 775 1242 678 1386 468 1386 c 0
 284 1386 170 1210 170 1027 c 0
 170 945 220 925 249 925 c 0
 281 925 300 937 320 960 c 0
 342 986 363 1004 395 1004 c 0
 451 1004 487 969 487 911 c 0
 487 829 421 763 340 763 c 0
 220 763 114 849 114 1026 c 0xf8
EndSplineSet
Layer: 2
SplineSet
114 1026 m 0,0,1
 114 1206 114 1206 225.5 1328 c 128,-1,2
 337 1450 337 1450 524 1450 c 0,3,4
 636 1450 636 1450 725.5 1416 c 128,-1,5
 815 1382 815 1382 870 1323.5 c 128,-1,6
 925 1265 925 1265 954 1190.5 c 128,-1,7
 983 1116 983 1116 983 1032 c 0,8,9
 983 944 983 944 944 848.5 c 128,-1,10
 905 753 905 753 847.5 672.5 c 128,-1,11
 790 592 790 592 700 500 c 128,-1,12
 610 408 610 408 534 342 c 128,-1,13
 458 276 458 276 356 194 c 1,14,-1
 364 176 l 1,15,-1
 762 176 l 2,16,17
 864 176 864 176 911 238 c 0,18,19
 955 295 955 295 972 388 c 1,20,-1
 1020 380 l 1,21,-1
 946 0 l 1,22,-1
 116 0 l 1,23,-1
 116 48 l 1,24,25
 330 223 330 223 498 414 c 0,26,27
 775 729 775 729 775 1050 c 0,28,29
 775 1201 775 1201 697 1293.5 c 128,-1,30
 619 1386 619 1386 468 1386 c 0,31,32
 379 1386 379 1386 310 1334 c 128,-1,33
 241 1282 241 1282 205.5 1201 c 128,-1,34
 170 1120 170 1120 170 1027 c 0,35,36
 170 972 170 972 195 948.5 c 128,-1,37
 220 925 220 925 249 925 c 0,38,39
 290 925 290 925 320 960 c 0,40,41
 357 1004 357 1004 395 1004 c 0,42,43
 437 1004 437 1004 462 979 c 128,-1,44
 487 954 487 954 487 911 c 0,45,46
 487 850 487 850 444 806.5 c 128,-1,47
 401 763 401 763 340 763 c 0,48,49
 244 763 244 763 179 831.5 c 128,-1,50
 114 900 114 900 114 1026 c 0,0,1
EndSplineSet
Substitution2: "'dnom' Denominators-1" two.dnom
Substitution2: "'subs' Subscript Forms-1" twoinferior
AlternateSubs2: "'aalt' Access All Alternates-1" twosuperior twooldstyle
Substitution2: "'sups' Superscript Forms-1" twosuperior
Substitution2: "'onum' Oldstyle Figures-1" twooldstyle
EndChar

StartChar: three
Encoding: 51 51 19
Width: 1152
VWidth: 2078
Flags: W
HStem: -16 48<368.648 619.716> 1402 48<412.107 628.309>
VStem: 112 128<143.288 349> 194 128<1125 1294.17> 762 184<958.067 1282.23> 806 204<219.277 584.683>
LayerCount: 3
Fore
SplineSet
112 297 m 0xe4
 112 401 194 476 274 476 c 0
 338 476 384 435 384 369 c 0
 384 308 358 278 304 248 c 0
 274 231 240 211 240 170 c 0
 240 109 351 32 508 32 c 0
 716 32 806 218 806 410 c 0xe4
 806 618 705 740 557 740 c 0
 518 740 438 722 366 705 c 9
 354 754 l 17
 420 767 493 783 553 802 c 0
 691 846 762 972 762 1129 c 0
 762 1309 654 1402 525 1402 c 0
 414 1402 322 1344 322 1276 c 0
 322 1248 337 1235 367 1220 c 0
 409 1199 422 1168 422 1130 c 0
 422 1073 381 1030 322 1030 c 0
 249 1030 194 1083 194 1167 c 0
 194 1291 338 1450 548 1450 c 0
 811 1450 946 1292 946 1124 c 0xd8
 946 932 810 843 668 788 c 9
 672 772 l 17
 870 739 1010 610 1010 412 c 0
 1010 132 787 -16 522 -16 c 0
 297 -16 112 89 112 297 c 0xe4
EndSplineSet
Layer: 2
SplineSet
112 297 m 0,0,1
 112 372 112 372 162 424 c 128,-1,2
 212 476 212 476 274 476 c 0,3,4
 323 476 323 476 353.5 447 c 128,-1,5
 384 418 384 418 384 369 c 0,6,7
 384 325 384 325 365.5 298.5 c 128,-1,8
 347 272 347 272 304 248 c 0,9,10
 284 237 284 237 273 229 c 128,-1,11
 262 221 262 221 251 205 c 128,-1,12
 240 189 240 189 240 170 c 0,13,14
 240 121 240 121 318 76.5 c 128,-1,15
 396 32 396 32 508 32 c 0,16,17
 607 32 607 32 676.5 87.5 c 128,-1,18
 746 143 746 143 776 226 c 128,-1,19
 806 309 806 309 806 410 c 0,20,21
 806 564 806 564 738 652 c 128,-1,22
 670 740 670 740 557 740 c 0,23,24
 514 740 514 740 366 705 c 1,25,-1
 354 754 l 1,26,27
 479 779 479 779 553 802 c 0,28,29
 654 834 654 834 708 921 c 128,-1,30
 762 1008 762 1008 762 1129 c 0,31,32
 762 1259 762 1259 694.5 1330.5 c 128,-1,33
 627 1402 627 1402 525 1402 c 0,34,35
 442 1402 442 1402 382 1364.5 c 128,-1,36
 322 1327 322 1327 322 1276 c 0,37,38
 322 1256 322 1256 332.5 1244 c 128,-1,39
 343 1232 343 1232 367 1220 c 0,40,41
 422 1192 422 1192 422 1130 c 0,42,43
 422 1087 422 1087 394 1058.5 c 128,-1,44
 366 1030 366 1030 322 1030 c 0,45,46
 266 1030 266 1030 230 1067.5 c 128,-1,47
 194 1105 194 1105 194 1167 c 0,48,49
 194 1214 194 1214 220.5 1263.5 c 128,-1,50
 247 1313 247 1313 292 1355 c 128,-1,51
 337 1397 337 1397 405 1423.5 c 128,-1,52
 473 1450 473 1450 548 1450 c 0,53,54
 643 1450 643 1450 720.5 1423 c 128,-1,55
 798 1396 798 1396 846.5 1350 c 128,-1,56
 895 1304 895 1304 920.5 1246 c 128,-1,57
 946 1188 946 1188 946 1124 c 0,58,59
 946 1055 946 1055 923.5 999 c 128,-1,60
 901 943 901 943 859.5 903.5 c 128,-1,61
 818 864 818 864 772.5 837.5 c 128,-1,62
 727 811 727 811 668 788 c 1,63,-1
 672 772 l 1,64,65
 825 747 825 747 917.5 652 c 128,-1,66
 1010 557 1010 557 1010 412 c 0,67,68
 1010 277 1010 277 942.5 178 c 128,-1,69
 875 79 875 79 766 31.5 c 128,-1,70
 657 -16 657 -16 522 -16 c 0,71,72
 407 -16 407 -16 316 18 c 128,-1,73
 225 52 225 52 168.5 124 c 128,-1,74
 112 196 112 196 112 297 c 0,0,1
EndSplineSet
Substitution2: "'dnom' Denominators-1" three.dnom
Substitution2: "'subs' Subscript Forms-1" threeinferior
AlternateSubs2: "'aalt' Access All Alternates-1" threesuperior threeoldstyle
Substitution2: "'sups' Superscript Forms-1" threesuperior
Substitution2: "'onum' Oldstyle Figures-1" threeoldstyle
EndChar

StartChar: four
Encoding: 52 52 20
Width: 1152
VWidth: 2078
Flags: W
HStem: 0 48<436 628 812 1004> 459 48<168 628 812 1042> 1487 20G<681 758>
VStem: 94 74<507 544.885> 596 208<1250.68 1462.11> 628 184<48 459 507 821>
LayerCount: 3
Fore
SplineSet
94 459 m 1xf4
 94 515 l 1
 230 626 298 694 398 844 c 0
 478 964 555 1121 596 1325 c 0
 616 1424 636 1507 726 1507 c 0
 790 1507 804 1463 804 1420 c 0xf8
 804 1314 704 1094 574 928 c 0
 471 796 354 672 168 516 c 1
 168 507 l 1
 628 507 l 1
 628 821 l 1
 796 985 l 1
 812 985 l 1
 812 507 l 1
 1042 507 l 1
 1042 459 l 1
 812 459 l 1
 812 48 l 1
 1004 48 l 1
 1004 0 l 1
 436 0 l 1
 436 48 l 1
 628 48 l 1
 628 459 l 1
 94 459 l 1xf4
EndSplineSet
Layer: 2
SplineSet
94 459 m 1,0,-1
 94 515 l 1,1,2
 201 602 201 602 263.5 668.5 c 128,-1,3
 326 735 326 735 398 844 c 0,4,5
 543 1062 543 1062 596 1325 c 0,6,7
 603 1361 603 1361 608.5 1382.5 c 128,-1,8
 614 1404 614 1404 624.5 1431 c 128,-1,9
 635 1458 635 1458 647.5 1472.5 c 128,-1,10
 660 1487 660 1487 680 1497 c 128,-1,11
 700 1507 700 1507 726 1507 c 0,12,13
 804 1507 804 1507 804 1420 c 0,14,15
 804 1339 804 1339 737 1195 c 128,-1,16
 670 1051 670 1051 574 928 c 0,17,18
 413 721 413 721 168 516 c 1,19,-1
 168 507 l 1,20,-1
 628 507 l 1,21,-1
 628 821 l 1,22,-1
 796 985 l 1,23,-1
 812 985 l 1,24,-1
 812 507 l 1,25,-1
 1042 507 l 1,26,-1
 1042 459 l 1,27,-1
 812 459 l 1,28,-1
 812 48 l 1,29,-1
 1004 48 l 1,30,-1
 1004 0 l 1,31,-1
 436 0 l 1,32,-1
 436 48 l 1,33,-1
 628 48 l 1,34,-1
 628 459 l 1,35,-1
 94 459 l 1,0,-1
EndSplineSet
Substitution2: "'dnom' Denominators-1" four.dnom
Substitution2: "'subs' Subscript Forms-1" fourinferior
AlternateSubs2: "'aalt' Access All Alternates-1" foursuperior fouroldstyle
Substitution2: "'sups' Superscript Forms-1" foursuperior
Substitution2: "'onum' Oldstyle Figures-1" fouroldstyle
EndChar

StartChar: five
Encoding: 53 53 21
Width: 1152
VWidth: 2078
Flags: W
HStem: -16 48<347.932 601.651> 918 48<424.335 626.055> 1168 140<418.552 600.753> 1430 20G<270 335>
VStem: 122 166<134.76 321.5> 804 206<300.497 726.357>
DStem2: 198 667 260 821 0.0929807 0.995668<0 72.0511 159.098 540.892>
LayerCount: 3
Fore
SplineSet
122 272 m 0
 122 371 187 431 260 431 c 0
 350 431 373 365 373 324 c 0
 373 276 357 251 324 218 c 0
 306 199 288 180 288 151 c 0
 288 71 347 32 478 32 c 0
 695 32 804 196 804 424 c 0
 804 648 753 918 520 918 c 0
 393 918 304 824 233 662 c 9
 198 667 l 25
 270 1438 l 25
 300 1450 l 17
 370 1378 458 1308 562 1308 c 0
 687 1308 766 1448 831 1568 c 9
 867 1552 l 17
 779 1362 629 1168 468 1168 c 0
 389 1168 354 1178 297 1201 c 9
 260 821 l 25
 268 819 l 17
 343 925 449 966 550 966 c 0
 836 966 1010 786 1010 529 c 0
 1010 212 791 -16 469 -16 c 0
 277 -16 122 117 122 272 c 0
EndSplineSet
Layer: 2
SplineSet
122 272 m 0,0,1
 122 344 122 344 162.5 387.5 c 128,-1,2
 203 431 203 431 260 431 c 0,3,4
 320 431 320 431 346.5 397.5 c 128,-1,5
 373 364 373 364 373 324 c 0,6,7
 373 290 373 290 362 267.5 c 128,-1,8
 351 245 351 245 324 218 c 1,9,10
 288 180 288 180 288 151 c 0,11,12
 288 91 288 91 334 61.5 c 128,-1,13
 380 32 380 32 478 32 c 0,14,15
 636 32 636 32 720 139.5 c 128,-1,16
 804 247 804 247 804 424 c 0,17,18
 804 497 804 497 797 562 c 128,-1,19
 790 627 790 627 771 694 c 128,-1,20
 752 761 752 761 721 809 c 128,-1,21
 690 857 690 857 638.5 887.5 c 128,-1,22
 587 918 587 918 520 918 c 0,23,24
 428 918 428 918 358 853 c 128,-1,25
 288 788 288 788 233 662 c 1,26,-1
 198 667 l 1,27,-1
 270 1438 l 1,28,-1
 300 1450 l 1,29,30
 438 1308 438 1308 562 1308 c 0,31,32
 598 1308 598 1308 632.5 1324.5 c 128,-1,33
 667 1341 667 1341 691.5 1363.5 c 128,-1,34
 716 1386 716 1386 744.5 1426 c 128,-1,35
 773 1466 773 1466 789.5 1494 c 128,-1,36
 806 1522 806 1522 831 1568 c 1,37,-1
 867 1552 l 1,38,39
 832 1477 832 1477 789.5 1411 c 128,-1,40
 747 1345 747 1345 695.5 1289 c 128,-1,41
 644 1233 644 1233 585 1200.5 c 128,-1,42
 526 1168 526 1168 468 1168 c 0,43,44
 412 1168 412 1168 377.5 1175 c 128,-1,45
 343 1182 343 1182 297 1201 c 1,46,-1
 260 821 l 1,47,-1
 268 819 l 1,48,49
 372 966 372 966 550 966 c 0,50,51
 762 966 762 966 886 845 c 128,-1,52
 1010 724 1010 724 1010 529 c 0,53,54
 1010 290 1010 290 859.5 137 c 128,-1,55
 709 -16 709 -16 469 -16 c 0,56,57
 326 -16 326 -16 224 69.5 c 128,-1,58
 122 155 122 155 122 272 c 0,0,1
EndSplineSet
Substitution2: "'dnom' Denominators-1" five.dnom
Substitution2: "'subs' Subscript Forms-1" fiveinferior
Substitution2: "'sups' Superscript Forms-1" fivesuperior
AlternateSubs2: "'aalt' Access All Alternates-1" fiveoldstyle
Substitution2: "'onum' Oldstyle Figures-1" fiveoldstyle
EndChar

StartChar: six
Encoding: 54 54 22
Width: 1152
VWidth: 2078
Flags: W
HStem: -16 48<509.067 707.706> 851 48<516.557 711.284> 1402 48<560.354 770.487>
VStem: 122 208<355.61 977.078> 812 156<1158.24 1337.56> 854 208<261.446 683.225>
LayerCount: 3
Fore
SplineSet
122 672 m 0xf4
 122 1107 369 1450 659 1450 c 0
 841 1450 968 1342 968 1216 c 0
 968 1130 917 1077 851 1077 c 0
 802 1077 757 1110 757 1159 c 0
 757 1197 772 1226 787 1251 c 0
 800 1271 812 1291 812 1325 c 0xf8
 812 1363 761 1402 658 1402 c 0
 414 1402 330 1065 330 746 c 1
 336 743 l 1
 427 856 537 899 657 899 c 0
 951 899 1062 679 1062 482 c 0
 1062 218 884 -16 609 -16 c 0
 341 -16 122 216 122 672 c 0xf4
330 558 m 0
 330 243 395 32 615 32 c 0
 774 32 854 200 854 483 c 0xf4
 854 690 789 851 612 851 c 0
 517 851 389 780 344 647 c 0
 331 611 330 563 330 558 c 0
EndSplineSet
Layer: 2
SplineSet
122 672 m 0,0,1
 122 885 122 885 195.5 1065 c 128,-1,2
 269 1245 269 1245 392.5 1347.5 c 128,-1,3
 516 1450 516 1450 659 1450 c 0,4,5
 793 1450 793 1450 880.5 1381.5 c 128,-1,6
 968 1313 968 1313 968 1216 c 0,7,8
 968 1153 968 1153 935 1115 c 128,-1,9
 902 1077 902 1077 851 1077 c 0,10,11
 813 1077 813 1077 785 1100 c 128,-1,12
 757 1123 757 1123 757 1159 c 0,13,14
 757 1201 757 1201 787 1251 c 1,15,16
 812 1289 812 1289 812 1325 c 0,17,18
 812 1356 812 1356 771.5 1379 c 128,-1,19
 731 1402 731 1402 658 1402 c 0,20,21
 570 1402 570 1402 504.5 1345.5 c 128,-1,22
 439 1289 439 1289 402 1192.5 c 128,-1,23
 365 1096 365 1096 347.5 984 c 128,-1,24
 330 872 330 872 330 746 c 1,25,-1
 336 743 l 1,26,27
 462 899 462 899 657 899 c 0,28,29
 742 899 742 899 811.5 874.5 c 128,-1,30
 881 850 881 850 927 809 c 128,-1,31
 973 768 973 768 1004 713.5 c 128,-1,32
 1035 659 1035 659 1048.5 601 c 128,-1,33
 1062 543 1062 543 1062 482 c 0,34,35
 1062 349 1062 349 1007 236 c 128,-1,36
 952 123 952 123 847 53.5 c 128,-1,37
 742 -16 742 -16 609 -16 c 0,38,39
 507 -16 507 -16 419.5 28 c 128,-1,40
 332 72 332 72 265 156 c 128,-1,41
 198 240 198 240 160 373 c 128,-1,42
 122 506 122 506 122 672 c 0,0,1
330 558 m 0,43,44
 330 434 330 434 344 342 c 128,-1,45
 358 250 358 250 390 178 c 128,-1,46
 422 106 422 106 478 69 c 128,-1,47
 534 32 534 32 615 32 c 0,48,49
 733 32 733 32 793.5 150 c 128,-1,50
 854 268 854 268 854 483 c 0,51,52
 854 563 854 563 841 628 c 128,-1,53
 828 693 828 693 800 744 c 128,-1,54
 772 795 772 795 724 823 c 128,-1,55
 676 851 676 851 612 851 c 0,56,57
 534 851 534 851 455 796 c 128,-1,58
 376 741 376 741 344 647 c 0,59,60
 330 608 330 608 330 558 c 0,43,44
EndSplineSet
Substitution2: "'dnom' Denominators-1" six.dnom
Substitution2: "'subs' Subscript Forms-1" sixinferior
Substitution2: "'sups' Superscript Forms-1" sixsuperior
AlternateSubs2: "'aalt' Access All Alternates-1" sixoldstyle
Substitution2: "'onum' Oldstyle Figures-1" sixoldstyle
EndChar

StartChar: seven
Encoding: 55 55 23
Width: 1152
Flags: W
HStem: -16 21G<422.5 500> 1151 74<686.5 892.492> 1228 226<334.514 528.964>
VStem: 356 225<15.5222 214.908> 976 88<1286.89 1449.88>
DStem2: 164 997 203 997 0.0893566 0.996<3.48491 146.09 336.838 458.836>
LayerCount: 3
Fore
SplineSet
164 997 m 25
 205 1454 l 25
 244 1454 l 25
 233 1329 l 25
 243 1327 l 17
 289 1388 358 1440 441 1440 c 0
 566 1440 627 1384 687 1323 c 0
 735 1274 813 1225 867 1225 c 0
 921 1225 949 1264 962 1298 c 0
 972 1324 975 1362 976 1381 c 0
 978 1416 988 1450 1023 1450 c 0
 1052 1450 1064 1431 1064 1413 c 0
 1064 1369 1039 1318 999 1245 c 0
 968 1190 913 1069 866 964 c 0
 786 790 640 470 581 156 c 0
 559 37 548 -16 452 -16 c 0
 393 -16 356 10 356 59 c 0
 356 176 500 426 630 639 c 0
 728 800 828 992 898 1174 c 9
 891 1179 l 17
 831 1158 795 1151 720 1151 c 0
 653 1151 541 1178 487 1197 c 0
 435 1215 397 1228 350 1228 c 0
 293 1228 260 1190 239 1146 c 0
 216 1099 210 1064 203 997 c 9
 164 997 l 25
EndSplineSet
Layer: 2
SplineSet
164 997 m 1,0,-1
 205 1454 l 1,1,-1
 244 1454 l 1,2,-1
 233 1329 l 1,3,-1
 243 1327 l 1,4,5
 328 1440 328 1440 441 1440 c 0,6,7
 500 1440 500 1440 548.5 1421.5 c 128,-1,8
 597 1403 597 1403 623.5 1382 c 128,-1,9
 650 1361 650 1361 687 1323 c 0,10,11
 726 1284 726 1284 777 1254.5 c 128,-1,12
 828 1225 828 1225 867 1225 c 0,13,14
 934 1225 934 1225 962 1298 c 0,15,16
 973 1327 973 1327 976 1381 c 0,17,18
 980 1450 980 1450 1023 1450 c 0,19,20
 1043 1450 1043 1450 1053.5 1439 c 128,-1,21
 1064 1428 1064 1428 1064 1413 c 0,22,23
 1064 1364 1064 1364 999 1245 c 0,24,25
 964 1183 964 1183 866 964 c 1,26,27
 823 871 823 871 793.5 802.5 c 128,-1,28
 764 734 764 734 718 618 c 128,-1,29
 672 502 672 502 637 384 c 128,-1,30
 602 266 602 266 581 156 c 0,31,32
 573 112 573 112 568 91.5 c 128,-1,33
 563 71 563 71 553.5 45 c 128,-1,34
 544 19 544 19 532 9 c 128,-1,35
 520 -1 520 -1 500.5 -8.5 c 128,-1,36
 481 -16 481 -16 452 -16 c 0,37,38
 407 -16 407 -16 381.5 3.5 c 128,-1,39
 356 23 356 23 356 59 c 0,40,41
 356 138 356 138 431.5 287.5 c 128,-1,42
 507 437 507 437 630 639 c 0,43,44
 799 917 799 917 898 1174 c 1,45,-1
 891 1179 l 1,46,47
 811 1151 811 1151 720 1151 c 0,48,49
 674 1151 674 1151 603.5 1166 c 128,-1,50
 533 1181 533 1181 487 1197 c 0,51,52
 397 1228 397 1228 350 1228 c 0,53,54
 278 1228 278 1228 239 1146 c 0,55,56
 213 1093 213 1093 203 997 c 1,57,-1
 164 997 l 1,0,-1
EndSplineSet
Substitution2: "'dnom' Denominators-1" seven.dnom
Substitution2: "'subs' Subscript Forms-1" seveninferior
Substitution2: "'sups' Superscript Forms-1" sevensuperior
AlternateSubs2: "'aalt' Access All Alternates-1" sevenoldstyle
Substitution2: "'onum' Oldstyle Figures-1" sevenoldstyle
EndChar

StartChar: eight
Encoding: 56 56 24
Width: 1152
VWidth: 2078
Flags: W
HStem: -16 48<435.909 710.459> 1402 48<431.897 676.068>
VStem: 116 132<177.137 484.557> 146 108<1004.07 1241.06> 870 116<979.251 1254.09> 914 140<237.901 447.505>
DStem2: 514 871 464 680 0.917607 -0.397489<-242.622 -25.5027 1.90018 210.634 236.485 476.061>
LayerCount: 3
Fore
SplineSet
116 329 m 0xe4
 116 501 252 612 413 696 c 1
 413 702 l 1
 261 777 146 875 146 1064 c 0
 146 1299 347 1450 575 1450 c 0
 802 1450 986 1322 986 1150 c 0xd8
 986 976 869 866 731 781 c 1
 731 777 l 1
 899 697 1054 602 1054 422 c 0
 1054 171 824 -16 569 -16 c 0
 335 -16 116 113 116 329 c 0xe4
248 334 m 0xe4
 248 169 362 32 569 32 c 0
 763 32 914 147 914 311 c 0
 914 471 784 540 579 629 c 2
 464 680 l 1
 326 595 248 488 248 334 c 0xe4
254 1138 m 0xd8
 254 984 361 936 514 871 c 2
 683 798 l 1
 798 870 870 962 870 1104 c 0
 870 1255 745 1402 549 1402 c 0
 398 1402 254 1285 254 1138 c 0xd8
EndSplineSet
Layer: 2
SplineSet
116 329 m 0,0,1
 116 448 116 448 195.5 536 c 128,-1,2
 275 624 275 624 413 696 c 1,3,-1
 413 702 l 1,4,5
 285 765 285 765 215.5 848.5 c 128,-1,6
 146 932 146 932 146 1064 c 0,7,8
 146 1178 146 1178 206 1267.5 c 128,-1,9
 266 1357 266 1357 363 1403.5 c 128,-1,10
 460 1450 460 1450 575 1450 c 0,11,12
 747 1450 747 1450 866.5 1364 c 128,-1,13
 986 1278 986 1278 986 1150 c 0,14,15
 986 1030 986 1030 918 942 c 128,-1,16
 850 854 850 854 731 781 c 1,17,-1
 731 777 l 1,18,19
 788 750 788 750 830 726.5 c 128,-1,20
 872 703 872 703 916.5 669.5 c 128,-1,21
 961 636 961 636 989.5 601.5 c 128,-1,22
 1018 567 1018 567 1036 520.5 c 128,-1,23
 1054 474 1054 474 1054 422 c 0,24,25
 1054 300 1054 300 986 198.5 c 128,-1,26
 918 97 918 97 807 40.5 c 128,-1,27
 696 -16 696 -16 569 -16 c 0,28,29
 450 -16 450 -16 348 24.5 c 128,-1,30
 246 65 246 65 181 145 c 128,-1,31
 116 225 116 225 116 329 c 0,0,1
248 334 m 0,32,33
 248 205 248 205 333.5 118.5 c 128,-1,34
 419 32 419 32 569 32 c 0,35,36
 716 32 716 32 815 110.5 c 128,-1,37
 914 189 914 189 914 311 c 0,38,39
 914 358 914 358 897.5 397.5 c 128,-1,40
 881 437 881 437 856 466 c 128,-1,41
 831 495 831 495 784.5 525 c 128,-1,42
 738 555 738 555 694 576.5 c 128,-1,43
 650 598 650 598 579 629 c 2,44,-1
 464 680 l 1,45,46
 357 614 357 614 302.5 530 c 128,-1,47
 248 446 248 446 248 334 c 0,32,33
254 1138 m 0,48,49
 254 1100 254 1100 261.5 1069.5 c 128,-1,50
 269 1039 269 1039 288 1014 c 128,-1,51
 307 989 307 989 325.5 971.5 c 128,-1,52
 344 954 344 954 379.5 934.5 c 128,-1,53
 415 915 415 915 440.5 903 c 128,-1,54
 466 891 466 891 514 871 c 2,55,-1
 683 798 l 1,56,57
 774 855 774 855 822 928.5 c 128,-1,58
 870 1002 870 1002 870 1104 c 0,59,60
 870 1223 870 1223 780 1312.5 c 128,-1,61
 690 1402 690 1402 549 1402 c 0,62,63
 433 1402 433 1402 343.5 1324 c 128,-1,64
 254 1246 254 1246 254 1138 c 0,48,49
EndSplineSet
Substitution2: "'dnom' Denominators-1" eight.dnom
Substitution2: "'subs' Subscript Forms-1" eightinferior
Substitution2: "'sups' Superscript Forms-1" eightsuperior
AlternateSubs2: "'aalt' Access All Alternates-1" eightoldstyle
Substitution2: "'onum' Oldstyle Figures-1" eightoldstyle
EndChar

StartChar: nine
Encoding: 57 57 25
Width: 1152
VWidth: 2078
Flags: W
HStem: -16 48<381.513 591.646> 535 48<440.716 635.443> 1402 48<444.294 642.933>
VStem: 90 208<750.775 1172.55> 184 156<96.4402 275.756> 822 208<456.922 1078.39>
LayerCount: 3
Fore
SplineSet
90 952 m 0xf4
 90 1216 268 1450 543 1450 c 0
 811 1450 1030 1218 1030 762 c 0
 1030 327 783 -16 493 -16 c 0
 311 -16 184 92 184 218 c 0
 184 304 235 357 301 357 c 0
 350 357 395 324 395 275 c 0
 395 237 380 208 365 183 c 0
 352 163 340 143 340 109 c 0xec
 340 71 391 32 494 32 c 0
 738 32 822 369 822 688 c 1
 816 691 l 1
 725 578 615 535 495 535 c 0
 201 535 90 755 90 952 c 0xf4
298 951 m 0xf4
 298 744 363 583 540 583 c 0
 635 583 763 654 808 787 c 0
 821 823 822 871 822 876 c 0
 822 1191 757 1402 537 1402 c 0
 378 1402 298 1234 298 951 c 0xf4
EndSplineSet
Layer: 2
SplineSet
90 952 m 0,0,1
 90 1085 90 1085 145 1198 c 128,-1,2
 200 1311 200 1311 305 1380.5 c 128,-1,3
 410 1450 410 1450 543 1450 c 0,4,5
 645 1450 645 1450 732.5 1406 c 128,-1,6
 820 1362 820 1362 887 1278 c 128,-1,7
 954 1194 954 1194 992 1061 c 128,-1,8
 1030 928 1030 928 1030 762 c 0,9,10
 1030 549 1030 549 956.5 369 c 128,-1,11
 883 189 883 189 759.5 86.5 c 128,-1,12
 636 -16 636 -16 493 -16 c 0,13,14
 359 -16 359 -16 271.5 52.5 c 128,-1,15
 184 121 184 121 184 218 c 0,16,17
 184 281 184 281 217 319 c 128,-1,18
 250 357 250 357 301 357 c 0,19,20
 339 357 339 357 367 334 c 128,-1,21
 395 311 395 311 395 275 c 0,22,23
 395 233 395 233 365 183 c 1,24,25
 340 145 340 145 340 109 c 0,26,27
 340 78 340 78 380.5 55 c 128,-1,28
 421 32 421 32 494 32 c 0,29,30
 582 32 582 32 647.5 88.5 c 128,-1,31
 713 145 713 145 750 241.5 c 128,-1,32
 787 338 787 338 804.5 450 c 128,-1,33
 822 562 822 562 822 688 c 1,34,-1
 816 691 l 1,35,36
 690 535 690 535 495 535 c 0,37,38
 410 535 410 535 340.5 559.5 c 128,-1,39
 271 584 271 584 225 625 c 128,-1,40
 179 666 179 666 148 720.5 c 128,-1,41
 117 775 117 775 103.5 833 c 128,-1,42
 90 891 90 891 90 952 c 0,0,1
298 951 m 0,43,44
 298 871 298 871 311 806 c 128,-1,45
 324 741 324 741 352 690 c 128,-1,46
 380 639 380 639 428 611 c 128,-1,47
 476 583 476 583 540 583 c 0,48,49
 618 583 618 583 697 638 c 128,-1,50
 776 693 776 693 808 787 c 0,51,52
 822 826 822 826 822 876 c 0,53,54
 822 1000 822 1000 808 1092 c 128,-1,55
 794 1184 794 1184 762 1256 c 128,-1,56
 730 1328 730 1328 674 1365 c 128,-1,57
 618 1402 618 1402 537 1402 c 0,58,59
 419 1402 419 1402 358.5 1284 c 128,-1,60
 298 1166 298 1166 298 951 c 0,43,44
EndSplineSet
Substitution2: "'dnom' Denominators-1" nine.dnom
Substitution2: "'subs' Subscript Forms-1" nineinferior
Substitution2: "'sups' Superscript Forms-1" ninesuperior
AlternateSubs2: "'aalt' Access All Alternates-1" nineoldstyle
Substitution2: "'onum' Oldstyle Figures-1" nineoldstyle
EndChar

StartChar: less
Encoding: 60 60 28
Width: 1152
VWidth: 1882
Flags: W
HStem: -24 21G<985.633 1034>
VStem: 84 115<408.5 619.5>
DStem2: 84 562 199 514 0.886753 0.462244<79.7889 1058.39> 199 514 84 466 0.886753 -0.462244<0 978.598>
LayerCount: 3
Fore
SplineSet
84 466 m 1
 84 562 l 1
 1024 1052 l 1
 1068 964 l 1
 199 514 l 1
 1068 64 l 1
 1024 -24 l 1
 84 466 l 1
EndSplineSet
Layer: 2
SplineSet
84 466 m 1,0,-1
 84 562 l 1,1,-1
 1024 1052 l 1,2,-1
 1068 964 l 1,3,-1
 199 514 l 1,4,-1
 1068 64 l 1,5,-1
 1024 -24 l 1,6,-1
 84 466 l 1,0,-1
EndSplineSet
EndChar

StartChar: equal
Encoding: 61 61 29
Width: 1152
VWidth: 2078
Flags: W
HStem: 310 96<62 1090> 622 96<62 1090>
LayerCount: 3
Fore
SplineSet
62 310 m 1
 62 406 l 1
 1090 406 l 1
 1090 310 l 1
 62 310 l 1
62 622 m 1
 62 718 l 1
 1090 718 l 1
 1090 622 l 1
 62 622 l 1
EndSplineSet
Layer: 2
SplineSet
62 310 m 1,0,-1
 62 406 l 1,1,-1
 1090 406 l 1,2,-1
 1090 310 l 1,3,-1
 62 310 l 1,0,-1
62 622 m 1,4,-1
 62 718 l 1,5,-1
 1090 718 l 1,6,-1
 1090 622 l 1,7,-1
 62 622 l 1,4,-1
EndSplineSet
EndChar

StartChar: greater
Encoding: 62 62 30
Width: 1152
VWidth: 1882
Flags: W
HStem: -24 21G<118 166.367>
VStem: 953 115<408.5 619.5>
DStem2: 128 1052 84 964 0.886753 -0.462244<1.66031 980.258> 84 64 128 -24 0.886753 0.462244<0 978.598>
LayerCount: 3
Fore
SplineSet
84 64 m 1
 953 514 l 1
 84 964 l 1
 128 1052 l 1
 1068 562 l 1
 1068 466 l 1
 128 -24 l 1
 84 64 l 1
EndSplineSet
Layer: 2
SplineSet
84 64 m 1,0,-1
 953 514 l 1,1,-1
 84 964 l 1,2,-1
 128 1052 l 1,3,-1
 1068 562 l 1,4,-1
 1068 466 l 1,5,-1
 128 -24 l 1,6,-1
 84 64 l 1,0,-1
EndSplineSet
EndChar

StartChar: question
Encoding: 63 63 31
Width: 852
VWidth: 2078
Flags: W
HStem: -24 256<204.773 399.227> 688 48<369.423 537.618> 1456 56<327.93 492.734>
VStem: 144 154<1234.93 1400.72> 174 256<6.77267 201.227> 268 72<339 714> 620 148<849.057 1271.86>
LayerCount: 3
Fore
SplineSet
144 1309 m 0xf2
 144 1433 264 1512 397 1512 c 0
 633 1512 768 1279 768 1055 c 0
 768 785 598 688 466 688 c 0
 426 688 382 694 344 718 c 1
 340 714 l 25
 340 339 l 25
 268 339 l 25
 268 836 l 17xe6
 302 836 l 1
 315 808 328 791 348 774 c 0
 375 751 415 736 470 736 c 0
 596 736 620 917 620 1088 c 0
 620 1263 571 1456 399 1456 c 0
 349 1456 324 1436 310 1402 c 0
 299 1375 298 1333 298 1302 c 0
 298 1259 277 1228 228 1228 c 0
 175 1228 144 1258 144 1309 c 0xf2
174 104 m 0xea
 174 176 230 232 302 232 c 0
 374 232 430 176 430 104 c 0
 430 32 374 -24 302 -24 c 0
 230 -24 174 32 174 104 c 0xea
EndSplineSet
Layer: 2
SplineSet
144 1309 m 0,0,1
 144 1399 144 1399 218.5 1455.5 c 128,-1,2
 293 1512 293 1512 397 1512 c 0,3,4
 510 1512 510 1512 596.5 1443.5 c 128,-1,5
 683 1375 683 1375 725.5 1272.5 c 128,-1,6
 768 1170 768 1170 768 1055 c 0,7,8
 768 959 768 959 740 885 c 128,-1,9
 712 811 712 811 666 769.5 c 128,-1,10
 620 728 620 728 569.5 708 c 128,-1,11
 519 688 519 688 466 688 c 0,12,13
 392 688 392 688 344 718 c 1,14,-1
 340 714 l 1,15,-1
 340 339 l 1,16,-1
 268 339 l 1,17,-1
 268 836 l 1,18,-1
 302 836 l 1,19,20
 320 798 320 798 348 774 c 0,21,22
 393 736 393 736 470 736 c 0,23,24
 620 736 620 736 620 1088 c 0,25,26
 620 1144 620 1144 613.5 1194 c 128,-1,27
 607 1244 607 1244 591.5 1293 c 128,-1,28
 576 1342 576 1342 551.5 1377 c 128,-1,29
 527 1412 527 1412 488 1434 c 128,-1,30
 449 1456 449 1456 399 1456 c 0,31,32
 332 1456 332 1456 310 1402 c 0,33,34
 298 1373 298 1373 298 1302 c 0,35,36
 298 1228 298 1228 228 1228 c 0,37,38
 188 1228 188 1228 166 1249.5 c 128,-1,39
 144 1271 144 1271 144 1309 c 0,0,1
174 104 m 128,-1,41
 174 158 174 158 211 195 c 128,-1,42
 248 232 248 232 302 232 c 128,-1,43
 356 232 356 232 393 195 c 128,-1,44
 430 158 430 158 430 104 c 128,-1,45
 430 50 430 50 393 13 c 128,-1,46
 356 -24 356 -24 302 -24 c 128,-1,47
 248 -24 248 -24 211 13 c 128,-1,40
 174 50 174 50 174 104 c 128,-1,41
EndSplineSet
EndChar

StartChar: at
Encoding: 64 64 32
Width: 1716
Flags: W
HStem: -400 72<677.87 1119.95> -12 64<1143.39 1337.44> -12 49<658.255 805.27> 759 79<789.275 989.609> 1204 64<752.579 1143.9>
VStem: 60 144<124.908 655.583> 456 146<109.154 508.63> 1008 116<61.6784 195> 1564 96<336.935 807.943>
LayerCount: 3
Fore
SplineSet
60 371 m 0xdf80
 60 977 549 1268 983 1268 c 0
 1360 1268 1660 968 1660 616 c 0
 1660 248 1464 -12 1212 -12 c 0xdf80
 1064 -12 1012 95 1008 195 c 9
 998 198 l 17
 957 106 849 -12 719 -12 c 0xbf80
 568 -12 456 99 456 288 c 0
 456 570 631 838 917 838 c 0
 1011 838 1077 744 1090 652 c 9
 1109 656 l 25
 1156 826 l 25
 1296 826 l 25
 1153 324 l 18
 1137 270 1124 215 1124 162 c 0
 1124 101 1139 52 1219 52 c 0
 1412 52 1564 270 1564 570 c 0
 1564 936 1289 1204 958 1204 c 0
 580 1204 204 907 204 387 c 0
 204 -85 546 -328 908 -328 c 0
 1164 -328 1365 -186 1467 -78 c 9
 1515 -141 l 17
 1410 -249 1196 -400 904 -400 c 0
 508 -400 60 -108 60 371 c 0xdf80
602 247 m 0
 602 147 629 37 723 37 c 0xbf80
 905 37 1037 365 1037 545 c 0
 1037 670 1001 759 899 759 c 0
 793 759 701 655 653 531 c 0
 614 429 602 362 602 247 c 0
EndSplineSet
Layer: 2
SplineSet
60 371 m 0,0,1
 60 547 60 547 114.5 696.5 c 128,-1,2
 169 846 169 846 260 949.5 c 128,-1,3
 351 1053 351 1053 470.5 1126 c 128,-1,4
 590 1199 590 1199 720 1233.5 c 128,-1,5
 850 1268 850 1268 983 1268 c 0,6,7
 1121 1268 1121 1268 1247 1215.5 c 128,-1,8
 1373 1163 1373 1163 1463 1074.5 c 128,-1,9
 1553 986 1553 986 1606.5 866 c 128,-1,10
 1660 746 1660 746 1660 616 c 0,11,12
 1660 343 1660 343 1531.5 165.5 c 128,-1,13
 1403 -12 1403 -12 1212 -12 c 0,14,15
 1110 -12 1110 -12 1060.5 48.5 c 128,-1,16
 1011 109 1011 109 1008 195 c 1,17,-1
 998 198 l 1,18,19
 963 118 963 118 886 53 c 128,-1,20
 809 -12 809 -12 719 -12 c 0,21,22
 603 -12 603 -12 529.5 68.5 c 128,-1,23
 456 149 456 149 456 288 c 0,24,25
 456 431 456 431 510.5 555 c 128,-1,26
 565 679 565 679 672 758.5 c 128,-1,27
 779 838 779 838 917 838 c 0,28,29
 984 838 984 838 1032 782 c 128,-1,30
 1080 726 1080 726 1090 652 c 1,31,-1
 1109 656 l 1,32,-1
 1156 826 l 1,33,-1
 1296 826 l 1,34,-1
 1153 324 l 1,35,36
 1124 226 1124 226 1124 162 c 0,37,38
 1124 109 1124 109 1144 80.5 c 128,-1,39
 1164 52 1164 52 1219 52 c 0,40,41
 1365 52 1365 52 1464.5 199.5 c 128,-1,42
 1564 347 1564 347 1564 570 c 0,43,44
 1564 704 1564 704 1515.5 823 c 128,-1,45
 1467 942 1467 942 1385 1025 c 128,-1,46
 1303 1108 1303 1108 1192 1156 c 128,-1,47
 1081 1204 1081 1204 958 1204 c 0,48,49
 815 1204 815 1204 680.5 1148.5 c 128,-1,50
 546 1093 546 1093 439.5 991.5 c 128,-1,51
 333 890 333 890 268.5 732.5 c 128,-1,52
 204 575 204 575 204 387 c 0,53,54
 204 249 204 249 242.5 131.5 c 128,-1,55
 281 14 281 14 347.5 -69.5 c 128,-1,56
 414 -153 414 -153 503.5 -212 c 128,-1,57
 593 -271 593 -271 695.5 -299.5 c 128,-1,58
 798 -328 798 -328 908 -328 c 0,59,60
 999 -328 999 -328 1087.5 -305 c 128,-1,61
 1176 -282 1176 -282 1246.5 -243 c 128,-1,62
 1317 -204 1317 -204 1371 -163.5 c 128,-1,63
 1425 -123 1425 -123 1467 -78 c 1,64,-1
 1515 -141 l 1,65,66
 1471 -186 1471 -186 1414.5 -227.5 c 128,-1,67
 1358 -269 1358 -269 1281.5 -310 c 128,-1,68
 1205 -351 1205 -351 1106.5 -375.5 c 128,-1,69
 1008 -400 1008 -400 904 -400 c 0,70,71
 785 -400 785 -400 664.5 -366.5 c 128,-1,72
 544 -333 544 -333 435.5 -266 c 128,-1,73
 327 -199 327 -199 243 -108 c 128,-1,74
 159 -17 159 -17 109.5 107.5 c 128,-1,75
 60 232 60 232 60 371 c 0,0,1
602 247 m 0,76,77
 602 207 602 207 608 171.5 c 128,-1,78
 614 136 614 136 627 105 c 128,-1,79
 640 74 640 74 664.5 55.5 c 128,-1,80
 689 37 689 37 723 37 c 0,81,82
 788 37 788 37 848.5 91 c 128,-1,83
 909 145 909 145 949 224 c 128,-1,84
 989 303 989 303 1013 389.5 c 128,-1,85
 1037 476 1037 476 1037 545 c 0,86,87
 1037 759 1037 759 899 759 c 0,88,89
 823 759 823 759 757 694 c 128,-1,90
 691 629 691 629 653 531 c 0,91,92
 624 455 624 455 613 394 c 128,-1,93
 602 333 602 333 602 247 c 0,76,77
EndSplineSet
EndChar

StartChar: A
Encoding: 65 65 33
Width: 1534
VWidth: 2078
Flags: W
HStem: 0 52<56 274 342 552 830 1080 1320 1502> 512 52<508 890> 1442 20G<729.447 803.433>
DStem2: 274 52 342 52 0.311371 0.950288<21.1732 505.012 559.409 1133.36> 796 1462 688 1109 0.348353 -0.937363<293.267 874.497 930.207 1420.61>
AnchorPoint: "DotBelow" 690 -20 basechar 0
AnchorPoint: "Bottom" 690 0 basechar 0
AnchorPoint: "TopCap" 764 1580 basechar 0
LayerCount: 3
Fore
SplineSet
56 0 m 1
 56 52 l 1
 274 52 l 1
 736 1462 l 1
 796 1462 l 1
 1320 52 l 1
 1502 52 l 1
 1502 0 l 1
 830 0 l 1
 830 52 l 1
 1080 52 l 1
 910 512 l 1
 492 512 l 1
 342 52 l 1
 552 52 l 1
 552 0 l 1
 56 0 l 1
508 564 m 1
 890 564 l 1
 688 1109 l 1
 508 564 l 1
EndSplineSet
Layer: 2
SplineSet
56 0 m 1,0,-1
 56 52 l 1,1,-1
 274 52 l 1,2,-1
 736 1462 l 1,3,-1
 796 1462 l 1,4,-1
 1320 52 l 1,5,-1
 1502 52 l 1,6,-1
 1502 0 l 1,7,-1
 830 0 l 1,8,-1
 830 52 l 1,9,-1
 1080 52 l 1,10,-1
 910 512 l 1,11,-1
 492 512 l 1,12,-1
 342 52 l 1,13,-1
 552 52 l 1,14,-1
 552 0 l 1,15,-1
 56 0 l 1,0,-1
508 564 m 1,16,-1
 890 564 l 1,17,-1
 688 1109 l 1,18,-1
 508 564 l 1,16,-1
EndSplineSet
EndChar

StartChar: B
Encoding: 66 66 34
Width: 1340
VWidth: 2078
Flags: W
HStem: 0 52<122 314 522 869.406> 748 52<522 882.706> 1382 52<122 314 522 856.844>
VStem: 314 208<52 748 800 1382> 995 208<937.962 1261.38> 1032 234<212.53 573.787>
AnchorPoint: "TopCap" 588 1580 basechar 0
AnchorPoint: "Bottom" 636 0 basechar 0
AnchorPoint: "DotBelow" 636 -20 basechar 0
LayerCount: 3
Fore
SplineSet
122 0 m 1xf4
 122 52 l 1
 314 52 l 1
 314 1382 l 1
 122 1382 l 1
 122 1434 l 1
 750 1434 l 2
 1068 1434 1203 1296 1203 1088 c 0xf8
 1203 923 1070 812 901 780 c 1
 901 768 l 1
 1125 740 1266 599 1266 394 c 0
 1266 146 1070 0 758 0 c 2
 122 0 l 1xf4
522 52 m 1
 738 52 l 2
 928 52 1032 162 1032 404 c 0xf4
 1032 608 960 748 782 748 c 2
 522 748 l 1
 522 52 l 1
522 800 m 1
 782 800 l 2
 930 800 995 922 995 1076 c 0xf8
 995 1225 944 1382 734 1382 c 2
 522 1382 l 1
 522 800 l 1
EndSplineSet
Layer: 2
SplineSet
122 0 m 1,0,-1
 122 52 l 1,1,-1
 314 52 l 1,2,-1
 314 1382 l 1,3,-1
 122 1382 l 1,4,-1
 122 1434 l 1,5,-1
 750 1434 l 2,6,7
 980 1434 980 1434 1091.5 1342.5 c 128,-1,8
 1203 1251 1203 1251 1203 1088 c 0,9,10
 1203 969 1203 969 1118 887 c 128,-1,11
 1033 805 1033 805 901 780 c 1,12,-1
 901 768 l 1,13,14
 1070 747 1070 747 1168 647 c 128,-1,15
 1266 547 1266 547 1266 394 c 0,16,17
 1266 209 1266 209 1129.5 104.5 c 128,-1,18
 993 0 993 0 758 0 c 2,19,-1
 122 0 l 1,0,-1
522 52 m 1,20,-1
 738 52 l 2,21,22
 1032 52 1032 52 1032 404 c 0,23,24
 1032 565 1032 565 971 656.5 c 128,-1,25
 910 748 910 748 782 748 c 2,26,-1
 522 748 l 1,27,-1
 522 52 l 1,20,-1
522 800 m 1,28,-1
 782 800 l 2,29,30
 888 800 888 800 941.5 876.5 c 128,-1,31
 995 953 995 953 995 1076 c 0,32,33
 995 1137 995 1137 983 1187.5 c 128,-1,34
 971 1238 971 1238 943.5 1284 c 128,-1,35
 916 1330 916 1330 862.5 1356 c 128,-1,36
 809 1382 809 1382 734 1382 c 2,37,-1
 522 1382 l 1,38,-1
 522 800 l 1,28,-1
EndSplineSet
EndChar

StartChar: C
Encoding: 67 67 35
Width: 1486
Flags: W
HStem: -28 52<687.243 995.294> 1410 52<687.243 995.294>
VStem: 146 234<447.936 977.212> 1290 44<367.381 443 991 1066.62>
AnchorPoint: "DotBelow" 834 -20 basechar 0
AnchorPoint: "Bottom" 834 0 basechar 0
AnchorPoint: "TopCap" 834 1580 basechar 0
LayerCount: 3
Fore
SplineSet
146 712 m 0
 146 1178 486 1462 834 1462 c 0
 961 1462 1051 1438 1114 1415 c 0
 1154 1400 1175 1393 1208 1393 c 0
 1253 1393 1270 1423 1290 1462 c 9
 1334 1462 l 25
 1334 991 l 25
 1290 991 l 17
 1267 1085 1238 1161 1177 1245 c 0
 1125 1317 1036 1410 834 1410 c 0
 548 1410 380 1172 380 712 c 0
 380 252 548 24 834 24 c 0
 1036 24 1125 117 1177 189 c 0
 1238 273 1267 349 1290 443 c 9
 1334 443 l 25
 1334 -28 l 25
 1290 -28 l 17
 1270 11 1253 41 1208 41 c 0
 1175 41 1154 34 1114 19 c 0
 1051 -4 961 -28 834 -28 c 0
 486 -28 146 246 146 712 c 0
EndSplineSet
Layer: 2
SplineSet
146 712 m 0,0,1
 146 848 146 848 184 968.5 c 128,-1,2
 222 1089 222 1089 288 1178 c 128,-1,3
 354 1267 354 1267 441 1332 c 128,-1,4
 528 1397 528 1397 629 1429.5 c 128,-1,5
 730 1462 730 1462 834 1462 c 0,6,7
 985 1462 985 1462 1114 1415 c 0,8,9
 1173 1393 1173 1393 1208 1393 c 0,10,11
 1238 1393 1238 1393 1255 1409.5 c 128,-1,12
 1272 1426 1272 1426 1290 1462 c 1,13,-1
 1334 1462 l 1,14,-1
 1334 991 l 1,15,-1
 1290 991 l 1,16,17
 1254 1139 1254 1139 1177 1245 c 0,18,19
 1154 1277 1154 1277 1129 1302 c 128,-1,20
 1104 1327 1104 1327 1063.5 1353.5 c 128,-1,21
 1023 1380 1023 1380 964.5 1395 c 128,-1,22
 906 1410 906 1410 834 1410 c 0,23,24
 617 1410 617 1410 498.5 1231.5 c 128,-1,25
 380 1053 380 1053 380 712 c 0,26,27
 380 372 380 372 498 198 c 128,-1,28
 616 24 616 24 834 24 c 0,29,30
 906 24 906 24 964.5 39 c 128,-1,31
 1023 54 1023 54 1063.5 80.5 c 128,-1,32
 1104 107 1104 107 1129 132 c 128,-1,33
 1154 157 1154 157 1177 189 c 0,34,35
 1254 295 1254 295 1290 443 c 1,36,-1
 1334 443 l 1,37,-1
 1334 -28 l 1,38,-1
 1290 -28 l 1,39,40
 1278 -4 1278 -4 1269.5 8 c 128,-1,41
 1261 20 1261 20 1245 30.5 c 128,-1,42
 1229 41 1229 41 1208 41 c 0,43,44
 1173 41 1173 41 1114 19 c 0,45,46
 985 -28 985 -28 834 -28 c 0,47,48
 702 -28 702 -28 579.5 23 c 128,-1,49
 457 74 457 74 360 166.5 c 128,-1,50
 263 259 263 259 204.5 401 c 128,-1,51
 146 543 146 543 146 712 c 0,0,1
EndSplineSet
EndChar

StartChar: D
Encoding: 68 68 36
Width: 1568
VWidth: 2078
Flags: W
HStem: 0 52<122 314 522 938.863> 1382 52<122 314 522 938.863>
VStem: 314 208<52 1382> 1238 234<432.746 992.831>
AnchorPoint: "DotBelow" 652 -20 basechar 0
AnchorPoint: "Bottom" 652 0 basechar 0
AnchorPoint: "TopCap" 652 1580 basechar 0
LayerCount: 3
Fore
SplineSet
122 0 m 1
 122 52 l 1
 314 52 l 1
 314 1382 l 1
 122 1382 l 1
 122 1434 l 1
 841 1434 l 2
 1137 1434 1472 1192 1472 712 c 0
 1472 232 1137 0 841 0 c 2
 122 0 l 1
522 52 m 1
 795 52 l 2
 1139 52 1238 364 1238 712 c 0
 1238 1060 1139 1382 795 1382 c 2
 522 1382 l 1
 522 52 l 1
EndSplineSet
Layer: 2
SplineSet
122 0 m 1,0,-1
 122 52 l 1,1,-1
 314 52 l 1,2,-1
 314 1382 l 1,3,-1
 122 1382 l 1,4,-1
 122 1434 l 1,5,-1
 841 1434 l 2,6,7
 931 1434 931 1434 1020 1405.5 c 128,-1,8
 1109 1377 1109 1377 1191 1317.5 c 128,-1,9
 1273 1258 1273 1258 1335.5 1174 c 128,-1,10
 1398 1090 1398 1090 1435 970.5 c 128,-1,11
 1472 851 1472 851 1472 712 c 128,-1,12
 1472 573 1472 573 1435 454.5 c 128,-1,13
 1398 336 1398 336 1335.5 253.5 c 128,-1,14
 1273 171 1273 171 1191 113 c 128,-1,15
 1109 55 1109 55 1020 27.5 c 128,-1,16
 931 0 931 0 841 0 c 2,17,-1
 122 0 l 1,0,-1
522 52 m 1,18,-1
 795 52 l 2,19,20
 895 52 895 52 973 88 c 128,-1,21
 1051 124 1051 124 1100 184 c 128,-1,22
 1149 244 1149 244 1181 330 c 128,-1,23
 1213 416 1213 416 1225.5 509 c 128,-1,24
 1238 602 1238 602 1238 712 c 128,-1,25
 1238 822 1238 822 1225.5 916 c 128,-1,26
 1213 1010 1213 1010 1181 1097.5 c 128,-1,27
 1149 1185 1149 1185 1100 1246.5 c 128,-1,28
 1051 1308 1051 1308 973 1345 c 128,-1,29
 895 1382 895 1382 795 1382 c 2,30,-1
 522 1382 l 1,31,-1
 522 52 l 1,18,-1
EndSplineSet
EndChar

StartChar: E
Encoding: 69 69 37
Width: 1426
VWidth: 2078
Flags: W
HStem: 0 52<122 314 522 1024.78> 724 52<522 797.587> 1382 52<122 314 522 1012.12>
VStem: 314 208<52 724 776 1382> 932 48<434 548.864 953.136 1068> 1200 52<1058 1153.29> 1282 52<335.822 447>
AnchorPoint: "DotBelow" 734 -20 basechar 0
AnchorPoint: "Bottom" 734 0 basechar 0
AnchorPoint: "TopCap" 734 1580 basechar 0
LayerCount: 3
Fore
SplineSet
122 0 m 1
 122 52 l 1
 314 52 l 1
 314 1382 l 1
 122 1382 l 1
 122 1434 l 1
 1242 1434 l 1
 1252 1058 l 1
 1200 1058 l 1
 1188 1115 1172 1191 1110 1278 c 0
 1058 1351 977 1382 882 1382 c 2
 522 1382 l 1
 522 776 l 1
 708 776 l 2
 786 776 841 828 878 884 c 0
 911 934 932 1039 932 1068 c 1
 980 1068 l 1
 980 434 l 1
 932 434 l 1
 932 463 911 568 878 618 c 0
 841 674 786 724 708 724 c 2
 522 724 l 1
 522 52 l 1
 859 52 l 2
 987 52 1108 88 1180 187 c 0
 1250 283 1264 350 1282 447 c 1
 1334 447 l 1
 1328 0 l 1
 122 0 l 1
EndSplineSet
Layer: 2
SplineSet
122 0 m 1,0,-1
 122 52 l 1,1,-1
 314 52 l 1,2,-1
 314 1382 l 1,3,-1
 122 1382 l 1,4,-1
 122 1434 l 1,5,-1
 1242 1434 l 1,6,-1
 1252 1058 l 1,7,-1
 1200 1058 l 1,8,9
 1192 1098 1192 1098 1185 1123 c 128,-1,10
 1178 1148 1178 1148 1158.5 1193 c 128,-1,11
 1139 1238 1139 1238 1110 1278 c 0,12,13
 1036 1382 1036 1382 882 1382 c 2,14,-1
 522 1382 l 1,15,-1
 522 776 l 1,16,-1
 708 776 l 2,17,18
 807 776 807 776 878 884 c 0,19,20
 900 918 900 918 916 979 c 128,-1,21
 932 1040 932 1040 932 1068 c 1,22,-1
 980 1068 l 1,23,-1
 980 434 l 1,24,-1
 932 434 l 1,25,26
 932 462 932 462 916 523 c 128,-1,27
 900 584 900 584 878 618 c 0,28,29
 808 724 808 724 708 724 c 2,30,-1
 522 724 l 1,31,-1
 522 52 l 1,32,-1
 859 52 l 2,33,34
 1082 52 1082 52 1180 187 c 0,35,36
 1228 252 1228 252 1247 306 c 128,-1,37
 1266 360 1266 360 1282 447 c 1,38,-1
 1334 447 l 1,39,-1
 1328 0 l 1,40,-1
 122 0 l 1,0,-1
EndSplineSet
EndChar

StartChar: F
Encoding: 70 70 38
Width: 1320
VWidth: 2078
Flags: W
HStem: 0 52<122 314 522 714> 724 52<522 784.233> 1382 52<122 314 522 993.503>
VStem: 314 208<52 724 776 1382> 918 48<409 539.286 960.714 1091> 1212 52<978 1087.78>
AnchorPoint: "DotBelow" 418 -20 basechar 0
AnchorPoint: "Bottom" 418 0 basechar 0
AnchorPoint: "TopCap" 734 1580 basechar 0
LayerCount: 3
Fore
SplineSet
122 0 m 1
 122 52 l 1
 314 52 l 1
 314 1382 l 1
 122 1382 l 1
 122 1434 l 1
 1242 1434 l 1
 1264 978 l 1
 1212 978 l 1
 1201 1041 1173 1177 1103 1267 c 0
 1048 1338 977 1382 860 1382 c 2
 522 1382 l 1
 522 776 l 1
 694 776 l 2
 772 776 829 824 864 882 c 0
 897 937 918 1062 918 1091 c 1
 966 1091 l 1
 966 409 l 1
 918 409 l 1
 918 438 897 563 864 618 c 0
 829 676 772 724 694 724 c 2
 522 724 l 1
 522 52 l 1
 714 52 l 1
 714 0 l 1
 122 0 l 1
EndSplineSet
Layer: 2
SplineSet
122 0 m 1,0,-1
 122 52 l 1,1,-1
 314 52 l 1,2,-1
 314 1382 l 1,3,-1
 122 1382 l 1,4,-1
 122 1434 l 1,5,-1
 1242 1434 l 1,6,-1
 1264 978 l 1,7,-1
 1212 978 l 1,8,9
 1178 1170 1178 1170 1103 1267 c 0,10,11
 1014 1382 1014 1382 860 1382 c 2,12,-1
 522 1382 l 1,13,-1
 522 776 l 1,14,-1
 694 776 l 2,15,16
 800 776 800 776 864 882 c 0,17,18
 886 919 886 919 902 990 c 128,-1,19
 918 1061 918 1061 918 1091 c 1,20,-1
 966 1091 l 1,21,-1
 966 409 l 1,22,-1
 918 409 l 1,23,24
 918 439 918 439 902 510 c 128,-1,25
 886 581 886 581 864 618 c 0,26,27
 800 724 800 724 694 724 c 2,28,-1
 522 724 l 1,29,-1
 522 52 l 1,30,-1
 714 52 l 1,31,-1
 714 0 l 1,32,-1
 122 0 l 1,0,-1
EndSplineSet
EndChar

StartChar: G
Encoding: 71 71 39
Width: 1560
Flags: W
HStem: -28 52<687.243 965.688> 0 21G<1320.5 1373.04> 512 52<872 1154 1374 1588> 1410 52<687.243 995.294>
VStem: 146 234<447.936 977.212> 1154 220<184.268 512> 1290 44<991 1066.62>
AnchorPoint: "TopCap" 834 1580 basechar 0
AnchorPoint: "Bottom" 812 0 basechar 0
AnchorPoint: "DotBelow" 812 -20 basechar 0
LayerCount: 3
Fore
SplineSet
146 712 m 0xbc
 146 1178 486 1462 834 1462 c 0
 961 1462 1051 1438 1114 1415 c 0
 1154 1400 1175 1393 1208 1393 c 0
 1253 1393 1270 1423 1290 1462 c 9
 1334 1462 l 25
 1334 991 l 25
 1290 991 l 17
 1267 1085 1238 1161 1177 1245 c 0
 1125 1317 1036 1410 834 1410 c 0
 548 1410 380 1172 380 712 c 0
 380 252 548 24 834 24 c 0xba
 1044 24 1154 183 1154 366 c 26
 1154 512 l 25
 872 512 l 25
 872 564 l 25
 1588 564 l 25
 1588 512 l 25
 1374 512 l 25
 1373 0 l 25
 1329 0 l 17x7c
 1312 41 1292 69 1247 69 c 0
 1214 69 1169 54 1130 38 c 0
 1065 11 961 -28 834 -28 c 0
 486 -28 146 246 146 712 c 0xbc
EndSplineSet
Layer: 2
SplineSet
146 712 m 0,0,1
 146 848 146 848 184 968.5 c 128,-1,2
 222 1089 222 1089 288 1178 c 128,-1,3
 354 1267 354 1267 441 1332 c 128,-1,4
 528 1397 528 1397 629 1429.5 c 128,-1,5
 730 1462 730 1462 834 1462 c 0,6,7
 985 1462 985 1462 1114 1415 c 0,8,9
 1173 1393 1173 1393 1208 1393 c 0,10,11
 1238 1393 1238 1393 1255 1409.5 c 128,-1,12
 1272 1426 1272 1426 1290 1462 c 1,13,-1
 1334 1462 l 1,14,-1
 1334 991 l 1,15,-1
 1290 991 l 1,16,17
 1254 1139 1254 1139 1177 1245 c 0,18,19
 1154 1277 1154 1277 1129 1302 c 128,-1,20
 1104 1327 1104 1327 1063.5 1353.5 c 128,-1,21
 1023 1380 1023 1380 964.5 1395 c 128,-1,22
 906 1410 906 1410 834 1410 c 0,23,24
 617 1410 617 1410 498.5 1231.5 c 128,-1,25
 380 1053 380 1053 380 712 c 0,26,27
 380 372 380 372 498 198 c 128,-1,28
 616 24 616 24 834 24 c 0,29,30
 985 24 985 24 1069.5 122.5 c 128,-1,31
 1154 221 1154 221 1154 366 c 2,32,-1
 1154 512 l 1,33,-1
 872 512 l 1,34,-1
 872 564 l 1,35,-1
 1588 564 l 1,36,-1
 1588 512 l 1,37,-1
 1374 512 l 1,38,-1
 1373 0 l 1,39,-1
 1329 0 l 1,40,41
 1315 34 1315 34 1296.5 51.5 c 128,-1,42
 1278 69 1278 69 1247 69 c 0,43,44
 1206 69 1206 69 1130 38 c 0,45,46
 971 -28 971 -28 834 -28 c 0,47,48
 702 -28 702 -28 579.5 23 c 128,-1,49
 457 74 457 74 360 166.5 c 128,-1,50
 263 259 263 259 204.5 401 c 128,-1,51
 146 543 146 543 146 712 c 0,0,1
EndSplineSet
EndChar

StartChar: H
Encoding: 72 72 40
Width: 1580
VWidth: 2078
Flags: W
HStem: 0 52<122 314 522 714 906 1098 1306 1498> 726 52<522 1098> 1382 52<122 314 522 714 906 1098 1306 1498>
VStem: 314 208<52 726 778 1382> 1098 208<52 726 778 1382>
AnchorPoint: "DotBelow" 810 -20 basechar 0
AnchorPoint: "Bottom" 810 0 basechar 0
AnchorPoint: "TopCap" 810 1580 basechar 0
LayerCount: 3
Fore
SplineSet
122 0 m 1
 122 52 l 1
 314 52 l 1
 314 1382 l 1
 122 1382 l 1
 122 1434 l 1
 714 1434 l 1
 714 1382 l 1
 522 1382 l 1
 522 778 l 1
 1098 778 l 1
 1098 1382 l 1
 906 1382 l 1
 906 1434 l 1
 1498 1434 l 1
 1498 1382 l 1
 1306 1382 l 1
 1306 52 l 1
 1498 52 l 1
 1498 0 l 1
 906 0 l 1
 906 52 l 1
 1098 52 l 1
 1098 726 l 1
 522 726 l 1
 522 52 l 1
 714 52 l 1
 714 0 l 1
 122 0 l 1
EndSplineSet
Layer: 2
SplineSet
122 0 m 1,0,-1
 122 52 l 1,1,-1
 314 52 l 1,2,-1
 314 1382 l 1,3,-1
 122 1382 l 1,4,-1
 122 1434 l 1,5,-1
 714 1434 l 1,6,-1
 714 1382 l 1,7,-1
 522 1382 l 1,8,-1
 522 778 l 1,9,-1
 1098 778 l 1,10,-1
 1098 1382 l 1,11,-1
 906 1382 l 1,12,-1
 906 1434 l 1,13,-1
 1498 1434 l 1,14,-1
 1498 1382 l 1,15,-1
 1306 1382 l 1,16,-1
 1306 52 l 1,17,-1
 1498 52 l 1,18,-1
 1498 0 l 1,19,-1
 906 0 l 1,20,-1
 906 52 l 1,21,-1
 1098 52 l 1,22,-1
 1098 726 l 1,23,-1
 522 726 l 1,24,-1
 522 52 l 1,25,-1
 714 52 l 1,26,-1
 714 0 l 1,27,-1
 122 0 l 1,0,-1
EndSplineSet
EndChar

StartChar: I
Encoding: 73 73 41
Width: 796
VWidth: 2078
Flags: W
HStem: 0 52<122 314 522 714> 1382 52<122 314 522 714>
VStem: 314 208<52 1382>
AnchorPoint: "DotBelow" 418 -20 basechar 0
AnchorPoint: "Bottom" 418 0 basechar 0
AnchorPoint: "TopCap" 418 1580 basechar 0
LayerCount: 3
Fore
SplineSet
122 0 m 1
 122 52 l 1
 314 52 l 1
 314 1382 l 1
 122 1382 l 1
 122 1434 l 1
 714 1434 l 1
 714 1382 l 1
 522 1382 l 1
 522 52 l 1
 714 52 l 1
 714 0 l 1
 122 0 l 1
EndSplineSet
Layer: 2
SplineSet
122 0 m 1,0,-1
 122 52 l 1,1,-1
 314 52 l 1,2,-1
 314 1382 l 1,3,-1
 122 1382 l 1,4,-1
 122 1434 l 1,5,-1
 714 1434 l 1,6,-1
 714 1382 l 1,7,-1
 522 1382 l 1,8,-1
 522 52 l 1,9,-1
 714 52 l 1,10,-1
 714 0 l 1,11,-1
 122 0 l 1,0,-1
EndSplineSet
EndChar

StartChar: J
Encoding: 74 74 42
Width: 930
VWidth: 2078
Flags: W
HStem: -18 52<280.265 405.184> 1382 52<266 458 666 858>
VStem: 96 176<59.4528 242.959> 458 208<164.803 1382>
AnchorPoint: "DotBelow" 334 -20 basechar 0
AnchorPoint: "Bottom" 334 0 basechar 0
AnchorPoint: "TopCap" 550 1580 basechar 0
LayerCount: 3
Fore
SplineSet
96 192 m 0
 96 261 150 330 226 330 c 0
 292 330 328 289 328 233 c 0
 328 202 314 174 296 147 c 0
 285 131 272 112 272 83 c 0
 272 56 294 34 334 34 c 0
 444 34 458 138 458 228 c 2
 458 1382 l 1
 266 1382 l 1
 266 1434 l 1
 858 1434 l 1
 858 1382 l 1
 666 1382 l 1
 666 386 l 2
 666 192 584 -18 322 -18 c 0
 198 -18 96 55 96 192 c 0
EndSplineSet
Layer: 2
SplineSet
96 192 m 0,0,1
 96 246 96 246 133.5 288 c 128,-1,2
 171 330 171 330 226 330 c 0,3,4
 274 330 274 330 301 303 c 128,-1,5
 328 276 328 276 328 233 c 0,6,7
 328 195 328 195 296 147 c 0,8,9
 272 112 272 112 272 83 c 0,10,11
 272 62 272 62 288.5 48 c 128,-1,12
 305 34 305 34 334 34 c 0,13,14
 366 34 366 34 389 46 c 128,-1,15
 412 58 412 58 425 76 c 128,-1,16
 438 94 438 94 446 121.5 c 128,-1,17
 454 149 454 149 456 173 c 128,-1,18
 458 197 458 197 458 228 c 2,19,-1
 458 1382 l 1,20,-1
 266 1382 l 1,21,-1
 266 1434 l 1,22,-1
 858 1434 l 1,23,-1
 858 1382 l 1,24,-1
 666 1382 l 1,25,-1
 666 386 l 2,26,27
 666 325 666 325 655.5 269.5 c 128,-1,28
 645 214 645 214 620 160.5 c 128,-1,29
 595 107 595 107 556.5 68 c 128,-1,30
 518 29 518 29 458 5.5 c 128,-1,31
 398 -18 398 -18 322 -18 c 0,32,33
 225 -18 225 -18 160.5 37.5 c 128,-1,34
 96 93 96 93 96 192 c 0,0,1
EndSplineSet
EndChar

StartChar: K
Encoding: 75 75 43
Width: 1598
VWidth: 2078
Flags: W
HStem: 0 52<122 314 522 714 893 1133 1399 1574> 1382 52<122 314 522 714 863 1095 1165 1368>
VStem: 314 208<52 694 757 1382>
DStem2: 522 757 522 694 0.908429 0.418038<0 98.0541> 624 804 782 912 0.631703 0.775211<183.532 745.604> 782 912 635 746 0.582935 -0.812519<49.1867 903.376>
AnchorPoint: "DotBelow" 806 -20 basechar 0
AnchorPoint: "Bottom" 806 0 basechar 0
AnchorPoint: "TopCap" 746 1580 basechar 0
LayerCount: 3
Fore
SplineSet
122 0 m 1
 122 52 l 1
 314 52 l 1
 314 1382 l 1
 122 1382 l 1
 122 1434 l 1
 714 1434 l 1
 714 1382 l 1
 522 1382 l 1
 522 757 l 1
 624 804 l 1
 1095 1382 l 1
 863 1382 l 1
 863 1434 l 1
 1368 1434 l 1
 1368 1382 l 1
 1165 1382 l 1
 782 912 l 1
 1399 52 l 1
 1574 52 l 1
 1574 0 l 1
 893 0 l 1
 893 52 l 1
 1133 52 l 1
 635 746 l 1
 522 694 l 1
 522 52 l 1
 714 52 l 1
 714 0 l 1
 122 0 l 1
EndSplineSet
Layer: 2
SplineSet
122 0 m 1,0,-1
 122 52 l 1,1,-1
 314 52 l 1,2,-1
 314 1382 l 1,3,-1
 122 1382 l 1,4,-1
 122 1434 l 1,5,-1
 714 1434 l 1,6,-1
 714 1382 l 1,7,-1
 522 1382 l 1,8,-1
 522 757 l 1,9,-1
 624 804 l 1,10,-1
 1095 1382 l 1,11,-1
 863 1382 l 1,12,-1
 863 1434 l 1,13,-1
 1368 1434 l 1,14,-1
 1368 1382 l 1,15,-1
 1165 1382 l 1,16,-1
 782 912 l 1,17,-1
 1399 52 l 1,18,-1
 1574 52 l 1,19,-1
 1574 0 l 1,20,-1
 893 0 l 1,21,-1
 893 52 l 1,22,-1
 1133 52 l 1,23,-1
 635 746 l 1,24,-1
 522 694 l 1,25,-1
 522 52 l 1,26,-1
 714 52 l 1,27,-1
 714 0 l 1,28,-1
 122 0 l 1,0,-1
EndSplineSet
EndChar

StartChar: L
Encoding: 76 76 44
Width: 1376
VWidth: 2078
Flags: W
HStem: 0 52<122 314 522 981.955> 1382 52<122 314 522 714>
VStem: 314 208<52 1382> 1244 60<377.387 540>
AnchorPoint: "Bottom" 754 0 basechar 0
AnchorPoint: "DotBelow" 754 -20 basechar 0
AnchorPoint: "TopCap" 508 1580 basechar 0
LayerCount: 3
Fore
SplineSet
122 0 m 1
 122 52 l 1
 314 52 l 1
 314 1382 l 1
 122 1382 l 1
 122 1434 l 1
 714 1434 l 1
 714 1382 l 1
 522 1382 l 1
 522 52 l 1
 820 52 l 2
 948 52 1048 83 1124 190 c 0
 1206 306 1230 414 1244 540 c 1
 1304 540 l 1
 1282 0 l 1
 122 0 l 1
EndSplineSet
Layer: 2
SplineSet
122 0 m 1,0,-1
 122 52 l 1,1,-1
 314 52 l 1,2,-1
 314 1382 l 1,3,-1
 122 1382 l 1,4,-1
 122 1434 l 1,5,-1
 714 1434 l 1,6,-1
 714 1382 l 1,7,-1
 522 1382 l 1,8,-1
 522 52 l 1,9,-1
 820 52 l 2,10,11
 922 52 922 52 996 83 c 128,-1,12
 1070 114 1070 114 1124 190 c 0,13,14
 1181 271 1181 271 1206.5 352 c 128,-1,15
 1232 433 1232 433 1244 540 c 1,16,-1
 1304 540 l 1,17,-1
 1282 0 l 1,18,-1
 122 0 l 1,0,-1
EndSplineSet
EndChar

StartChar: M
Encoding: 77 77 45
Width: 1814
VWidth: 2078
Flags: W
HStem: -28 21G<808.671 881.662> 0 52<102 306 370 574 1140 1332 1540 1732> 1382 52<102 306 370 378 1540 1732>
VStem: 306 64<52 1382> 1332 208<52 1332>
DStem2: 585 1434 390 1315 0.301709 -0.9534<0 1153.73> 933 334 875 -28 0.316018 0.948753<0 1071.68>
AnchorPoint: "DotBelow" 876 -20 basechar 0
AnchorPoint: "Bottom" 876 0 basechar 0
AnchorPoint: "TopCap" 936 1580 basechar 0
LayerCount: 3
Fore
SplineSet
102 0 m 1
 102 52 l 1
 306 52 l 9
 306 1382 l 25
 102 1382 l 25
 102 1434 l 25
 585 1434 l 25
 933 334 l 25
 1298 1434 l 25
 1732 1434 l 1
 1732 1382 l 1
 1540 1382 l 1
 1540 52 l 1
 1732 52 l 1
 1732 0 l 1
 1140 0 l 1
 1140 52 l 1
 1332 52 l 1
 1332 1332 l 1
 1328 1332 l 1
 875 -28 l 9
 815 -28 l 25
 390 1315 l 18
 385 1330 378 1367 378 1382 c 1
 370 1382 l 9
 370 52 l 17
 574 52 l 1
 574 0 l 1
 102 0 l 1
EndSplineSet
Layer: 2
SplineSet
102 0 m 1,0,-1
 102 52 l 1,1,-1
 306 52 l 1,2,-1
 306 1382 l 1,3,-1
 102 1382 l 1,4,-1
 102 1434 l 1,5,-1
 585 1434 l 1,6,-1
 933 334 l 1,7,-1
 1298 1434 l 1,8,-1
 1732 1434 l 1,9,-1
 1732 1382 l 1,10,-1
 1540 1382 l 1,11,-1
 1540 52 l 1,12,-1
 1732 52 l 1,13,-1
 1732 0 l 1,14,-1
 1140 0 l 1,15,-1
 1140 52 l 1,16,-1
 1332 52 l 1,17,-1
 1332 1332 l 1,18,-1
 1328 1332 l 1,19,-1
 875 -28 l 1,20,-1
 815 -28 l 1,21,-1
 390 1315 l 2,22,23
 378 1351 378 1351 378 1382 c 1,24,-1
 370 1382 l 1,25,-1
 370 52 l 1,26,-1
 574 52 l 1,27,-1
 574 0 l 1,28,-1
 102 0 l 1,0,-1
EndSplineSet
EndChar

StartChar: N
Encoding: 78 78 46
Width: 1526
VWidth: 2078
Flags: W
HStem: -28 21G<1201.84 1274> 0 52<102 306 370 574> 1382 52<102 306 370 376 1006 1210 1274 1478>
VStem: 306 64<52 1382> 1210 64<431 1382>
DStem2: 600 1434 393 1322 0.519606 -0.854406<0 1173.93>
AnchorPoint: "DotBelow" 800 -20 basechar 0
AnchorPoint: "Bottom" 800 0 basechar 0
AnchorPoint: "TopCap" 820 1580 basechar 0
LayerCount: 3
Fore
SplineSet
102 0 m 1
 102 52 l 1
 306 52 l 9
 306 1382 l 25
 102 1382 l 25
 102 1434 l 25
 600 1434 l 25
 1210 431 l 25
 1210 1382 l 17
 1006 1382 l 1
 1006 1434 l 1
 1478 1434 l 1
 1478 1382 l 1
 1274 1382 l 9
 1274 -28 l 25
 1214 -28 l 25
 393 1322 l 18
 384 1337 376 1362 376 1382 c 1
 370 1382 l 9
 370 52 l 17
 574 52 l 1
 574 0 l 1
 102 0 l 1
EndSplineSet
Layer: 2
SplineSet
102 0 m 1,0,-1
 102 52 l 1,1,-1
 306 52 l 1,2,-1
 306 1382 l 1,3,-1
 102 1382 l 1,4,-1
 102 1434 l 1,5,-1
 600 1434 l 1,6,-1
 1210 431 l 1,7,-1
 1210 1382 l 1,8,-1
 1006 1382 l 1,9,-1
 1006 1434 l 1,10,-1
 1478 1434 l 1,11,-1
 1478 1382 l 1,12,-1
 1274 1382 l 1,13,-1
 1274 -28 l 1,14,-1
 1214 -28 l 1,15,-1
 393 1322 l 2,16,17
 376 1350 376 1350 376 1382 c 1,18,-1
 370 1382 l 1,19,-1
 370 52 l 1,20,-1
 574 52 l 1,21,-1
 574 0 l 1,22,-1
 102 0 l 1,0,-1
EndSplineSet
EndChar

StartChar: O
Encoding: 79 79 47
Width: 1618
VWidth: 2078
Flags: W
HStem: -28 52<687.243 980.757> 1410 52<687.243 980.757>
VStem: 146 234<447.936 977.212> 1288 234<447.936 977.212>
AnchorPoint: "DotBelow" 834 -20 basechar 0
AnchorPoint: "Bottom" 834 0 basechar 0
AnchorPoint: "TopCap" 834 1580 basechar 0
LayerCount: 3
Fore
SplineSet
146 712 m 0
 146 1178 486 1462 834 1462 c 0
 1182 1462 1522 1178 1522 712 c 0
 1522 246 1182 -28 834 -28 c 0
 486 -28 146 246 146 712 c 0
380 712 m 0
 380 252 548 24 834 24 c 0
 1120 24 1288 252 1288 712 c 0
 1288 1172 1120 1410 834 1410 c 0
 548 1410 380 1172 380 712 c 0
EndSplineSet
Layer: 2
SplineSet
146 712 m 0,0,1
 146 848 146 848 184 968.5 c 128,-1,2
 222 1089 222 1089 288 1178 c 128,-1,3
 354 1267 354 1267 441 1332 c 128,-1,4
 528 1397 528 1397 629 1429.5 c 128,-1,5
 730 1462 730 1462 834 1462 c 128,-1,6
 938 1462 938 1462 1039 1429.5 c 128,-1,7
 1140 1397 1140 1397 1227 1332 c 128,-1,8
 1314 1267 1314 1267 1380 1178 c 128,-1,9
 1446 1089 1446 1089 1484 968.5 c 128,-1,10
 1522 848 1522 848 1522 712 c 0,11,12
 1522 543 1522 543 1463.5 401 c 128,-1,13
 1405 259 1405 259 1308 166.5 c 128,-1,14
 1211 74 1211 74 1088.5 23 c 128,-1,15
 966 -28 966 -28 834 -28 c 128,-1,16
 702 -28 702 -28 579.5 23 c 128,-1,17
 457 74 457 74 360 166.5 c 128,-1,18
 263 259 263 259 204.5 401 c 128,-1,19
 146 543 146 543 146 712 c 0,0,1
380 712 m 0,20,21
 380 372 380 372 498 198 c 128,-1,22
 616 24 616 24 834 24 c 128,-1,23
 1052 24 1052 24 1170 198 c 128,-1,24
 1288 372 1288 372 1288 712 c 0,25,26
 1288 1053 1288 1053 1169.5 1231.5 c 128,-1,27
 1051 1410 1051 1410 834 1410 c 128,-1,28
 617 1410 617 1410 498.5 1231.5 c 128,-1,29
 380 1053 380 1053 380 712 c 0,20,21
EndSplineSet
EndChar

StartChar: P
Encoding: 80 80 48
Width: 1362
VWidth: 2078
Flags: W
HStem: 0 52<122 314 522 714> 588 52<522 945.125> 1382 52<122 314 522 870.515>
VStem: 314 208<52 588 640 1382> 1058 224<788.73 1155.97>
AnchorPoint: "TopCap" 618 1580 basechar 0
AnchorPoint: "Bottom" 418 0 basechar 0
AnchorPoint: "DotBelow" 418 -20 basechar 0
LayerCount: 3
Fore
SplineSet
122 0 m 1
 122 52 l 1
 314 52 l 1
 314 1382 l 1
 122 1382 l 1
 122 1434 l 1
 748 1434 l 2
 870 1434 1007 1395 1092 1330 c 0
 1217 1234 1282 1114 1282 966 c 0
 1282 732 1098 588 858 588 c 2
 522 588 l 1
 522 52 l 1
 714 52 l 1
 714 0 l 1
 122 0 l 1
522 640 m 1
 838 640 l 2
 1014 640 1058 783 1058 982 c 0
 1058 1111 1024 1278 876 1354 c 0
 839 1373 758 1382 710 1382 c 2
 522 1382 l 1
 522 640 l 1
EndSplineSet
Layer: 2
SplineSet
122 0 m 1,0,-1
 122 52 l 1,1,-1
 314 52 l 1,2,-1
 314 1382 l 1,3,-1
 122 1382 l 1,4,-1
 122 1434 l 1,5,-1
 748 1434 l 2,6,7
 841 1434 841 1434 935 1406 c 128,-1,8
 1029 1378 1029 1378 1092 1330 c 0,9,10
 1282 1184 1282 1184 1282 966 c 0,11,12
 1282 794 1282 794 1162 691 c 128,-1,13
 1042 588 1042 588 858 588 c 2,14,-1
 522 588 l 1,15,-1
 522 52 l 1,16,-1
 714 52 l 1,17,-1
 714 0 l 1,18,-1
 122 0 l 1,0,-1
522 640 m 1,19,-1
 838 640 l 2,20,21
 890 640 890 640 928.5 657 c 128,-1,22
 967 674 967 674 991.5 703 c 128,-1,23
 1016 732 1016 732 1031 776 c 128,-1,24
 1046 820 1046 820 1052 869.5 c 128,-1,25
 1058 919 1058 919 1058 982 c 0,26,27
 1058 1035 1058 1035 1050 1084.5 c 128,-1,28
 1042 1134 1042 1134 1023 1186.5 c 128,-1,29
 1004 1239 1004 1239 966.5 1283 c 128,-1,30
 929 1327 929 1327 876 1354 c 0,31,32
 821 1382 821 1382 710 1382 c 2,33,-1
 522 1382 l 1,34,-1
 522 640 l 1,19,-1
EndSplineSet
EndChar

StartChar: Q
Encoding: 81 81 49
Width: 1618
VWidth: 2078
Flags: W
HStem: -482 54<1343.61 1584.24> -28 52<737.802 980.757> 1410 52<687.243 980.757>
VStem: 146 234<442.866 977.212> 1288 234<447.936 977.212>
AnchorPoint: "DotBelow" 622 -20 basechar 0
AnchorPoint: "TopCap" 834 1580 basechar 0
LayerCount: 3
Fore
SplineSet
146 712 m 0
 146 1178 486 1462 834 1462 c 0
 1182 1462 1522 1178 1522 712 c 0
 1522 246 1182 -28 834 -28 c 0
 819 -28 804 -27 789 -24 c 1
 787 -29 l 1
 802 -38 826 -56 848 -78 c 0
 879 -109 934 -128 982 -134 c 0
 1088 -147 1161 -187 1224 -279 c 0
 1271 -348 1286 -367 1335 -398 c 0
 1361 -414 1410 -428 1458 -428 c 0
 1513 -428 1549 -417 1584 -402 c 1
 1602 -450 l 1
 1546 -472 1485 -482 1412 -482 c 0
 1258 -482 1076 -447 992 -390 c 0
 915 -338 863 -267 829 -187 c 0
 797 -112 755 -31 656 -4 c 0
 391 68 146 314 146 712 c 0
380 712 m 0
 380 252 548 24 834 24 c 0
 1120 24 1288 252 1288 712 c 0
 1288 1172 1120 1410 834 1410 c 0
 548 1410 380 1172 380 712 c 0
EndSplineSet
Layer: 2
SplineSet
146 712 m 0,0,1
 146 848 146 848 184 968.5 c 128,-1,2
 222 1089 222 1089 288 1178 c 128,-1,3
 354 1267 354 1267 441 1332 c 128,-1,4
 528 1397 528 1397 629 1429.5 c 128,-1,5
 730 1462 730 1462 834 1462 c 128,-1,6
 938 1462 938 1462 1039 1429.5 c 128,-1,7
 1140 1397 1140 1397 1227 1332 c 128,-1,8
 1314 1267 1314 1267 1380 1178 c 128,-1,9
 1446 1089 1446 1089 1484 968.5 c 128,-1,10
 1522 848 1522 848 1522 712 c 0,11,12
 1522 543 1522 543 1463.5 401 c 128,-1,13
 1405 259 1405 259 1308 166.5 c 128,-1,14
 1211 74 1211 74 1088.5 23 c 128,-1,15
 966 -28 966 -28 834 -28 c 0,16,17
 809 -28 809 -28 789 -24 c 1,18,-1
 787 -29 l 1,19,20
 817 -47 817 -47 848 -78 c 0,21,22
 893 -123 893 -123 982 -134 c 0,23,24
 1063 -144 1063 -144 1120.5 -177.5 c 128,-1,25
 1178 -211 1178 -211 1224 -279 c 0,26,27
 1261 -333 1261 -333 1280.5 -354.5 c 128,-1,28
 1300 -376 1300 -376 1335 -398 c 0,29,30
 1384 -428 1384 -428 1458 -428 c 0,31,32
 1523 -428 1523 -428 1584 -402 c 1,33,-1
 1602 -450 l 1,34,35
 1521 -482 1521 -482 1412 -482 c 0,36,37
 1292 -482 1292 -482 1172.5 -457 c 128,-1,38
 1053 -432 1053 -432 992 -390 c 0,39,40
 884 -317 884 -317 829 -187 c 0,41,42
 815 -153 815 -153 802 -129.5 c 128,-1,43
 789 -106 789 -106 768.5 -78.5 c 128,-1,44
 748 -51 748 -51 719.5 -32.5 c 128,-1,45
 691 -14 691 -14 656 -4 c 0,46,47
 554 24 554 24 464 83.5 c 128,-1,48
 374 143 374 143 302 231 c 128,-1,49
 230 319 230 319 188 443.5 c 128,-1,50
 146 568 146 568 146 712 c 0,0,1
380 712 m 0,51,52
 380 372 380 372 498 198 c 128,-1,53
 616 24 616 24 834 24 c 128,-1,54
 1052 24 1052 24 1170 198 c 128,-1,55
 1288 372 1288 372 1288 712 c 0,56,57
 1288 1053 1288 1053 1169.5 1231.5 c 128,-1,58
 1051 1410 1051 1410 834 1410 c 128,-1,59
 617 1410 617 1410 498.5 1231.5 c 128,-1,60
 380 1053 380 1053 380 712 c 0,51,52
EndSplineSet
EndChar

StartChar: R
Encoding: 82 82 50
Width: 1490
VWidth: 2078
Flags: W
HStem: -16 60<1246.11 1466.29> 0 52<122 314 522 714> 736 52<522 859.352> 1382 52<122 314 522 810.331>
VStem: 314 208<52 736 788 1382> 958 208<917.1 1248.84> 988 208<86.8323 600.865>
AnchorPoint: "DotBelow" 810 -20 basechar 0
AnchorPoint: "Bottom" 810 0 basechar 0
AnchorPoint: "TopCap" 656 1580 basechar 0
LayerCount: 3
Fore
SplineSet
122 0 m 1x7a
 122 52 l 1
 314 52 l 1
 314 1382 l 1
 122 1382 l 1
 122 1434 l 1
 726 1434 l 2
 1044 1434 1166 1255 1166 1083 c 0x7c
 1166 902 1048 804 882 766 c 1
 882 754 l 1
 1095 721 1196 592 1196 454 c 10
 1196 236 l 18
 1196 96 1238 44 1347 44 c 0
 1388 44 1431 54 1466 67 c 9
 1478 17 l 17
 1408 -6 1350 -16 1269 -16 c 0xba
 1152 -16 988 32 988 235 c 10
 988 469 l 18
 988 606 918 736 746 736 c 2
 522 736 l 1
 522 52 l 1
 714 52 l 1
 714 0 l 1
 122 0 l 1x7a
522 788 m 1
 778 788 l 2
 926 788 958 911 958 1065 c 0
 958 1214 894 1382 710 1382 c 2
 522 1382 l 1
 522 788 l 1
EndSplineSet
Layer: 2
SplineSet
122 0 m 1,0,-1
 122 52 l 1,1,-1
 314 52 l 1,2,-1
 314 1382 l 1,3,-1
 122 1382 l 1,4,-1
 122 1434 l 1,5,-1
 726 1434 l 2,6,7
 840 1434 840 1434 928 1404 c 128,-1,8
 1016 1374 1016 1374 1066 1322.5 c 128,-1,9
 1116 1271 1116 1271 1141 1210.5 c 128,-1,10
 1166 1150 1166 1150 1166 1083 c 0,11,12
 1166 953 1166 953 1090 874.5 c 128,-1,13
 1014 796 1014 796 882 766 c 1,14,-1
 882 754 l 1,15,16
 1035 730 1035 730 1115.5 647 c 128,-1,17
 1196 564 1196 564 1196 454 c 2,18,-1
 1196 236 l 2,19,20
 1196 131 1196 131 1230.5 87.5 c 128,-1,21
 1265 44 1265 44 1347 44 c 0,22,23
 1404 44 1404 44 1466 67 c 1,24,-1
 1478 17 l 1,25,26
 1378 -16 1378 -16 1269 -16 c 0,27,28
 1220 -16 1220 -16 1175 -4.5 c 128,-1,29
 1130 7 1130 7 1085.5 33 c 128,-1,30
 1041 59 1041 59 1014.5 111 c 128,-1,31
 988 163 988 163 988 235 c 2,32,-1
 988 469 l 2,33,34
 988 582 988 582 927.5 659 c 128,-1,35
 867 736 867 736 746 736 c 2,36,-1
 522 736 l 1,37,-1
 522 52 l 1,38,-1
 714 52 l 1,39,-1
 714 0 l 1,40,-1
 122 0 l 1,0,-1
522 788 m 1,41,-1
 778 788 l 2,42,43
 832 788 832 788 868.5 809 c 128,-1,44
 905 830 905 830 924 869.5 c 128,-1,45
 943 909 943 909 950.5 955.5 c 128,-1,46
 958 1002 958 1002 958 1065 c 0,47,48
 958 1124 958 1124 944.5 1178 c 128,-1,49
 931 1232 931 1232 903.5 1279 c 128,-1,50
 876 1326 876 1326 826 1354 c 128,-1,51
 776 1382 776 1382 710 1382 c 2,52,-1
 522 1382 l 1,53,-1
 522 788 l 1,41,-1
EndSplineSet
EndChar

StartChar: S
Encoding: 83 83 51
Width: 1272
Flags: W
HStem: -28 52<548.698 840.652> 1410 52<521.053 763.562>
VStem: 188 44<392.295 476> 232 136<1035.05 1250.82> 988 44<1091 1145.74 1417.45 1462> 1016 148<220.516 467.52>
AnchorPoint: "DotBelow" 688 -20 basechar 0
AnchorPoint: "Bottom" 688 0 basechar 0
AnchorPoint: "TopCap" 676 1580 basechar 0
LayerCount: 3
Fore
SplineSet
188 476 m 25xe4
 232 476 l 17
 249 385 293 279 345 208 c 0
 427 96 546 24 690 24 c 0
 896 24 1016 135 1016 312 c 0xe4
 1016 478 904 586 652 650 c 0
 434 705 232 799 232 1049 c 0
 232 1291 390 1462 664 1462 c 0
 735 1462 797 1444 828 1431 c 0
 867 1415 902 1401 929 1401 c 0
 967 1401 978 1433 984 1462 c 9
 1028 1462 l 25
 1032 1091 l 25
 988 1091 l 17
 963 1162 942 1206 893 1279 c 0
 844 1353 743 1410 651 1410 c 0
 475 1410 368 1292 368 1161 c 0xd8
 368 985 555 927 722 882 c 0
 1001 807 1164 692 1164 416 c 0
 1164 143 947 -28 687 -28 c 0
 596 -28 498 5 436 35 c 0
 402 51 374 62 357 62 c 0
 293 62 271 33 242 -28 c 9
 198 -28 l 25
 188 476 l 25xe4
EndSplineSet
Layer: 2
SplineSet
188 476 m 1,0,-1
 232 476 l 1,1,2
 261 323 261 323 345 208 c 0,3,4
 408 121 408 121 496.5 72.5 c 128,-1,5
 585 24 585 24 690 24 c 0,6,7
 843 24 843 24 929.5 101 c 128,-1,8
 1016 178 1016 178 1016 312 c 0,9,10
 1016 437 1016 437 928 519.5 c 128,-1,11
 840 602 840 602 652 650 c 0,12,13
 580 668 580 668 524 688.5 c 128,-1,14
 468 709 468 709 411 742 c 128,-1,15
 354 775 354 775 316.5 816 c 128,-1,16
 279 857 279 857 255.5 916.5 c 128,-1,17
 232 976 232 976 232 1049 c 0,18,19
 232 1234 232 1234 347 1348 c 128,-1,20
 462 1462 462 1462 664 1462 c 0,21,22
 754 1462 754 1462 828 1431 c 0,23,24
 901 1401 901 1401 929 1401 c 0,25,26
 971 1401 971 1401 984 1462 c 1,27,-1
 1028 1462 l 1,28,-1
 1032 1091 l 1,29,-1
 988 1091 l 1,30,31
 954 1189 954 1189 893 1279 c 0,32,33
 856 1335 856 1335 787.5 1372.5 c 128,-1,34
 719 1410 719 1410 651 1410 c 0,35,36
 524 1410 524 1410 446 1337 c 128,-1,37
 368 1264 368 1264 368 1161 c 0,38,39
 368 1110 368 1110 390 1068.5 c 128,-1,40
 412 1027 412 1027 443 1000 c 128,-1,41
 474 973 474 973 527 948.5 c 128,-1,42
 580 924 580 924 620 911.5 c 128,-1,43
 660 899 660 899 722 882 c 0,44,45
 832 852 832 852 909.5 815.5 c 128,-1,46
 987 779 987 779 1046.5 725 c 128,-1,47
 1106 671 1106 671 1135 594.5 c 128,-1,48
 1164 518 1164 518 1164 416 c 0,49,50
 1164 217 1164 217 1026 94.5 c 128,-1,51
 888 -28 888 -28 687 -28 c 0,52,53
 566 -28 566 -28 436 35 c 0,54,55
 379 62 379 62 357 62 c 0,56,57
 312 62 312 62 289 42 c 128,-1,58
 266 22 266 22 242 -28 c 1,59,-1
 198 -28 l 1,60,-1
 188 476 l 1,0,-1
EndSplineSet
EndChar

StartChar: T
Encoding: 84 84 52
Width: 1564
VWidth: 2078
Flags: W
HStem: 0 52<516 708 916 1108> 1382 52<453.42 708 916 1170.58>
VStem: 134 52<846 1008.93> 708 208<52 1382> 1438 52<846 1008.93>
CounterMasks: 1 38
AnchorPoint: "DotBelow" 812 -20 basechar 0
AnchorPoint: "Bottom" 812 0 basechar 0
AnchorPoint: "TopCap" 812 1580 basechar 0
LayerCount: 3
Fore
SplineSet
134 846 m 1
 158 1434 l 1
 1466 1434 l 1
 1490 846 l 1
 1438 846 l 1
 1426 978 1394 1122 1328 1220 c 0
 1278 1294 1192 1382 1044 1382 c 2
 916 1382 l 1
 916 52 l 1
 1108 52 l 1
 1108 0 l 1
 516 0 l 1
 516 52 l 1
 708 52 l 1
 708 1382 l 1
 580 1382 l 2
 432 1382 346 1294 296 1220 c 0
 230 1122 198 978 186 846 c 1
 134 846 l 1
EndSplineSet
Layer: 2
SplineSet
134 846 m 1,0,-1
 158 1434 l 1,1,-1
 1466 1434 l 1,2,-1
 1490 846 l 1,3,-1
 1438 846 l 1,4,5
 1416 1090 1416 1090 1328 1220 c 0,6,7
 1219 1382 1219 1382 1044 1382 c 2,8,-1
 916 1382 l 1,9,-1
 916 52 l 1,10,-1
 1108 52 l 1,11,-1
 1108 0 l 1,12,-1
 516 0 l 1,13,-1
 516 52 l 1,14,-1
 708 52 l 1,15,-1
 708 1382 l 1,16,-1
 580 1382 l 2,17,18
 405 1382 405 1382 296 1220 c 0,19,20
 208 1090 208 1090 186 846 c 1,21,-1
 134 846 l 1,0,-1
EndSplineSet
EndChar

StartChar: U
Encoding: 85 85 53
Width: 1540
VWidth: 2078
Flags: W
HStem: -28 52<647.024 972.254> 1382 52<88 280 488 680 1020 1224 1288 1492>
VStem: 280 208<207.936 1382> 1224 64<248.11 1382>
AnchorPoint: "DotBelow" 832 -20 basechar 0
AnchorPoint: "Bottom" 832 0 basechar 0
AnchorPoint: "TopCap" 832 1580 basechar 0
LayerCount: 3
Fore
SplineSet
88 1382 m 1
 88 1434 l 1
 680 1434 l 1
 680 1382 l 1
 488 1382 l 1
 488 324 l 2
 488 86 631 24 806 24 c 0
 1052 24 1224 153 1224 414 c 10
 1224 1382 l 17
 1020 1382 l 1
 1020 1434 l 1
 1492 1434 l 1
 1492 1382 l 1
 1288 1382 l 9
 1288 406 l 18
 1288 118 1095 -28 806 -28 c 0
 506 -28 280 84 280 436 c 2
 280 1382 l 1
 88 1382 l 1
EndSplineSet
Layer: 2
SplineSet
88 1382 m 1,0,-1
 88 1434 l 1,1,-1
 680 1434 l 1,2,-1
 680 1382 l 1,3,-1
 488 1382 l 1,4,-1
 488 324 l 2,5,6
 488 238 488 238 512.5 177.5 c 128,-1,7
 537 117 537 117 582.5 84.5 c 128,-1,8
 628 52 628 52 682 38 c 128,-1,9
 736 24 736 24 806 24 c 0,10,11
 997 24 997 24 1110.5 124 c 128,-1,12
 1224 224 1224 224 1224 414 c 2,13,-1
 1224 1382 l 1,14,-1
 1020 1382 l 1,15,-1
 1020 1434 l 1,16,-1
 1492 1434 l 1,17,-1
 1492 1382 l 1,18,-1
 1288 1382 l 1,19,-1
 1288 406 l 2,20,21
 1288 195 1288 195 1158.5 83.5 c 128,-1,22
 1029 -28 1029 -28 806 -28 c 0,23,24
 280 -28 280 -28 280 436 c 2,25,-1
 280 1382 l 1,26,-1
 88 1382 l 1,0,-1
EndSplineSet
EndChar

StartChar: V
Encoding: 86 86 54
Width: 1534
VWidth: 2078
Flags: W
HStem: -28 21G<766.567 840.553> 1382 52<68 250 490 740 1018 1228 1296 1514>
DStem2: 490 1382 250 1382 0.348353 -0.937363<0 1127.35> 882 325 834 -28 0.311371 0.950288<0 1112.19>
AnchorPoint: "DotBelow" 798 -20 basechar 0
AnchorPoint: "Bottom" 798 0 basechar 0
AnchorPoint: "TopCap" 824 1580 basechar 0
LayerCount: 3
Fore
SplineSet
68 1382 m 1
 68 1434 l 1
 740 1434 l 1
 740 1382 l 1
 490 1382 l 1
 882 325 l 1
 1228 1382 l 1
 1018 1382 l 1
 1018 1434 l 1
 1514 1434 l 1
 1514 1382 l 1
 1296 1382 l 1
 834 -28 l 1
 774 -28 l 1
 250 1382 l 1
 68 1382 l 1
EndSplineSet
Layer: 2
SplineSet
68 1382 m 1,0,-1
 68 1434 l 1,1,-1
 740 1434 l 1,2,-1
 740 1382 l 1,3,-1
 490 1382 l 1,4,-1
 882 325 l 1,5,-1
 1228 1382 l 1,6,-1
 1018 1382 l 1,7,-1
 1018 1434 l 1,8,-1
 1514 1434 l 1,9,-1
 1514 1382 l 1,10,-1
 1296 1382 l 1,11,-1
 834 -28 l 1,12,-1
 774 -28 l 1,13,-1
 250 1382 l 1,14,-1
 68 1382 l 1,0,-1
EndSplineSet
EndChar

StartChar: W
Encoding: 87 87 55
Width: 2160
VWidth: 2078
Flags: W
HStem: -28 21G<699.191 772.899 1519.32 1591.82> 1382 52<68 226 460 664 886 1055 1286 1482 1718 1937 1996 2140>
DStem2: 460 1382 226 1382 0.322264 -0.94665<0 1128> 823 314 766 -28 0.326095 0.945337<0 841.812> 1286 1382 1055 1382 0.316833 -0.948481<0 137.736 233.552 1098.58> 1634 340 1586 -28 0.279215 0.960229<0 1085.16>
AnchorPoint: "DotBelow" 1184 -20 basechar 0
AnchorPoint: "Bottom" 1184 0 basechar 0
AnchorPoint: "TopCap" 1184 1580 basechar 0
LayerCount: 3
Fore
SplineSet
68 1382 m 1
 68 1434 l 1
 664 1434 l 1
 664 1382 l 1
 460 1382 l 1
 823 314 l 1
 1122 1182 l 1
 1055 1382 l 1
 886 1382 l 1
 886 1434 l 1
 1482 1434 l 1
 1482 1382 l 1
 1286 1382 l 1
 1634 340 l 1
 1937 1382 l 1
 1718 1382 l 1
 1718 1434 l 1
 2140 1434 l 1
 2140 1382 l 1
 1996 1382 l 1
 1586 -28 l 1
 1526 -28 l 1
 1152 1091 l 1
 766 -28 l 1
 706 -28 l 1
 226 1382 l 1
 68 1382 l 1
EndSplineSet
Layer: 2
SplineSet
68 1382 m 1,0,-1
 68 1434 l 1,1,-1
 664 1434 l 1,2,-1
 664 1382 l 1,3,-1
 460 1382 l 1,4,-1
 823 314 l 1,5,-1
 1122 1182 l 1,6,-1
 1055 1382 l 1,7,-1
 886 1382 l 1,8,-1
 886 1434 l 1,9,-1
 1482 1434 l 1,10,-1
 1482 1382 l 1,11,-1
 1286 1382 l 1,12,-1
 1634 340 l 1,13,-1
 1937 1382 l 1,14,-1
 1718 1382 l 1,15,-1
 1718 1434 l 1,16,-1
 2140 1434 l 1,17,-1
 2140 1382 l 1,18,-1
 1996 1382 l 1,19,-1
 1586 -28 l 1,20,-1
 1526 -28 l 1,21,-1
 1152 1091 l 1,22,-1
 766 -28 l 1,23,-1
 706 -28 l 1,24,-1
 226 1382 l 1,25,-1
 68 1382 l 1,0,-1
EndSplineSet
EndChar

StartChar: X
Encoding: 88 88 56
Width: 1566
VWidth: 2078
Flags: W
HStem: 0 52<72 288 354 622 814 1126 1379 1534> 1382 52<72 283 536 788 928 1133 1199 1416>
DStem2: 536 1382 283 1382 0.535354 -0.844628<0 556.51 618.943 657.446 719.569 1439.21> 288 52 354 52 0.536259 0.844053<35.3931 756.11 1018.68 1575.73>
AnchorPoint: "DotBelow" 760 -20 basechar 0
AnchorPoint: "Bottom" 760 0 basechar 0
AnchorPoint: "TopCap" 828 1580 basechar 0
LayerCount: 3
Fore
SplineSet
72 0 m 1
 72 52 l 1
 288 52 l 1
 707 712 l 1
 283 1382 l 1
 72 1382 l 1
 72 1434 l 1
 788 1434 l 1
 788 1382 l 1
 536 1382 l 1
 834 912 l 1
 1133 1382 l 1
 928 1382 l 1
 928 1434 l 1
 1416 1434 l 1
 1416 1382 l 1
 1199 1382 l 1
 867 859 l 1
 1379 52 l 1
 1534 52 l 1
 1534 0 l 1
 814 0 l 1
 814 52 l 1
 1126 52 l 1
 741 660 l 1
 354 52 l 1
 622 52 l 1
 622 0 l 1
 72 0 l 1
EndSplineSet
Layer: 2
SplineSet
72 0 m 1,0,-1
 72 52 l 1,1,-1
 288 52 l 1,2,-1
 707 712 l 1,3,-1
 283 1382 l 1,4,-1
 72 1382 l 1,5,-1
 72 1434 l 1,6,-1
 788 1434 l 1,7,-1
 788 1382 l 1,8,-1
 536 1382 l 1,9,-1
 834 912 l 1,10,-1
 1133 1382 l 1,11,-1
 928 1382 l 1,12,-1
 928 1434 l 1,13,-1
 1416 1434 l 1,14,-1
 1416 1382 l 1,15,-1
 1199 1382 l 1,16,-1
 867 859 l 1,17,-1
 1379 52 l 1,18,-1
 1534 52 l 1,19,-1
 1534 0 l 1,20,-1
 814 0 l 1,21,-1
 814 52 l 1,22,-1
 1126 52 l 1,23,-1
 741 660 l 1,24,-1
 354 52 l 1,25,-1
 622 52 l 1,26,-1
 622 0 l 1,27,-1
 72 0 l 1,0,-1
EndSplineSet
EndChar

StartChar: Y
Encoding: 89 89 57
Width: 1462
VWidth: 2078
Flags: W
HStem: 0 52<496 688 896 1088> 1382 52<68 259 500 740 982 1194 1260 1442>
VStem: 688 208<52 592>
DStem2: 500 1382 259 1382 0.477215 -0.878787<0 757.145> 862 717 896 648 0.444282 0.895887<0 743.266>
AnchorPoint: "DotBelow" 792 -20 basechar 0
AnchorPoint: "Bottom" 792 0 basechar 0
AnchorPoint: "TopCap" 856 1580 basechar 0
LayerCount: 3
Fore
SplineSet
68 1382 m 1
 68 1434 l 1
 740 1434 l 1
 740 1382 l 1
 500 1382 l 9
 862 717 l 25
 1194 1382 l 1
 982 1382 l 1
 982 1434 l 1
 1442 1434 l 1
 1442 1382 l 1
 1260 1382 l 1
 896 648 l 1
 896 52 l 1
 1088 52 l 1
 1088 0 l 1
 496 0 l 1
 496 52 l 1
 688 52 l 1
 688 592 l 1
 259 1382 l 1
 68 1382 l 1
EndSplineSet
Layer: 2
SplineSet
68 1382 m 1,0,-1
 68 1434 l 1,1,-1
 740 1434 l 1,2,-1
 740 1382 l 1,3,-1
 500 1382 l 1,4,-1
 862 717 l 1,5,-1
 1194 1382 l 1,6,-1
 982 1382 l 1,7,-1
 982 1434 l 1,8,-1
 1442 1434 l 1,9,-1
 1442 1382 l 1,10,-1
 1260 1382 l 1,11,-1
 896 648 l 1,12,-1
 896 52 l 1,13,-1
 1088 52 l 1,14,-1
 1088 0 l 1,15,-1
 496 0 l 1,16,-1
 496 52 l 1,17,-1
 688 52 l 1,18,-1
 688 592 l 1,19,-1
 259 1382 l 1,20,-1
 68 1382 l 1,0,-1
EndSplineSet
EndChar

StartChar: Z
Encoding: 90 90 58
Width: 1400
VWidth: 2078
Flags: W
HStem: 0 52<431 956.086> 1382 52<471.819 967>
VStem: 160 52<921 1024.19> 1250 52<407.427 513>
DStem2: 174 48 431 52 0.509855 0.86026<134.474 1551.9>
AnchorPoint: "DotBelow" 746 -20 basechar 0
AnchorPoint: "Bottom" 746 0 basechar 0
AnchorPoint: "TopCap" 746 1580 basechar 0
LayerCount: 3
Fore
SplineSet
160 921 m 1
 202 1434 l 1
 1224 1434 l 1
 1224 1390 l 1
 431 52 l 1
 822 52 l 2
 944 52 1066 114 1128 208 c 0
 1204 322 1220 372 1250 513 c 1
 1302 513 l 1
 1280 0 l 1
 174 0 l 1
 174 48 l 1
 967 1382 l 1
 614 1382 l 2
 492 1382 403 1342 335 1242 c 0
 271 1148 243 1065 212 921 c 1
 160 921 l 1
EndSplineSet
Layer: 2
SplineSet
160 921 m 1,0,-1
 202 1434 l 1,1,-1
 1224 1434 l 1,2,-1
 1224 1390 l 1,3,-1
 431 52 l 1,4,-1
 822 52 l 2,5,6
 914 52 914 52 998 95 c 128,-1,7
 1082 138 1082 138 1128 208 c 0,8,9
 1183 290 1183 290 1204.5 346 c 128,-1,10
 1226 402 1226 402 1250 513 c 1,11,-1
 1302 513 l 1,12,-1
 1280 0 l 1,13,-1
 174 0 l 1,14,-1
 174 48 l 1,15,-1
 967 1382 l 1,16,-1
 614 1382 l 2,17,18
 521 1382 521 1382 453 1349 c 128,-1,19
 385 1316 385 1316 335 1242 c 0,20,21
 289 1174 289 1174 262.5 1104 c 128,-1,22
 236 1034 236 1034 212 921 c 1,23,-1
 160 921 l 1,0,-1
EndSplineSet
EndChar

StartChar: bracketleft
Encoding: 91 91 59
Width: 780
VWidth: 2078
Flags: W
HStem: -520 52<378 684> 1444 52<378 684>
VStem: 232 146<-468 1444>
LayerCount: 3
Fore
SplineSet
232 -520 m 1
 232 1496 l 1
 684 1496 l 1
 684 1444 l 1
 378 1444 l 25
 378 -468 l 25
 684 -468 l 1
 684 -520 l 1
 232 -520 l 1
EndSplineSet
Layer: 2
SplineSet
232 -520 m 1,0,-1
 232 1496 l 1,1,-1
 684 1496 l 1,2,-1
 684 1444 l 1,3,-1
 378 1444 l 1,4,-1
 378 -468 l 1,5,-1
 684 -468 l 1,6,-1
 684 -520 l 1,7,-1
 232 -520 l 1,0,-1
EndSplineSet
EndChar

StartChar: backslash
Encoding: 92 92 60
Width: 722
VWidth: 2078
Flags: W
HStem: -520 21G<535.292 642> 1414 20G<80 186.708>
VStem: 80 562
DStem2: 182 1434 80 1434 0.22915 -0.973391<0 1984.04>
LayerCount: 3
Fore
SplineSet
80 1434 m 1
 182 1434 l 1
 642 -520 l 1
 540 -520 l 1
 80 1434 l 1
EndSplineSet
Layer: 2
SplineSet
80 1434 m 1,0,-1
 182 1434 l 1,1,-1
 642 -520 l 1,2,-1
 540 -520 l 1,3,-1
 80 1434 l 1,0,-1
EndSplineSet
EndChar

StartChar: bracketright
Encoding: 93 93 61
Width: 780
VWidth: 2078
Flags: W
HStem: -520 52<96 402> 1444 52<96 402>
VStem: 402 146<-468 1444>
LayerCount: 3
Fore
SplineSet
96 -468 m 1
 402 -468 l 25
 402 1444 l 25
 96 1444 l 1
 96 1496 l 1
 548 1496 l 1
 548 -520 l 1
 96 -520 l 1
 96 -468 l 1
EndSplineSet
Layer: 2
SplineSet
96 -468 m 1,0,-1
 402 -468 l 1,1,-1
 402 1444 l 1,2,-1
 96 1444 l 1,3,-1
 96 1496 l 1,4,-1
 548 1496 l 1,5,-1
 548 -520 l 1,6,-1
 96 -520 l 1,7,-1
 96 -468 l 1,0,-1
EndSplineSet
EndChar

StartChar: asciicircum
Encoding: 94 94 62
Width: 1152
VWidth: 1882
Flags: W
HStem: 1442 20G<514.612 637.388>
DStem2: 42 736 102 736 0.556284 0.830992<33.377 785.83> 624 1462 521 1361 0.556284 -0.830992<26.633 778.53>
LayerCount: 3
Fore
SplineSet
42 736 m 1
 528 1462 l 1
 624 1462 l 1
 1110 736 l 1
 939 736 l 1
 521 1361 l 1
 102 736 l 1
 42 736 l 1
EndSplineSet
Layer: 2
SplineSet
42 736 m 1,0,-1
 528 1462 l 1,1,-1
 624 1462 l 1,2,-1
 1110 736 l 1,3,-1
 939 736 l 1,4,-1
 521 1361 l 1,5,-1
 102 736 l 1,6,-1
 42 736 l 1,0,-1
EndSplineSet
EndChar

StartChar: underscore
Encoding: 95 95 63
Width: 1024
VWidth: 2078
Flags: W
HStem: -352 96<0 1024>
LayerCount: 3
Fore
SplineSet
0 -256 m 1
 1024 -256 l 1
 1024 -352 l 1
 0 -352 l 1
 0 -256 l 1
EndSplineSet
Layer: 2
SplineSet
0 -256 m 1,0,-1
 1024 -256 l 1,1,-1
 1024 -352 l 1,2,-1
 0 -352 l 1,3,-1
 0 -256 l 1,0,-1
EndSplineSet
EndChar

StartChar: grave
Encoding: 96 96 64
AltUni2: 0002cb.ffffffff.0
Width: 880
VWidth: 2078
Flags: W
HStem: 1054 408
VStem: 260 278
LayerCount: 3
Fore
SplineSet
260 1396 m 0
 260 1431 285 1462 329 1462 c 0
 379 1462 411 1418 432 1361 c 2
 538 1072 l 1
 506 1054 l 1
 311 1288 l 2
 288 1316 260 1353 260 1396 c 0
EndSplineSet
Layer: 2
SplineSet
260 1396 m 0,0,1
 260 1424 260 1424 278.5 1443 c 128,-1,2
 297 1462 297 1462 329 1462 c 0,3,4
 395 1462 395 1462 432 1361 c 2,5,-1
 538 1072 l 1,6,-1
 506 1054 l 1,7,-1
 311 1288 l 2,8,9
 260 1350 260 1350 260 1396 c 0,0,1
EndSplineSet
EndChar

StartChar: a
Encoding: 97 97 65
Width: 990
VWidth: 2079
Flags: W
HStem: -16 72<326.376 486.975 785.255 935.977> 852 48<326.416 520.952>
VStem: 112 174<86.1219 347.465 617.419 764.714> 606 164<131.832 487 507.776 758.242>
AnchorPoint: "DotBelow" 496 -20 basechar 0
AnchorPoint: "Bottom" 496 0 basechar 0
AnchorPoint: "Grave" 444 980 basechar 0
AnchorPoint: "Acute" 444 980 basechar 0
AnchorPoint: "Dotaccent" 444 1020 basechar 0
AnchorPoint: "Top" 444 1000 basechar 0
LayerCount: 3
Fore
SplineSet
112 193 m 0
 112 362 214 427 363 446 c 0
 472 460 534 487 606 534 c 1
 606 640 l 2
 606 728 573 852 427 852 c 0
 352 852 275 816 275 759 c 0
 275 739 282 722 289 706 c 0
 301 680 304 667 304 644 c 0
 304 610 279 572 219 572 c 0
 153 572 124 611 124 666 c 0
 124 784 260 900 436 900 c 0
 682 900 770 750 770 562 c 2
 770 159 l 2
 770 72 818 42 870 42 c 0
 884 42 910 44 934 49 c 9
 942 -2 l 17
 918 -9 879 -16 857 -16 c 0
 744 -16 655 8 616 141 c 1
 608 141 l 1
 552 56 481 -16 346 -16 c 0
 208 -16 112 62 112 193 c 0
286 209 m 0
 286 96 345 56 428 56 c 0
 502 56 565 123 606 198 c 1
 606 487 l 1
 538 444 493 430 391 404 c 0
 313 384 286 307 286 209 c 0
EndSplineSet
Layer: 2
SplineSet
112 193 m 0,0,1
 112 313 112 313 177.5 372 c 128,-1,2
 243 431 243 431 363 446 c 0,3,4
 441 456 441 456 495 476.5 c 128,-1,5
 549 497 549 497 606 534 c 1,6,-1
 606 640 l 2,7,8
 606 677 606 677 598 711 c 128,-1,9
 590 745 590 745 571.5 778.5 c 128,-1,10
 553 812 553 812 516 832 c 128,-1,11
 479 852 479 852 427 852 c 0,12,13
 367 852 367 852 321 826 c 128,-1,14
 275 800 275 800 275 759 c 0,15,16
 275 738 275 738 289 706 c 0,17,18
 304 674 304 674 304 644 c 0,19,20
 304 615 304 615 282.5 593.5 c 128,-1,21
 261 572 261 572 219 572 c 0,22,23
 171 572 171 572 147.5 597.5 c 128,-1,24
 124 623 124 623 124 666 c 0,25,26
 124 757 124 757 215.5 828.5 c 128,-1,27
 307 900 307 900 436 900 c 0,28,29
 610 900 610 900 690 807.5 c 128,-1,30
 770 715 770 715 770 562 c 2,31,-1
 770 159 l 2,32,33
 770 98 770 98 798.5 70 c 128,-1,34
 827 42 827 42 870 42 c 0,35,36
 900 42 900 42 934 49 c 1,37,-1
 942 -2 l 1,38,39
 894 -16 894 -16 857 -16 c 0,40,41
 761 -16 761 -16 702 16.5 c 128,-1,42
 643 49 643 49 616 141 c 1,43,-1
 608 141 l 1,44,45
 559 67 559 67 499 25.5 c 128,-1,46
 439 -16 439 -16 346 -16 c 0,47,48
 241 -16 241 -16 176.5 40 c 128,-1,49
 112 96 112 96 112 193 c 0,0,1
286 209 m 0,50,51
 286 56 286 56 428 56 c 0,52,53
 480 56 480 56 526 96 c 128,-1,54
 572 136 572 136 606 198 c 1,55,-1
 606 487 l 1,56,57
 558 456 558 456 515.5 440.5 c 128,-1,58
 473 425 473 425 391 404 c 0,59,60
 286 377 286 377 286 209 c 0,50,51
EndSplineSet
EndChar

StartChar: b
Encoding: 98 98 66
Width: 1150
VWidth: 2079
Flags: W
HStem: -16 60<556.518 736.568> 0 48<78 220> 840 60<556.518 736.568> 1448 48<78 220>
VStem: 220 164<48 162 216.779 667.221 722 1448> 870 184<204.785 679.215>
AnchorPoint: "DotBelow" 632 -20 basechar 0
AnchorPoint: "Acute" 280 1480 basechar 0
AnchorPoint: "Top" 580 1528 basechar 0
AnchorPoint: "Dotaccent" 694 1000 basechar 0
AnchorPoint: "Bottom" 632 0 basechar 0
LayerCount: 3
Fore
SplineSet
78 0 m 1x7c
 78 48 l 1
 220 48 l 9x7c
 220 1448 l 17
 78 1448 l 25
 78 1496 l 17
 384 1496 l 1
 384 722 l 1
 398 720 l 1
 457 820 551 900 685 900 c 0
 748 900 809 885 866 850 c 0
 982 778 1054 637 1054 442 c 0
 1054 247 982 106 866 34 c 0
 809 -1 748 -16 685 -16 c 0xbc
 551 -16 457 64 398 164 c 1
 384 162 l 1
 384 0 l 1
 78 0 l 1x7c
384 442 m 0
 384 198 510 44 630 44 c 0xbc
 805 44 870 224 870 442 c 0
 870 660 805 840 630 840 c 0
 510 840 384 686 384 442 c 0
EndSplineSet
Layer: 2
SplineSet
78 0 m 1,0,-1
 78 48 l 1,1,-1
 220 48 l 1,2,-1
 220 1448 l 1,3,-1
 78 1448 l 1,4,-1
 78 1496 l 1,5,-1
 384 1496 l 1,6,-1
 384 722 l 1,7,-1
 398 720 l 1,8,9
 504 900 504 900 685 900 c 0,10,11
 785 900 785 900 866 850 c 0,12,13
 955 795 955 795 1004.5 690 c 128,-1,14
 1054 585 1054 585 1054 442 c 128,-1,15
 1054 299 1054 299 1004.5 194 c 128,-1,16
 955 89 955 89 866 34 c 0,17,18
 785 -16 785 -16 685 -16 c 0,19,20
 504 -16 504 -16 398 164 c 1,21,-1
 384 162 l 1,22,-1
 384 0 l 1,23,-1
 78 0 l 1,0,-1
384 442 m 128,-1,25
 384 267 384 267 459 155.5 c 128,-1,26
 534 44 534 44 630 44 c 0,27,28
 714 44 714 44 769.5 99.5 c 128,-1,29
 825 155 825 155 847.5 241 c 128,-1,30
 870 327 870 327 870 442 c 128,-1,31
 870 557 870 557 847.5 643 c 128,-1,32
 825 729 825 729 769.5 784.5 c 128,-1,33
 714 840 714 840 630 840 c 0,34,35
 534 840 534 840 459 728.5 c 128,-1,24
 384 617 384 617 384 442 c 128,-1,25
EndSplineSet
EndChar

StartChar: c
Encoding: 99 99 67
Width: 944
VWidth: 2079
Flags: W
HStem: -16 58<442.34 671.134> 852 48<432.192 622.258>
VStem: 96 184<219.752 633.52> 668 162<588.162 783.251> 796 52<193.217 330>
AnchorPoint: "DotBelow" 526 -20 basechar 0
AnchorPoint: "Bottom" 526 0 basechar 0
AnchorPoint: "Acute" 522 980 basechar 0
AnchorPoint: "Grave" 522 980 basechar 0
AnchorPoint: "Dotaccent" 522 1020 basechar 0
AnchorPoint: "Top" 522 1000 basechar 0
LayerCount: 3
Fore
SplineSet
96 432 m 0xe8
 96 684 284 900 534 900 c 0
 738 900 830 754 830 663 c 0
 830 604 798 542 724 542 c 0
 675 542 642 572 642 614 c 0
 642 635 646 657 655 682 c 0
 662 701 668 735 668 753 c 0xf0
 668 794 632 852 527 852 c 0
 365 852 280 688 280 460 c 0
 280 214 368 42 556 42 c 0
 741 42 794 212 796 330 c 1
 848 330 l 17
 846 186 790 -16 526 -16 c 0
 268 -16 96 166 96 432 c 0xe8
EndSplineSet
Layer: 2
SplineSet
96 432 m 0,0,1
 96 525 96 525 129.5 611 c 128,-1,2
 163 697 163 697 221 760.5 c 128,-1,3
 279 824 279 824 360.5 862 c 128,-1,4
 442 900 442 900 534 900 c 0,5,6
 606 900 606 900 665.5 876 c 128,-1,7
 725 852 725 852 759.5 815 c 128,-1,8
 794 778 794 778 812 738.5 c 128,-1,9
 830 699 830 699 830 663 c 0,10,11
 830 614 830 614 803 578 c 128,-1,12
 776 542 776 542 724 542 c 0,13,14
 687 542 687 542 664.5 562 c 128,-1,15
 642 582 642 582 642 614 c 128,-1,16
 642 646 642 646 655 682 c 0,17,18
 668 717 668 717 668 753 c 0,19,20
 668 790 668 790 633 821 c 128,-1,21
 598 852 598 852 527 852 c 0,22,23
 409 852 409 852 344.5 744 c 128,-1,24
 280 636 280 636 280 460 c 0,25,26
 280 268 280 268 350 155 c 128,-1,27
 420 42 420 42 556 42 c 0,28,29
 609 42 609 42 651.5 61 c 128,-1,30
 694 80 694 80 720 109.5 c 128,-1,31
 746 139 746 139 763.5 178 c 128,-1,32
 781 217 781 217 788 254.5 c 128,-1,33
 795 292 795 292 796 330 c 1,34,-1
 848 330 l 1,35,36
 847 282 847 282 839.5 238 c 128,-1,37
 832 194 832 194 809.5 146.5 c 128,-1,38
 787 99 787 99 753 64 c 128,-1,39
 719 29 719 29 660.5 6.5 c 128,-1,40
 602 -16 602 -16 526 -16 c 0,41,42
 333 -16 333 -16 214.5 108 c 128,-1,43
 96 232 96 232 96 432 c 0,0,1
EndSplineSet
EndChar

StartChar: d
Encoding: 100 100 68
Width: 1140
VWidth: 2079
Flags: W
HStem: -16 60<413.432 593.482> 0 48<930 1072> 840 60<413.432 593.482> 1448 48<560 766>
VStem: 96 184<204.785 679.215> 766 164<48 162 216.779 667.221 722 1448>
AnchorPoint: "Grave" 850 1480 basechar 0
AnchorPoint: "Acute" 850 1480 basechar 0
AnchorPoint: "Top" 664 1528 basechar 0
AnchorPoint: "Dotaccent" 442 1020 basechar 0
AnchorPoint: "DotBelow" 596 -20 basechar 0
AnchorPoint: "Bottom" 596 0 basechar 0
LayerCount: 3
Fore
SplineSet
96 442 m 0xbc
 96 637 168 778 284 850 c 0
 341 885 402 900 465 900 c 0
 599 900 693 820 752 720 c 1
 766 722 l 1
 766 1448 l 17
 560 1448 l 25
 560 1496 l 17
 930 1496 l 1
 930 48 l 17
 1072 48 l 1
 1072 0 l 1
 766 0 l 1x7c
 766 162 l 1
 752 164 l 1
 693 64 599 -16 465 -16 c 0
 402 -16 341 -1 284 34 c 0
 168 106 96 247 96 442 c 0xbc
280 442 m 0
 280 224 345 44 520 44 c 0xbc
 640 44 766 198 766 442 c 0
 766 686 640 840 520 840 c 0
 345 840 280 660 280 442 c 0
EndSplineSet
Layer: 2
SplineSet
96 442 m 128,-1,1
 96 585 96 585 145.5 690 c 128,-1,2
 195 795 195 795 284 850 c 0,3,4
 365 900 365 900 465 900 c 0,5,6
 646 900 646 900 752 720 c 1,7,-1
 766 722 l 1,8,-1
 766 1448 l 1,9,-1
 560 1448 l 1,10,-1
 560 1496 l 1,11,-1
 930 1496 l 1,12,-1
 930 48 l 1,13,-1
 1072 48 l 1,14,-1
 1072 0 l 1,15,-1
 766 0 l 1,16,-1
 766 162 l 1,17,-1
 752 164 l 1,18,19
 646 -16 646 -16 465 -16 c 0,20,21
 365 -16 365 -16 284 34 c 0,22,23
 195 89 195 89 145.5 194 c 128,-1,0
 96 299 96 299 96 442 c 128,-1,1
280 442 m 128,-1,25
 280 327 280 327 302.5 241 c 128,-1,26
 325 155 325 155 380.5 99.5 c 128,-1,27
 436 44 436 44 520 44 c 0,28,29
 616 44 616 44 691 155.5 c 128,-1,30
 766 267 766 267 766 442 c 128,-1,31
 766 617 766 617 691 728.5 c 128,-1,32
 616 840 616 840 520 840 c 0,33,34
 436 840 436 840 380.5 784.5 c 128,-1,35
 325 729 325 729 302.5 643 c 128,-1,24
 280 557 280 557 280 442 c 128,-1,25
EndSplineSet
EndChar

StartChar: e
Encoding: 101 101 69
Width: 962
VWidth: 2079
Flags: W
HStem: -16 64<429.065 676.397> 480 48<281 685.176> 852 48<418.496 599.954>
VStem: 96 184<228.062 480 528 645.036> 698 172<530.349 726.245> 812 52<205.536 298>
AnchorPoint: "DotBelow" 520 -20 basechar 0
AnchorPoint: "Bottom" 520 0 basechar 0
AnchorPoint: "Dotaccent" 502 1020 basechar 0
AnchorPoint: "Grave" 502 980 basechar 0
AnchorPoint: "Acute" 502 980 basechar 0
AnchorPoint: "Top" 502 1000 basechar 0
LayerCount: 3
Fore
SplineSet
96 430 m 0xf4
 96 692 262 900 529 900 c 0
 753 900 870 710 870 560 c 0xf8
 870 506 858 480 796 480 c 2
 280 480 l 1
 280 232 348 48 556 48 c 0
 706 48 794 158 812 298 c 1
 864 298 l 1
 855 154 756 -16 526 -16 c 0
 280 -16 96 164 96 430 c 0xf4
281 528 m 1
 631 528 l 2
 691 528 698 565 698 625 c 0
 698 734 648 852 508 852 c 0
 342 852 288 678 281 528 c 1
EndSplineSet
Layer: 2
SplineSet
96 430 m 0,0,1
 96 561 96 561 148 667.5 c 128,-1,2
 200 774 200 774 299.5 837 c 128,-1,3
 399 900 399 900 529 900 c 0,4,5
 609 900 609 900 676 868 c 128,-1,6
 743 836 743 836 784 786 c 128,-1,7
 825 736 825 736 847.5 677 c 128,-1,8
 870 618 870 618 870 560 c 0,9,10
 870 517 870 517 855 498.5 c 128,-1,11
 840 480 840 480 796 480 c 2,12,-1
 280 480 l 1,13,14
 280 48 280 48 556 48 c 0,15,16
 664 48 664 48 731 118 c 128,-1,17
 798 188 798 188 812 298 c 1,18,-1
 864 298 l 1,19,20
 860 241 860 241 839 187.5 c 128,-1,21
 818 134 818 134 778.5 87.5 c 128,-1,22
 739 41 739 41 673.5 12.5 c 128,-1,23
 608 -16 608 -16 526 -16 c 0,24,25
 340 -16 340 -16 218 108 c 128,-1,26
 96 232 96 232 96 430 c 0,0,1
281 528 m 1,27,-1
 631 528 l 2,28,29
 673 528 673 528 685.5 551 c 128,-1,30
 698 574 698 574 698 625 c 0,31,32
 698 718 698 718 651.5 785 c 128,-1,33
 605 852 605 852 508 852 c 0,34,35
 460 852 460 852 421.5 832.5 c 128,-1,36
 383 813 383 813 358 781.5 c 128,-1,37
 333 750 333 750 316 706.5 c 128,-1,38
 299 663 299 663 291 619.5 c 128,-1,39
 283 576 283 576 281 528 c 1,27,-1
EndSplineSet
EndChar

StartChar: f
Encoding: 102 102 70
Width: 698
VWidth: 2079
Flags: W
HStem: 0 48<88 230 394 536> 836 48<84 230 394 610> 1464 48<524.716 659.501>
VStem: 230 164<48 836 884 1218.58> 676 158<1247.95 1447.32>
AnchorPoint: "Grave" 548 1480 basechar 0
AnchorPoint: "Acute" 548 1480 basechar 0
AnchorPoint: "Dotaccent" 618 1520 basechar 0
AnchorPoint: "Top" 548 1528 basechar 0
AnchorPoint: "DotBelow" 314 -20 basechar 0
AnchorPoint: "Bottom" 314 0 basechar 0
LayerCount: 3
Fore
SplineSet
84 836 m 1
 84 884 l 1
 230 884 l 1
 230 954 l 2
 230 1075 255 1214 319 1316 c 0
 390 1430 506 1512 620 1512 c 0
 738 1512 834 1447 834 1332 c 0
 834 1246 787 1203 735 1203 c 0
 692 1203 659 1223 659 1274 c 0
 659 1290 663 1313 668 1334 c 0
 674 1357 676 1371 676 1387 c 0
 676 1424 666 1464 596 1464 c 0
 492 1464 394 1337 394 1056 c 2
 394 884 l 1
 610 884 l 1
 610 836 l 1
 394 836 l 1
 394 48 l 1
 536 48 l 1
 536 0 l 1
 88 0 l 1
 88 48 l 1
 230 48 l 1
 230 836 l 1
 84 836 l 1
EndSplineSet
Layer: 2
SplineSet
84 836 m 1,0,-1
 84 884 l 1,1,-1
 230 884 l 1,2,-1
 230 954 l 2,3,4
 230 1174 230 1174 319 1316 c 0,5,6
 373 1403 373 1403 454.5 1457.5 c 128,-1,7
 536 1512 536 1512 620 1512 c 0,8,9
 712 1512 712 1512 773 1464 c 128,-1,10
 834 1416 834 1416 834 1332 c 0,11,12
 834 1271 834 1271 805.5 1237 c 128,-1,13
 777 1203 777 1203 735 1203 c 0,14,15
 659 1203 659 1203 659 1274 c 0,16,17
 659 1296 659 1296 668 1334 c 0,18,19
 676 1365 676 1365 676 1387 c 0,20,21
 676 1422 676 1422 659.5 1443 c 128,-1,22
 643 1464 643 1464 596 1464 c 0,23,24
 511 1464 511 1464 452.5 1359.5 c 128,-1,25
 394 1255 394 1255 394 1056 c 2,26,-1
 394 884 l 1,27,-1
 610 884 l 1,28,-1
 610 836 l 1,29,-1
 394 836 l 1,30,-1
 394 48 l 1,31,-1
 536 48 l 1,32,-1
 536 0 l 1,33,-1
 88 0 l 1,34,-1
 88 48 l 1,35,-1
 230 48 l 1,36,-1
 230 836 l 1,37,-1
 84 836 l 1,0,-1
EndSplineSet
EndChar

StartChar: g
Encoding: 103 103 71
Width: 1160
Flags: W
HStem: -630 60<361.628 671.276> -124 164<243.193 342> -94 164<400.129 780.826> 268 44<468.568 632.808> 829 71<894.534 1028> 860 40<473.373 628.82>
VStem: 128 126<-496.448 -256.781> 144 80<-29 211.885> 194 164<430.428 738.204> 746 164<430.343 739.767> 836 128<-392.439 -151.2> 982 130<698.363 827.062>
AnchorPoint: "Grave" 560 980 basechar 0
AnchorPoint: "Acute" 560 980 basechar 0
AnchorPoint: "Dotaccent" 560 1020 basechar 0
AnchorPoint: "Top" 560 1000 basechar 0
LayerCount: 3
Fore
SplineSet
128 -376 m 0xb230
 128 -274 205 -201 342 -131 c 1
 342 -124 l 1
 298 -124 144 -112 144 54 c 0xd110
 144 184 213 290 319 340 c 1
 319 344 l 1
 243 401 194 484 194 584 c 0
 194 768 358 900 552 900 c 0xd490
 663 900 764 857 830 786 c 1
 878 854 914 900 986 900 c 0
 1070 900 1112 840 1112 774 c 0
 1112 734 1086 694 1046 694 c 0
 1001 694 988 726 982 768 c 0
 977 805 971 829 943 829 c 0
 915 829 884 813 851 761 c 1
 891 712 910 648 910 584 c 0
 910 400 746 268 552 268 c 0
 480 268 413 286 356 318 c 1
 269 282 224 223 224 140 c 0
 224 76 274 40 370 40 c 0xd950
 393 40 477 48 531 55 c 0
 591 63 653 70 692 70 c 0
 886 70 964 -48 964 -213 c 0
 964 -440 778 -630 506 -630 c 0
 325 -630 128 -554 128 -376 c 0xb230
254 -381 m 0xb230
 254 -524 387 -570 516 -570 c 0
 748 -570 836 -415 836 -274 c 0
 836 -189 792 -94 641 -94 c 0
 602 -94 462 -113 411 -122 c 1
 320 -182 254 -259 254 -381 c 0xb230
358 584 m 0x94d0
 358 408 440 312 552 312 c 0
 664 312 746 408 746 584 c 0
 746 760 664 860 552 860 c 0
 440 860 358 760 358 584 c 0x94d0
EndSplineSet
Layer: 2
SplineSet
128 -376 m 0,0,1
 128 -302 128 -302 181 -244 c 128,-1,2
 234 -186 234 -186 342 -131 c 1,3,-1
 342 -124 l 1,4,5
 324 -124 324 -124 304 -121.5 c 128,-1,6
 284 -119 284 -119 253.5 -108.5 c 128,-1,7
 223 -98 223 -98 200.5 -80.5 c 128,-1,8
 178 -63 178 -63 161 -28 c 128,-1,9
 144 7 144 7 144 54 c 0,10,11
 144 150 144 150 191 226 c 128,-1,12
 238 302 238 302 319 340 c 1,13,-1
 319 344 l 1,14,15
 194 438 194 438 194 584 c 0,16,17
 194 720 194 720 299 810 c 128,-1,18
 404 900 404 900 552 900 c 0,19,20
 635 900 635 900 707.5 870 c 128,-1,21
 780 840 780 840 830 786 c 1,22,23
 873 847 873 847 905 873.5 c 128,-1,24
 937 900 937 900 986 900 c 0,25,26
 1046 900 1046 900 1079 863.5 c 128,-1,27
 1112 827 1112 827 1112 774 c 0,28,29
 1112 742 1112 742 1093.5 718 c 128,-1,30
 1075 694 1075 694 1046 694 c 0,31,32
 1015 694 1015 694 1001 713 c 128,-1,33
 987 732 987 732 982 768 c 0,34,35
 978 800 978 800 970 814.5 c 128,-1,36
 962 829 962 829 943 829 c 0,37,38
 894 829 894 829 851 761 c 1,39,40
 910 689 910 689 910 584 c 0,41,42
 910 448 910 448 805 358 c 128,-1,43
 700 268 700 268 552 268 c 0,44,45
 445 268 445 268 356 318 c 1,46,47
 224 263 224 263 224 140 c 0,48,49
 224 92 224 92 261 66 c 128,-1,50
 298 40 298 40 370 40 c 0,51,52
 415 40 415 40 531 55 c 0,53,54
 644 70 644 70 692 70 c 0,55,56
 831 70 831 70 897.5 -6 c 128,-1,57
 964 -82 964 -82 964 -213 c 0,58,59
 964 -387 964 -387 835 -508.5 c 128,-1,60
 706 -630 706 -630 506 -630 c 0,61,62
 436 -630 436 -630 370.5 -615 c 128,-1,63
 305 -600 305 -600 249.5 -570.5 c 128,-1,64
 194 -541 194 -541 161 -490.5 c 128,-1,65
 128 -440 128 -440 128 -376 c 0,0,1
254 -381 m 0,66,67
 254 -449 254 -449 294 -493 c 128,-1,68
 334 -537 334 -537 390 -553.5 c 128,-1,69
 446 -570 446 -570 516 -570 c 0,70,71
 599 -570 599 -570 663 -544 c 128,-1,72
 727 -518 727 -518 763.5 -474.5 c 128,-1,73
 800 -431 800 -431 818 -380 c 128,-1,74
 836 -329 836 -329 836 -274 c 0,75,76
 836 -240 836 -240 826.5 -210 c 128,-1,77
 817 -180 817 -180 795.5 -153 c 128,-1,78
 774 -126 774 -126 734.5 -110 c 128,-1,79
 695 -94 695 -94 641 -94 c 0,80,81
 570 -94 570 -94 411 -122 c 1,82,83
 336 -171 336 -171 295 -233 c 128,-1,84
 254 -295 254 -295 254 -381 c 0,66,67
358 584 m 128,-1,86
 358 455 358 455 412 383.5 c 128,-1,87
 466 312 466 312 552 312 c 128,-1,88
 638 312 638 312 692 383.5 c 128,-1,89
 746 455 746 455 746 584 c 128,-1,90
 746 713 746 713 692 786.5 c 128,-1,91
 638 860 638 860 552 860 c 128,-1,92
 466 860 466 860 412 786.5 c 128,-1,85
 358 713 358 713 358 584 c 128,-1,86
EndSplineSet
EndChar

StartChar: h
Encoding: 104 104 72
Width: 1166
VWidth: 2079
Flags: W
HStem: 0 48<78 220 384 526 658 800 964 1106> 828 72<561.016 747.414> 1448 48<78 220>
VStem: 220 164<48 651.429 674 1448> 800 164<48 783.238>
AnchorPoint: "Acute" 304 1480 basechar 0
AnchorPoint: "Dotaccent" 686 1020 basechar 0
AnchorPoint: "DotBelow" 592 -20 basechar 0
AnchorPoint: "Bottom" 592 0 basechar 0
AnchorPoint: "Top" 566 1528 basechar 0
LayerCount: 3
Fore
SplineSet
78 0 m 1
 78 48 l 1
 220 48 l 1
 220 1448 l 1
 78 1448 l 1
 78 1496 l 1
 384 1496 l 1
 384 674 l 1
 396 671 l 1
 460 822 572 900 708 900 c 0
 798 900 858 868 901 815 c 0
 948 757 964 676 964 608 c 2
 964 48 l 1
 1106 48 l 1
 1106 0 l 1
 658 0 l 1
 658 48 l 1
 800 48 l 1
 800 644 l 2
 800 744 763 828 636 828 c 0
 544 828 478 753 440 677 c 0
 393 584 384 515 384 412 c 2
 384 48 l 1
 526 48 l 1
 526 0 l 1
 78 0 l 1
EndSplineSet
Layer: 2
SplineSet
78 0 m 1,0,-1
 78 48 l 1,1,-1
 220 48 l 1,2,-1
 220 1448 l 1,3,-1
 78 1448 l 1,4,-1
 78 1496 l 1,5,-1
 384 1496 l 1,6,-1
 384 674 l 1,7,-1
 396 671 l 1,8,9
 444 783 444 783 524.5 841.5 c 128,-1,10
 605 900 605 900 708 900 c 0,11,12
 832 900 832 900 901 815 c 0,13,14
 964 737 964 737 964 608 c 2,15,-1
 964 48 l 1,16,-1
 1106 48 l 1,17,-1
 1106 0 l 1,18,-1
 658 0 l 1,19,-1
 658 48 l 1,20,-1
 800 48 l 1,21,-1
 800 644 l 2,22,23
 800 828 800 828 636 828 c 0,24,25
 572 828 572 828 522 785 c 128,-1,26
 472 742 472 742 440 677 c 0,27,28
 407 611 407 611 395.5 553 c 128,-1,29
 384 495 384 495 384 412 c 2,30,-1
 384 48 l 1,31,-1
 526 48 l 1,32,-1
 526 0 l 1,33,-1
 78 0 l 1,0,-1
EndSplineSet
EndChar

StartChar: k
Encoding: 107 107 75
Width: 1156
VWidth: 2079
Flags: W
HStem: 0 48<78 220 384 526 608 773 978 1104> 448 48<384 468> 836 48<598 744 808 952> 1448 48<78 220>
VStem: 220 164<48 448 496 1448>
DStem2: 468 496 601 579 0.630249 0.776393<148.264 437.922> 601 579 494 448 0.578912 -0.81539<44.8726 532.545>
AnchorPoint: "Top" 564 1528 basechar 0
AnchorPoint: "Bottom" 548 0 basechar 0
AnchorPoint: "DotBelow" 548 -20 basechar 0
AnchorPoint: "Dotaccent" 644 1020 basechar 0
AnchorPoint: "Acute" 280 1480 basechar 0
LayerCount: 3
Fore
SplineSet
78 0 m 1
 78 48 l 1
 220 48 l 1
 220 1448 l 1
 78 1448 l 1
 78 1496 l 1
 384 1496 l 1
 384 496 l 1
 468 496 l 1
 744 836 l 1
 598 836 l 1
 598 884 l 1
 952 884 l 1
 952 836 l 1
 808 836 l 1
 601 579 l 1
 978 48 l 1
 1104 48 l 1
 1104 0 l 1
 608 0 l 1
 608 48 l 1
 773 48 l 1
 494 448 l 1
 384 448 l 1
 384 48 l 1
 526 48 l 1
 526 0 l 1
 78 0 l 1
EndSplineSet
Layer: 2
SplineSet
78 0 m 1,0,-1
 78 48 l 1,1,-1
 220 48 l 1,2,-1
 220 1448 l 1,3,-1
 78 1448 l 1,4,-1
 78 1496 l 1,5,-1
 384 1496 l 1,6,-1
 384 496 l 1,7,-1
 468 496 l 1,8,-1
 743.756 836 l 1,9,-1
 598 836 l 1,10,-1
 598 884 l 1,11,-1
 952 884 l 1,12,-1
 952 836 l 1,13,-1
 808.222 836 l 1,14,-1
 601 579 l 1,15,-1
 978.248 48 l 1,16,-1
 1104 48 l 1,17,-1
 1104 0 l 1,18,-1
 608 0 l 1,19,-1
 608 48 l 1,20,-1
 772.729 48 l 1,21,-1
 494 448 l 1,22,-1
 384 448 l 1,23,-1
 384 48 l 1,24,-1
 526 48 l 1,25,-1
 526 0 l 1,26,-1
 78 0 l 1,0,-1
EndSplineSet
EndChar

StartChar: l
Encoding: 108 108 76
Width: 594
VWidth: 2079
Flags: W
HStem: 0 48<78 220 384 526> 1448 48<78 220>
VStem: 220 164<48 1448>
AnchorPoint: "DotBelow" 304 -20 basechar 0
AnchorPoint: "Bottom" 304 0 basechar 0
AnchorPoint: "Dotaccent" 280 1520 basechar 0
AnchorPoint: "Grave" 280 1480 basechar 0
AnchorPoint: "Top" 280 1500 basechar 0
LayerCount: 3
Fore
SplineSet
78 0 m 9
 78 48 l 25
 220 48 l 9
 220 1448 l 17
 78 1448 l 1
 78 1496 l 1
 384 1496 l 9
 384 48 l 17
 526 48 l 25
 526 0 l 17
 78 0 l 9
EndSplineSet
Layer: 2
SplineSet
78 0 m 1,0,-1
 78 48 l 1,1,-1
 220 48 l 1,2,-1
 220 1448 l 1,3,-1
 78 1448 l 1,4,-1
 78 1496 l 1,5,-1
 384 1496 l 1,6,-1
 384 48 l 1,7,-1
 526 48 l 1,8,-1
 526 0 l 1,9,-1
 78 0 l 1,0,-1
EndSplineSet
EndChar

StartChar: m
Encoding: 109 109 77
Width: 1704
VWidth: 2079
Flags: W
HStem: 0 48<84 226 390 532 640 782 946 1088 1196 1338 1502 1644> 828 72<549.609 731.276 1094.68 1276.78> 836 48<84 226>
VStem: 226 164<48 668.009 683 836> 782 164<48 692.507> 1338 164<48 777.828>
CounterMasks: 1 1c
AnchorPoint: "Bottom" 864 0 basechar 0
AnchorPoint: "Top" 864 1000 basechar 0
AnchorPoint: "Acute" 864 980 basechar 0
AnchorPoint: "Grave" 864 980 basechar 0
AnchorPoint: "Dotaccent" 864 1020 basechar 0
AnchorPoint: "DotBelow" 864 -20 basechar 0
LayerCount: 3
Fore
SplineSet
84 0 m 1xdc
 84 48 l 1
 226 48 l 1
 226 836 l 1
 84 836 l 1
 84 884 l 1
 390 884 l 1xbc
 390 683 l 1
 400 680 l 1
 462 818 552 900 688 900 c 0
 852 900 911 767 930 675 c 1
 943 675 l 17
 1001 815 1095 900 1231 900 c 0
 1423 900 1502 742 1502 619 c 2
 1502 48 l 1
 1644 48 l 1
 1644 0 l 1
 1196 0 l 1
 1196 48 l 1
 1338 48 l 1
 1338 642 l 2
 1338 748 1283 828 1172 828 c 0
 1090 828 1025 764 989 689 c 0
 947 601 946 515 946 412 c 2
 946 48 l 1
 1088 48 l 1
 1088 0 l 1
 640 0 l 1
 640 48 l 1
 782 48 l 1
 782 626 l 2
 782 726 755 828 634 828 c 0
 542 828 484 770 446 694 c 0
 399 601 390 515 390 412 c 2
 390 48 l 1
 532 48 l 1
 532 0 l 1
 84 0 l 1xdc
EndSplineSet
Layer: 2
SplineSet
84 0 m 1,0,-1
 84 48 l 1,1,-1
 226 48 l 1,2,-1
 226 836 l 1,3,-1
 84 836 l 1,4,-1
 84 884 l 1,5,-1
 390 884 l 1,6,-1
 390 683 l 1,7,-1
 400 680 l 1,8,9
 499 900 499 900 688 900 c 0,10,11
 746 900 746 900 791.5 878.5 c 128,-1,12
 837 857 837 857 864 821 c 128,-1,13
 891 785 891 785 906.5 749.5 c 128,-1,14
 922 714 922 714 930 675 c 1,15,-1
 943 675 l 1,16,17
 1036 900 1036 900 1231 900 c 0,18,19
 1300 900 1300 900 1354 874 c 128,-1,20
 1408 848 1408 848 1439 805.5 c 128,-1,21
 1470 763 1470 763 1486 715 c 128,-1,22
 1502 667 1502 667 1502 619 c 2,23,-1
 1502 48 l 1,24,-1
 1644 48 l 1,25,-1
 1644 0 l 1,26,-1
 1196 0 l 1,27,-1
 1196 48 l 1,28,-1
 1338 48 l 1,29,-1
 1338 642 l 2,30,31
 1338 725 1338 725 1295 776.5 c 128,-1,32
 1252 828 1252 828 1172 828 c 0,33,34
 1114 828 1114 828 1066 789 c 128,-1,35
 1018 750 1018 750 989 689 c 0,36,37
 969 648 969 648 959 598.5 c 128,-1,38
 949 549 949 549 947.5 513 c 128,-1,39
 946 477 946 477 946 412 c 2,40,-1
 946 48 l 1,41,-1
 1088 48 l 1,42,-1
 1088 0 l 1,43,-1
 640 0 l 1,44,-1
 640 48 l 1,45,-1
 782 48 l 1,46,-1
 782 626 l 2,47,48
 782 828 782 828 634 828 c 0,49,50
 513 828 513 828 446 694 c 0,51,52
 413 629 413 629 401.5 563.5 c 128,-1,53
 390 498 390 498 390 412 c 2,54,-1
 390 48 l 1,55,-1
 532 48 l 1,56,-1
 532 0 l 1,57,-1
 84 0 l 1,0,-1
EndSplineSet
EndChar

StartChar: n
Encoding: 110 110 78
Width: 1172
VWidth: 2079
Flags: W
HStem: 0 48<84 226 390 532 664 806 970 1112> 828 72<567.016 753.414> 836 48<84 226>
VStem: 226 164<48 651.429 674 836> 806 164<48 783.238>
AnchorPoint: "Dotaccent" 576 1020 basechar 0
AnchorPoint: "Grave" 576 980 basechar 0
AnchorPoint: "Acute" 576 980 basechar 0
AnchorPoint: "Top" 576 1000 basechar 0
AnchorPoint: "DotBelow" 576 -20 basechar 0
AnchorPoint: "Bottom" 576 0 basechar 0
LayerCount: 3
Fore
SplineSet
84 0 m 1xd8
 84 48 l 1
 226 48 l 1
 226 836 l 1
 84 836 l 1
 84 884 l 1
 390 884 l 1xb8
 390 674 l 1
 402 671 l 1
 466 822 578 900 714 900 c 0
 804 900 864 868 907 815 c 0
 954 757 970 676 970 608 c 2
 970 48 l 1
 1112 48 l 1
 1112 0 l 1
 664 0 l 1
 664 48 l 1
 806 48 l 1
 806 644 l 2
 806 744 769 828 642 828 c 0
 550 828 484 753 446 677 c 0
 399 584 390 515 390 412 c 2
 390 48 l 1
 532 48 l 1
 532 0 l 1
 84 0 l 1xd8
EndSplineSet
Layer: 2
SplineSet
84 0 m 1,0,-1
 84 48 l 1,1,-1
 226 48 l 1,2,-1
 226 836 l 1,3,-1
 84 836 l 1,4,-1
 84 884 l 1,5,-1
 390 884 l 1,6,-1
 390 674 l 1,7,-1
 402 671 l 1,8,9
 450 783 450 783 530.5 841.5 c 128,-1,10
 611 900 611 900 714 900 c 0,11,12
 838 900 838 900 907 815 c 0,13,14
 970 737 970 737 970 608 c 2,15,-1
 970 48 l 1,16,-1
 1112 48 l 1,17,-1
 1112 0 l 1,18,-1
 664 0 l 1,19,-1
 664 48 l 1,20,-1
 806 48 l 1,21,-1
 806 644 l 2,22,23
 806 828 806 828 642 828 c 0,24,25
 578 828 578 828 528 785 c 128,-1,26
 478 742 478 742 446 677 c 0,27,28
 413 611 413 611 401.5 553 c 128,-1,29
 390 495 390 495 390 412 c 2,30,-1
 390 48 l 1,31,-1
 532 48 l 1,32,-1
 532 0 l 1,33,-1
 84 0 l 1,0,-1
EndSplineSet
EndChar

StartChar: o
Encoding: 111 111 79
Width: 1040
VWidth: 2079
Flags: W
HStem: -16 48<420.181 619.819> 852 48<420.181 619.819>
VStem: 96 184<237.581 646.637> 760 184<237.581 646.637>
AnchorPoint: "Top" 520 1000 basechar 0
AnchorPoint: "Acute" 520 980 basechar 0
AnchorPoint: "Grave" 520 980 basechar 0
AnchorPoint: "Dotaccent" 520 1020 basechar 0
AnchorPoint: "Bottom" 520 0 basechar 0
AnchorPoint: "DotBelow" 520 -20 basechar 0
LayerCount: 3
Fore
SplineSet
96 442 m 0
 96 709 284 900 520 900 c 0
 756 900 944 709 944 442 c 0
 944 176 756 -16 520 -16 c 0
 284 -16 96 176 96 442 c 0
280 442 m 0
 280 154 364 32 520 32 c 0
 676 32 760 154 760 442 c 0
 760 730 676 852 520 852 c 0
 364 852 280 730 280 442 c 0
EndSplineSet
Layer: 2
SplineSet
96 442 m 128,-1,1
 96 640 96 640 218.5 770 c 128,-1,2
 341 900 341 900 520 900 c 128,-1,3
 699 900 699 900 821.5 770 c 128,-1,4
 944 640 944 640 944 442 c 128,-1,5
 944 244 944 244 821.5 114 c 128,-1,6
 699 -16 699 -16 520 -16 c 128,-1,7
 341 -16 341 -16 218.5 114 c 128,-1,0
 96 244 96 244 96 442 c 128,-1,1
280 442 m 128,-1,9
 280 230 280 230 340.5 131 c 128,-1,10
 401 32 401 32 520 32 c 128,-1,11
 639 32 639 32 699.5 131 c 128,-1,12
 760 230 760 230 760 442 c 128,-1,13
 760 654 760 654 699.5 753 c 128,-1,14
 639 852 639 852 520 852 c 128,-1,15
 401 852 401 852 340.5 753 c 128,-1,8
 280 654 280 654 280 442 c 128,-1,9
EndSplineSet
EndChar

StartChar: p
Encoding: 112 112 80
Width: 1140
VWidth: 2079
Flags: W
HStem: -612 48<68 210 374 580> -16 60<546.518 726.568> 836 48<68 210> 840 60<546.518 726.568>
VStem: 210 164<-564 162 216.779 667.221 722 836> 860 184<204.785 679.215>
AnchorPoint: "DotBelow" 696 -20 basechar 0
AnchorPoint: "Dotaccent" 568 1020 basechar 0
AnchorPoint: "Grave" 568 980 basechar 0
AnchorPoint: "Acute" 568 980 basechar 0
AnchorPoint: "Top" 568 1000 basechar 0
LayerCount: 3
Fore
SplineSet
68 -564 m 1xdc
 210 -564 l 1
 210 836 l 1
 68 836 l 1
 68 884 l 1
 374 884 l 1xec
 374 722 l 1
 388 720 l 1
 447 820 541 900 675 900 c 0
 738 900 799 885 856 850 c 0
 972 778 1044 637 1044 442 c 0
 1044 247 972 106 856 34 c 0
 799 -1 738 -16 675 -16 c 0
 541 -16 447 64 388 164 c 1
 374 162 l 1
 374 -564 l 17
 580 -564 l 25
 580 -612 l 17
 68 -612 l 1
 68 -564 l 1xdc
374 442 m 0
 374 198 500 44 620 44 c 0
 795 44 860 224 860 442 c 0
 860 660 795 840 620 840 c 0xdc
 500 840 374 686 374 442 c 0
EndSplineSet
Layer: 2
SplineSet
68 -564 m 1,0,-1
 210 -564 l 1,1,-1
 210 836 l 1,2,-1
 68 836 l 1,3,-1
 68 884 l 1,4,-1
 374 884 l 1,5,-1
 374 722 l 1,6,-1
 388 720 l 1,7,8
 494 900 494 900 675 900 c 0,9,10
 775 900 775 900 856 850 c 0,11,12
 945 795 945 795 994.5 690 c 128,-1,13
 1044 585 1044 585 1044 442 c 128,-1,14
 1044 299 1044 299 994.5 194 c 128,-1,15
 945 89 945 89 856 34 c 0,16,17
 775 -16 775 -16 675 -16 c 0,18,19
 494 -16 494 -16 388 164 c 1,20,-1
 374 162 l 1,21,-1
 374 -564 l 1,22,-1
 580 -564 l 1,23,-1
 580 -612 l 1,24,-1
 68 -612 l 1,25,-1
 68 -564 l 1,0,-1
374 442 m 128,-1,27
 374 267 374 267 449 155.5 c 128,-1,28
 524 44 524 44 620 44 c 0,29,30
 704 44 704 44 759.5 99.5 c 128,-1,31
 815 155 815 155 837.5 241 c 128,-1,32
 860 327 860 327 860 442 c 128,-1,33
 860 557 860 557 837.5 643 c 128,-1,34
 815 729 815 729 759.5 784.5 c 128,-1,35
 704 840 704 840 620 840 c 0,36,37
 524 840 524 840 449 728.5 c 128,-1,26
 374 617 374 617 374 442 c 128,-1,27
EndSplineSet
EndChar

StartChar: q
Encoding: 113 113 81
Width: 1140
VWidth: 2079
Flags: W
HStem: -612 48<560 766 930 1072> -16 60<413.432 593.482> 836 48<930 1072> 840 60<413.432 594.942>
VStem: 96 184<204.785 679.215> 766 164<-564 162 216.779 667.221>
AnchorPoint: "Dotaccent" 554 1020 basechar 0
AnchorPoint: "Grave" 554 980 basechar 0
AnchorPoint: "Acute" 554 980 basechar 0
AnchorPoint: "Top" 554 1000 basechar 0
AnchorPoint: "DotBelow" 452 -20 basechar 0
LayerCount: 3
Fore
SplineSet
96 442 m 0xec
 96 637 168 778 284 850 c 0
 341 885 402 900 465 900 c 0xdc
 588 900 674 833 731 752 c 1
 740 752 l 1
 820 884 l 1
 1072 884 l 1
 1072 836 l 1
 930 836 l 1
 930 -564 l 1
 1072 -564 l 1
 1072 -612 l 1
 560 -612 l 9
 560 -564 l 25
 766 -564 l 9
 766 162 l 1
 752 164 l 1
 693 64 599 -16 465 -16 c 0
 402 -16 341 -1 284 34 c 0
 168 106 96 247 96 442 c 0xec
280 442 m 0
 280 224 345 44 520 44 c 0
 640 44 766 198 766 442 c 0
 766 686 640 840 520 840 c 0
 345 840 280 660 280 442 c 0
EndSplineSet
Layer: 2
SplineSet
96 442 m 128,-1,1
 96 585 96 585 145.5 690 c 128,-1,2
 195 795 195 795 284 850 c 0,3,4
 365 900 365 900 465 900 c 0,5,6
 627 900 627 900 731 752 c 1,7,-1
 740 752 l 1,8,-1
 820 884 l 1,9,-1
 1072 884 l 1,10,-1
 1072 836 l 1,11,-1
 930 836 l 1,12,-1
 930 -564 l 1,13,-1
 1072 -564 l 1,14,-1
 1072 -612 l 1,15,-1
 560 -612 l 1,16,-1
 560 -564 l 1,17,-1
 766 -564 l 1,18,-1
 766 162 l 1,19,-1
 752 164 l 1,20,21
 646 -16 646 -16 465 -16 c 0,22,23
 365 -16 365 -16 284 34 c 0,24,25
 195 89 195 89 145.5 194 c 128,-1,0
 96 299 96 299 96 442 c 128,-1,1
280 442 m 128,-1,27
 280 327 280 327 302.5 241 c 128,-1,28
 325 155 325 155 380.5 99.5 c 128,-1,29
 436 44 436 44 520 44 c 0,30,31
 616 44 616 44 691 155.5 c 128,-1,32
 766 267 766 267 766 442 c 128,-1,33
 766 617 766 617 691 728.5 c 128,-1,34
 616 840 616 840 520 840 c 0,35,36
 436 840 436 840 380.5 784.5 c 128,-1,37
 325 729 325 729 302.5 643 c 128,-1,26
 280 557 280 557 280 442 c 128,-1,27
EndSplineSet
EndChar

StartChar: r
Encoding: 114 114 82
Width: 884
VWidth: 2079
Flags: W
HStem: 0 48<84 226 390 532> 836 48<84 226> 844 56<546.662 666.686>
VStem: 226 164<48 668.02 674 836> 672 148<647.013 842.68>
AnchorPoint: "Top" 484 1000 basechar 0
AnchorPoint: "Dotaccent" 484 1020 basechar 0
AnchorPoint: "Grave" 484 980 basechar 0
AnchorPoint: "Acute" 484 980 basechar 0
AnchorPoint: "DotBelow" 316 -20 basechar 0
AnchorPoint: "Bottom" 316 0 basechar 0
LayerCount: 3
Fore
SplineSet
84 0 m 1xb8
 84 48 l 1
 226 48 l 1
 226 836 l 1
 84 836 l 1
 84 884 l 1
 390 884 l 1xd8
 390 674 l 1
 400 671 l 1
 467 832 537 900 662 900 c 0
 760 900 820 830 820 740 c 0
 820 675 786 608 718 608 c 0
 686 608 656 628 656 664 c 0
 656 687 660 709 665 731 c 0
 669 750 672 765 672 788 c 0
 672 820 658 844 611 844 c 0
 534 844 488 779 450 703 c 0
 403 610 390 515 390 412 c 2
 390 48 l 1
 532 48 l 1
 532 0 l 1
 84 0 l 1xb8
EndSplineSet
Layer: 2
SplineSet
84 0 m 1,0,-1
 84 48 l 1,1,-1
 226 48 l 1,2,-1
 226 836 l 1,3,-1
 84 836 l 1,4,-1
 84 884 l 1,5,-1
 390 884 l 1,6,-1
 390 674 l 1,7,-1
 400 671 l 1,8,9
 451 794 451 794 510.5 847 c 128,-1,10
 570 900 570 900 662 900 c 0,11,12
 734 900 734 900 777 854.5 c 128,-1,13
 820 809 820 809 820 740 c 0,14,15
 820 687 820 687 793 647.5 c 128,-1,16
 766 608 766 608 718 608 c 0,17,18
 693 608 693 608 674.5 623 c 128,-1,19
 656 638 656 638 656 664 c 0,20,21
 656 691 656 691 665 731 c 0,22,23
 672 764 672 764 672 788 c 0,24,25
 672 844 672 844 611 844 c 0,26,27
 558 844 558 844 520.5 807 c 128,-1,28
 483 770 483 770 450 703 c 0,29,30
 390 584 390 584 390 412 c 2,31,-1
 390 48 l 1,32,-1
 532 48 l 1,33,-1
 532 0 l 1,34,-1
 84 0 l 1,0,-1
EndSplineSet
EndChar

StartChar: s
Encoding: 115 115 83
Width: 840
Flags: W
HStem: -16 48<332.922 554.714> 852 48<281.719 489.094>
VStem: 126 36<280.895 332> 128 104<626.398 804.333> 636 120<99.826 287.147> 645 40<619 667.795>
AnchorPoint: "DotBelow" 428 -20 basechar 0
AnchorPoint: "Bottom" 428 0 basechar 0
AnchorPoint: "Dotaccent" 428 1020 basechar 0
AnchorPoint: "Top" 428 1000 basechar 0
AnchorPoint: "Grave" 428 980 basechar 0
AnchorPoint: "Acute" 428 980 basechar 0
LayerCount: 3
Fore
SplineSet
126 -16 m 25xe8
 126 332 l 25
 162 332 l 17
 214 174 278 32 424 32 c 0
 561 32 636 84 636 182 c 0xe8
 636 280 572 326 392 383 c 0
 237 432 128 492 128 664 c 0
 128 812 242 900 364 900 c 0
 437 900 482 883 519 869 c 0
 541 861 561 854 575 854 c 0
 609 854 634 872 650 900 c 9
 685 900 l 25
 685 619 l 25
 645 619 l 17
 624 675 603 717 573 758 c 0
 526 822 467 852 358 852 c 0
 277 852 232 791 232 730 c 0xd4
 232 623 312 590 462 538 c 0
 668 467 756 400 756 252 c 0
 756 104 663 -16 428 -16 c 0
 364 -16 322 -4 286 7 c 0
 258 15 233 21 203 21 c 0
 181 21 168 10 159 -16 c 9
 126 -16 l 25xe8
EndSplineSet
Layer: 2
SplineSet
126 -16 m 1,0,-1
 126 332 l 1,1,-1
 162 332 l 1,2,3
 184 264 184 264 205 217 c 128,-1,4
 226 170 226 170 257 124 c 128,-1,5
 288 78 288 78 330 55 c 128,-1,6
 372 32 372 32 424 32 c 0,7,8
 527 32 527 32 581.5 70.5 c 128,-1,9
 636 109 636 109 636 182 c 0,10,11
 636 254 636 254 583 296.5 c 128,-1,12
 530 339 530 339 392 383 c 0,13,14
 327 403 327 403 284 424 c 128,-1,15
 241 445 241 445 203 477 c 128,-1,16
 165 509 165 509 146.5 555 c 128,-1,17
 128 601 128 601 128 664 c 0,18,19
 128 771 128 771 198 835.5 c 128,-1,20
 268 900 268 900 364 900 c 0,21,22
 437 900 437 900 519 869 c 0,23,24
 560 854 560 854 575 854 c 0,25,26
 624 854 624 854 650 900 c 1,27,-1
 685 900 l 1,28,-1
 685 619 l 1,29,-1
 645 619 l 1,30,31
 614 702 614 702 573 758 c 0,32,33
 537 807 537 807 487.5 829.5 c 128,-1,34
 438 852 438 852 358 852 c 0,35,36
 300 852 300 852 266 815.5 c 128,-1,37
 232 779 232 779 232 730 c 0,38,39
 232 698 232 698 242.5 673.5 c 128,-1,40
 253 649 253 649 269 631.5 c 128,-1,41
 285 614 285 614 317.5 597 c 128,-1,42
 350 580 350 580 379.5 568 c 128,-1,43
 409 556 409 556 462 538 c 0,44,45
 623 483 623 483 689.5 421 c 128,-1,46
 756 359 756 359 756 252 c 0,47,48
 756 132 756 132 675.5 58 c 128,-1,49
 595 -16 595 -16 428 -16 c 0,50,51
 361 -16 361 -16 286 7 c 0,52,53
 237 21 237 21 203 21 c 0,54,55
 172 21 172 21 159 -16 c 1,56,-1
 126 -16 l 1,0,-1
EndSplineSet
EndChar

StartChar: t
Encoding: 116 116 84
Width: 770
VWidth: 2079
Flags: W
HStem: -16 84<409.986 577.511> 836 48<56 230 392 620>
VStem: 230 162<85.8189 836 884 1080> 347 68<1089.56 1150.87> 642 48<167.094 272>
AnchorPoint: "Grave" 312 1201 basechar 0
AnchorPoint: "Acute" 312 1201 basechar 0
AnchorPoint: "Dotaccent" 312 1241 basechar 0
AnchorPoint: "Top" 312 1221 basechar 0
AnchorPoint: "DotBelow" 413 -20 basechar 0
AnchorPoint: "Bottom" 413 0 basechar 0
LayerCount: 3
Fore
SplineSet
56 836 m 1xe8
 56 884 l 1
 230 884 l 1
 230 1080 l 1xe8
 312 1080 336 1089 347 1121 c 0
 360 1158 366 1164 415 1164 c 1xd8
 401 1076 392 989 392 884 c 1
 620 884 l 1
 620 836 l 1
 392 836 l 1
 392 190 l 2
 392 94 433 68 506 68 c 0
 596 68 636 180 642 272 c 9
 690 272 l 17
 679 130 611 -16 447 -16 c 0
 337 -16 230 37 230 196 c 2
 230 836 l 1
 56 836 l 1xe8
EndSplineSet
Layer: 2
SplineSet
56 836 m 1,0,-1
 56 884 l 1,1,-1
 230 884 l 1,2,-1
 230 1080 l 1,3,4
 291 1080 291 1080 315 1088.5 c 128,-1,5
 339 1097 339 1097 347 1121 c 0,6,7
 357 1149 357 1149 368 1156.5 c 128,-1,8
 379 1164 379 1164 415 1164 c 1,9,10
 392 1019 392 1019 392 884 c 1,11,-1
 620 884 l 1,12,-1
 620 836 l 1,13,-1
 392 836 l 1,14,-1
 392 190 l 2,15,16
 392 121 392 121 420 94.5 c 128,-1,17
 448 68 448 68 506 68 c 0,18,19
 568 68 568 68 602.5 130 c 128,-1,20
 637 192 637 192 642 272 c 1,21,-1
 690 272 l 1,22,23
 686 216 686 216 670 166.5 c 128,-1,24
 654 117 654 117 626 75 c 128,-1,25
 598 33 598 33 552 8.5 c 128,-1,26
 506 -16 506 -16 447 -16 c 0,27,28
 404 -16 404 -16 366.5 -5 c 128,-1,29
 329 6 329 6 297.5 30 c 128,-1,30
 266 54 266 54 248 96.5 c 128,-1,31
 230 139 230 139 230 196 c 2,32,-1
 230 836 l 1,33,-1
 56 836 l 1,0,-1
EndSplineSet
EndChar

StartChar: u
Encoding: 117 117 85
Width: 1156
VWidth: 2079
Flags: W
HStem: -16 72<418.586 604.984> 0 48<946 1088> 836 48<60 202 640 782>
VStem: 202 164<100.762 836> 782 164<48 210 232.571 836>
AnchorPoint: "DotBelow" 620 -20 basechar 0
AnchorPoint: "Bottom" 620 0 basechar 0
AnchorPoint: "Dotaccent" 538 1020 basechar 0
AnchorPoint: "Grave" 538 980 basechar 0
AnchorPoint: "Acute" 538 980 basechar 0
AnchorPoint: "Top" 538 1000 basechar 0
LayerCount: 3
Fore
SplineSet
60 836 m 1xb8
 60 884 l 1
 366 884 l 1
 366 240 l 2
 366 140 403 56 530 56 c 0xb8
 622 56 688 131 726 207 c 0
 773 300 782 369 782 472 c 2
 782 836 l 1
 640 836 l 1
 640 884 l 1
 946 884 l 1
 946 48 l 1
 1088 48 l 1
 1088 0 l 1
 782 0 l 1x78
 782 210 l 1
 770 213 l 1
 706 62 594 -16 458 -16 c 0
 368 -16 308 16 265 69 c 0
 218 127 202 208 202 276 c 2
 202 836 l 1
 60 836 l 1xb8
EndSplineSet
Layer: 2
SplineSet
60 836 m 1,0,-1
 60 884 l 1,1,-1
 366 884 l 1,2,-1
 366 240 l 2,3,4
 366 56 366 56 530 56 c 0,5,6
 594 56 594 56 644 99 c 128,-1,7
 694 142 694 142 726 207 c 0,8,9
 759 273 759 273 770.5 331 c 128,-1,10
 782 389 782 389 782 472 c 2,11,-1
 782 836 l 1,12,-1
 640 836 l 1,13,-1
 640 884 l 1,14,-1
 946 884 l 1,15,-1
 946 48 l 1,16,-1
 1088 48 l 1,17,-1
 1088 0 l 1,18,-1
 782 0 l 1,19,-1
 782 210 l 1,20,-1
 770 213 l 1,21,22
 722 101 722 101 641.5 42.5 c 128,-1,23
 561 -16 561 -16 458 -16 c 0,24,25
 334 -16 334 -16 265 69 c 0,26,27
 202 147 202 147 202 276 c 2,28,-1
 202 836 l 1,29,-1
 60 836 l 1,0,-1
EndSplineSet
EndChar

StartChar: v
Encoding: 118 118 86
Width: 980
Flags: W
HStem: -18 21G<481.225 540.237> 836 48<40 157 334 476 662 791 842 944>
DStem2: 334 836 157 836 0.362341 -0.932046<0 654.423> 571 226 533 -18 0.34024 0.940339<0 648.459>
AnchorPoint: "Dotaccent" 540 1020 basechar 0
AnchorPoint: "Grave" 540 980 basechar 0
AnchorPoint: "Acute" 540 980 basechar 0
AnchorPoint: "Top" 540 1000 basechar 0
AnchorPoint: "Bottom" 510 0 basechar 0
LayerCount: 3
Fore
SplineSet
40 836 m 1
 40 884 l 1
 476 884 l 1
 476 836 l 1
 334 836 l 1
 571 226 l 1
 791 836 l 1
 662 836 l 1
 662 884 l 1
 944 884 l 1
 944 836 l 1
 842 836 l 1
 533 -18 l 1
 489 -18 l 1
 157 836 l 1
 40 836 l 1
EndSplineSet
Layer: 2
SplineSet
40 836 m 1,0,-1
 40 884 l 1,1,-1
 476 884 l 1,2,-1
 476 836 l 1,3,-1
 334.265 836 l 1,4,-1
 571 226 l 1,5,-1
 791 836 l 1,6,-1
 662 836 l 1,7,-1
 662 884 l 1,8,-1
 944 884 l 1,9,-1
 944 836 l 1,10,-1
 842 836 l 1,11,-1
 533 -18 l 1,12,-1
 489 -18 l 1,13,-1
 157.109 836 l 1,14,-1
 40 836 l 1,0,-1
EndSplineSet
EndChar

StartChar: w
Encoding: 119 119 87
Width: 1498
Flags: W
HStem: -18 21G<455.834 514.853 1013.74 1071.91> 836 48<40 157 334 476 594 711 888 1030 1180 1309 1360 1462>
DStem2: 334 836 157 836 0.337314 -0.941392<0 648.121> 553 226 507 -18 0.365483 0.930818<0 486.608> 888 836 750 727 0.341213 -0.939986<0 55.3711 124.659 633.934> 1104 240 1065 -18 0.326502 0.945196<0 630.27>
AnchorPoint: "DotBelow" 764 -20 basechar 0
AnchorPoint: "Bottom" 764 0 basechar 0
AnchorPoint: "Dotaccent" 786 1020 basechar 0
AnchorPoint: "Grave" 786 980 basechar 0
AnchorPoint: "Acute" 786 980 basechar 0
AnchorPoint: "Top" 786 1000 basechar 0
LayerCount: 3
Fore
SplineSet
40 836 m 1
 40 884 l 1
 476 884 l 1
 476 836 l 1
 334 836 l 1
 553 226 l 1
 750 727 l 1
 711 836 l 1
 594 836 l 1
 594 884 l 1
 1030 884 l 1
 1030 836 l 1
 888 836 l 1
 1104 240 l 1
 1309 836 l 1
 1180 836 l 1
 1180 884 l 1
 1462 884 l 1
 1462 836 l 1
 1360 836 l 1
 1065 -18 l 1
 1021 -18 l 1
 774 662 l 1
 507 -18 l 1
 463 -18 l 1
 157 836 l 1
 40 836 l 1
EndSplineSet
Layer: 2
SplineSet
40 836 m 1,0,-1
 40 884 l 1,1,-1
 476 884 l 1,2,-1
 476 836 l 1,3,-1
 334 836 l 1,4,-1
 553 226 l 1,5,-1
 750 727 l 1,6,-1
 711 836 l 1,7,-1
 594 836 l 1,8,-1
 594 884 l 1,9,-1
 1030 884 l 1,10,-1
 1030 836 l 1,11,-1
 888 836 l 1,12,-1
 1104 240 l 1,13,-1
 1309 836 l 1,14,-1
 1180 836 l 1,15,-1
 1180 884 l 1,16,-1
 1462 884 l 1,17,-1
 1462 836 l 1,18,-1
 1360 836 l 1,19,-1
 1065 -18 l 1,20,-1
 1021 -18 l 1,21,-1
 774 662 l 1,22,-1
 507 -18 l 1,23,-1
 463 -18 l 1,24,-1
 157 836 l 1,25,-1
 40 836 l 1,0,-1
EndSplineSet
EndChar

StartChar: x
Encoding: 120 120 88
Width: 1100
Flags: W
HStem: 0 56<60 225 285 441 537 711 900 1064> 828 56<93 210 404 548 644 769 827 962>
DStem2: 404 828 210 828 0.544377 -0.838841<0 322.047 374.199 386.725 438.877 814.709> 225 56 285 56 0.576018 0.817437<34.5611 419.354 612.87 944.415>
AnchorPoint: "DotBelow" 532 -20 basechar 0
AnchorPoint: "Bottom" 532 0 basechar 0
AnchorPoint: "Dotaccent" 548 1020 basechar 0
AnchorPoint: "Grave" 548 980 basechar 0
AnchorPoint: "Acute" 548 980 basechar 0
AnchorPoint: "Top" 548 1000 basechar 0
LayerCount: 3
Fore
SplineSet
60 0 m 1
 60 56 l 1
 225 56 l 1
 478 415 l 1
 210 828 l 1
 93 828 l 1
 93 884 l 1
 548 884 l 1
 548 828 l 1
 404 828 l 1
 578 557 l 1
 769 828 l 1
 644 828 l 1
 644 884 l 1
 962 884 l 1
 962 828 l 1
 827 828 l 1
 606 513 l 1
 900 56 l 1
 1064 56 l 1
 1064 0 l 1
 537 0 l 1
 537 56 l 1
 711 56 l 1
 506 371 l 1
 285 56 l 1
 441 56 l 1
 441 0 l 1
 60 0 l 1
EndSplineSet
Layer: 2
SplineSet
60 0 m 1,0,-1
 60 56 l 1,1,-1
 225 56 l 1,2,-1
 477.999 415.035 l 1,3,-1
 210 828 l 1,4,-1
 93 828 l 1,5,-1
 93 884 l 1,6,-1
 548 884 l 1,7,-1
 548 828 l 1,8,-1
 404 828 l 1,9,-1
 578.077 557.058 l 1,10,-1
 769 828 l 1,11,-1
 644 828 l 1,12,-1
 644 884 l 1,13,-1
 962 884 l 1,14,-1
 962 828 l 1,15,-1
 827 828 l 1,16,-1
 606.127 513.399 l 1,17,-1
 900 56 l 1,18,-1
 1064 56 l 1,19,-1
 1064 0 l 1,20,-1
 537 0 l 1,21,-1
 537 56 l 1,22,-1
 711 56 l 1,23,-1
 506.373 371.314 l 1,24,-1
 285 56 l 1,25,-1
 441 56 l 1,26,-1
 441 0 l 1,27,-1
 60 0 l 1,0,-1
EndSplineSet
EndChar

StartChar: y
Encoding: 121 121 89
Width: 1024
Flags: W
HStem: -630 56<165.009 293.105> 836 48<40 158 336 498 679 802 859 988>
VStem: -6 166<-570.597 -397.39>
DStem2: 336 836 158 836 0.376987 -0.926219<0 669.256> 373 -405 427 -408 0.328049 0.944661<-154.862 408.27 657.165 1313.06>
AnchorPoint: "DotBelow" 748 -20 basechar 0
AnchorPoint: "Dotaccent" 558 1020 basechar 0
AnchorPoint: "Grave" 558 980 basechar 0
AnchorPoint: "Acute" 558 980 basechar 0
AnchorPoint: "Top" 558 1000 basechar 0
LayerCount: 3
Fore
SplineSet
-6 -465 m 0
 -6 -400 34 -354 100 -354 c 0
 150 -354 176 -389 176 -422 c 0
 176 -439 172 -457 168 -473 c 0
 164 -488 160 -509 160 -525 c 0
 160 -561 189 -574 228 -574 c 0
 303 -574 344 -491 373 -405 c 2
 506 -19 l 1
 158 836 l 1
 40 836 l 1
 40 884 l 1
 498 884 l 1
 498 836 l 1
 336 836 l 1
 588 216 l 1
 802 836 l 1
 679 836 l 1
 679 884 l 1
 988 884 l 1
 988 836 l 1
 859 836 l 1
 427 -408 l 2
 392 -509 344 -630 190 -630 c 0
 84 -630 -6 -576 -6 -465 c 0
EndSplineSet
Layer: 2
SplineSet
-6 -465 m 0,0,1
 -6 -416 -6 -416 22.5 -385 c 128,-1,2
 51 -354 51 -354 100 -354 c 0,3,4
 135 -354 135 -354 155.5 -374.5 c 128,-1,5
 176 -395 176 -395 176 -422 c 0,6,7
 176 -441 176 -441 168 -473 c 0,8,9
 160 -503 160 -503 160 -525 c 0,10,11
 160 -574 160 -574 228 -574 c 0,12,13
 279 -574 279 -574 313 -528 c 128,-1,14
 347 -482 347 -482 373 -405 c 2,15,-1
 506 -19 l 1,16,-1
 158 836 l 1,17,-1
 40 836 l 1,18,-1
 40 884 l 1,19,-1
 498 884 l 1,20,-1
 498 836 l 1,21,-1
 336 836 l 1,22,-1
 588 216 l 1,23,-1
 802 836 l 1,24,-1
 679 836 l 1,25,-1
 679 884 l 1,26,-1
 988 884 l 1,27,-1
 988 836 l 1,28,-1
 859 836 l 1,29,-1
 427 -408 l 2,30,31
 414 -446 414 -446 403.5 -470.5 c 128,-1,32
 393 -495 393 -495 373 -528.5 c 128,-1,33
 353 -562 353 -562 330 -581.5 c 128,-1,34
 307 -601 307 -601 270.5 -615.5 c 128,-1,35
 234 -630 234 -630 190 -630 c 0,36,37
 106 -630 106 -630 50 -587.5 c 128,-1,38
 -6 -545 -6 -545 -6 -465 c 0,0,1
EndSplineSet
EndChar

StartChar: z
Encoding: 122 122 90
Width: 934
Flags: W
HStem: 0 48<306 637.388> 836 48<256.149 579>
VStem: 84 44<580 662.875> 810 44<283.276 378>
DStem2: 120 56 306 48 0.50702 0.861934<87.4103 905.031>
AnchorPoint: "DotBelow" 482 -20 basechar 0
AnchorPoint: "Bottom" 482 0 basechar 0
AnchorPoint: "Dotaccent" 464 1020 basechar 0
AnchorPoint: "Grave" 464 980 basechar 0
AnchorPoint: "Acute" 464 980 basechar 0
AnchorPoint: "Top" 464 1000 basechar 0
LayerCount: 3
Fore
SplineSet
84 580 m 25
 106 884 l 25
 766 884 l 25
 766 830 l 25
 306 48 l 25
 531 48 l 18
 625 48 696 95 740 172 c 0
 780 241 796 298 810 378 c 9
 854 378 l 25
 840 0 l 25
 120 0 l 25
 120 56 l 25
 579 836 l 25
 368 836 l 26
 296 836 245 820 199 762 c 0
 160 713 139 632 128 580 c 9
 84 580 l 25
EndSplineSet
Layer: 2
SplineSet
84 580 m 1,0,-1
 106 884 l 1,1,-1
 766 884 l 1,2,-1
 766 830 l 1,3,-1
 306 48 l 1,4,-1
 531 48 l 2,5,6
 669 48 669 48 740 172 c 0,7,8
 789 256 789 256 810 378 c 1,9,-1
 854 378 l 1,10,-1
 840 0 l 1,11,-1
 120 0 l 1,12,-1
 120 56 l 1,13,-1
 579 836 l 1,14,-1
 368 836 l 2,15,16
 311 836 311 836 271.5 820 c 128,-1,17
 232 804 232 804 199 762 c 0,18,19
 155 706 155 706 128 580 c 1,20,-1
 84 580 l 1,0,-1
EndSplineSet
EndChar

StartChar: braceleft
Encoding: 123 123 91
Width: 780
VWidth: 1000
Flags: W
HStem: -536 54<583.421 684.655> 466 44<182 303.451> 1458 54<583.421 684.655>
VStem: 336 132<-386.17 -50.0754 1025.58 1361.76> 415 132<-9.92064 350.637 625.032 985.421>
CounterMasks: 1 e0
LayerCount: 3
Fore
SplineSet
182 466 m 9xe8
 182 510 l 17
 323 510 415 573 415 733 c 0xe8
 415 805 397 879 377 958 c 0
 356 1042 336 1129 336 1209 c 0
 336 1393 480 1488 682 1512 c 9
 692 1458 l 17
 562 1436 468 1399 468 1287 c 0xf0
 468 1207 485 1131 506 1051 c 0
 526 975 547 890 547 816 c 0
 547 612 442 518 320 490 c 1
 320 486 l 1
 442 458 547 363 547 159 c 0xe8
 547 85 526 0 506 -76 c 0
 485 -156 468 -232 468 -312 c 0
 468 -424 562 -460 692 -482 c 9
 682 -536 l 17
 480 -512 336 -417 336 -233 c 0xf0
 336 -153 356 -66 377 18 c 0
 397 97 415 171 415 243 c 0
 415 403 323 466 182 466 c 9xe8
EndSplineSet
Layer: 2
SplineSet
182 466 m 1,0,-1
 182 510 l 1,1,2
 415 510 415 510 415 733 c 0,3,4
 415 808 415 808 377 958 c 0,5,6
 336 1122 336 1122 336 1209 c 0,7,8
 336 1342 336 1342 429.5 1417.5 c 128,-1,9
 523 1493 523 1493 682 1512 c 1,10,-1
 692 1458 l 1,11,12
 582 1439 582 1439 525 1402 c 128,-1,13
 468 1365 468 1365 468 1287 c 0,14,15
 468 1196 468 1196 506 1051 c 0,16,17
 547 895 547 895 547 816 c 0,18,19
 547 673 547 673 484 593 c 128,-1,20
 421 513 421 513 320 490 c 1,21,-1
 320 486 l 1,22,23
 421 463 421 463 484 382.5 c 128,-1,24
 547 302 547 302 547 159 c 0,25,26
 547 80 547 80 506 -76 c 0,27,28
 468 -221 468 -221 468 -312 c 0,29,30
 468 -390 468 -390 524.5 -426.5 c 128,-1,31
 581 -463 581 -463 692 -482 c 1,32,-1
 682 -536 l 1,33,34
 523 -517 523 -517 429.5 -441.5 c 128,-1,35
 336 -366 336 -366 336 -233 c 0,36,37
 336 -146 336 -146 377 18 c 0,38,39
 415 168 415 168 415 243 c 0,40,41
 415 466 415 466 182 466 c 1,0,-1
EndSplineSet
EndChar

StartChar: bar
Encoding: 124 124 92
Width: 512
VWidth: 2078
Flags: W
HStem: -520 21G<202 310> 1414 20G<202 310>
VStem: 202 108<-520 1434>
LayerCount: 3
Fore
SplineSet
202 -520 m 1
 202 1434 l 1
 310 1434 l 1
 310 -520 l 1
 202 -520 l 1
EndSplineSet
Layer: 2
SplineSet
202 -520 m 1,0,-1
 202 1434 l 1,1,-1
 310 1434 l 1,2,-1
 310 -520 l 1,3,-1
 202 -520 l 1,0,-1
EndSplineSet
EndChar

StartChar: braceright
Encoding: 125 125 93
Width: 780
VWidth: 1000
Flags: W
HStem: -536 54<95.3452 196.579> 466 44<476.549 598> 1458 54<95.3452 196.579>
VStem: 233 132<-9.42064 350.968 625.363 985.921> 312 132<-385.757 -49.5754 1026.08 1362.17>
CounterMasks: 1 e0
LayerCount: 3
Fore
SplineSet
88 -482 m 17xe8
 218 -460 312 -423 312 -311 c 0xe8
 312 -231 295 -155 274 -75 c 0
 254 1 233 86 233 160 c 0
 233 364 338 458 460 486 c 1
 460 490 l 1
 338 518 233 613 233 817 c 0xf0
 233 891 254 976 274 1052 c 0
 295 1132 312 1208 312 1288 c 0
 312 1400 218 1436 88 1458 c 9
 98 1512 l 17
 300 1488 444 1393 444 1209 c 0xe8
 444 1129 424 1042 403 958 c 0
 383 879 365 805 365 733 c 0
 365 573 457 510 598 510 c 9
 598 466 l 17
 457 466 365 403 365 243 c 0xf0
 365 171 383 97 403 18 c 0
 424 -66 444 -153 444 -233 c 0
 444 -417 300 -512 98 -536 c 9
 88 -482 l 17xe8
EndSplineSet
Layer: 2
SplineSet
88 -482 m 1,0,1
 198 -463 198 -463 255 -426 c 128,-1,2
 312 -389 312 -389 312 -311 c 0,3,4
 312 -220 312 -220 274 -75 c 0,5,6
 233 81 233 81 233 160 c 0,7,8
 233 303 233 303 296 383 c 128,-1,9
 359 463 359 463 460 486 c 1,10,-1
 460 490 l 1,11,12
 359 513 359 513 296 593.5 c 128,-1,13
 233 674 233 674 233 817 c 0,14,15
 233 896 233 896 274 1052 c 0,16,17
 312 1197 312 1197 312 1288 c 0,18,19
 312 1366 312 1366 255.5 1402.5 c 128,-1,20
 199 1439 199 1439 88 1458 c 1,21,-1
 98 1512 l 1,22,23
 257 1493 257 1493 350.5 1417.5 c 128,-1,24
 444 1342 444 1342 444 1209 c 0,25,26
 444 1122 444 1122 403 958 c 0,27,28
 365 808 365 808 365 733 c 0,29,30
 365 510 365 510 598 510 c 1,31,-1
 598 466 l 1,32,33
 365 466 365 466 365 243 c 0,34,35
 365 168 365 168 403 18 c 0,36,37
 444 -146 444 -146 444 -233 c 0,38,39
 444 -366 444 -366 350.5 -441.5 c 128,-1,40
 257 -517 257 -517 98 -536 c 1,41,-1
 88 -482 l 1,0,1
EndSplineSet
EndChar

StartChar: asciitilde
Encoding: 126 126 94
Width: 1152
VWidth: 2078
Flags: W
HStem: 398 108<654.647 885.75> 522 108<266.25 497.85>
LayerCount: 3
Fore
SplineSet
112 422 m 17
 182 534 276 630 420 630 c 0
 505 630 569 596 628 564 c 0
 684 534 737 506 802 506 c 0
 904 506 952 562 1004 634 c 9
 1040 606 l 17
 970 494 876 398 732 398 c 0
 648 398 584 431 524 464 c 0
 469 494 415 522 350 522 c 0
 248 522 200 466 148 394 c 9
 112 422 l 17
EndSplineSet
Layer: 2
SplineSet
112 422 m 1,0,1
 242 630 242 630 420 630 c 0,2,3
 460 630 460 630 500.5 619 c 128,-1,4
 541 608 541 608 565 596.5 c 128,-1,5
 589 585 589 585 628 564 c 0,6,7
 664 545 664 545 685 535 c 128,-1,8
 706 525 706 525 739 515.5 c 128,-1,9
 772 506 772 506 802 506 c 0,10,11
 871 506 871 506 914 537.5 c 128,-1,12
 957 569 957 569 1004 634 c 1,13,-1
 1040 606 l 1,14,15
 910 398 910 398 732 398 c 0,16,17
 676 398 676 398 629 415 c 128,-1,18
 582 432 582 432 524 464 c 0,19,20
 418 522 418 522 350 522 c 0,21,22
 281 522 281 522 238 490.5 c 128,-1,23
 195 459 195 459 148 394 c 1,24,-1
 112 422 l 1,0,1
EndSplineSet
EndChar

StartChar: exclamdown
Encoding: 161 161 96
Width: 528
VWidth: 2078
Flags: W
HStem: -628 21G<216 312> 652 256<166.773 361.227>
VStem: 126 276<-590.307 -83.6357 691.182 868.818>
LayerCount: 3
Fore
SplineSet
126 -459 m 0
 126 -404 136 -295 150 -212 c 0
 168 -108 184 4 193 89 c 10
 236 494 l 25
 292 494 l 25
 335 89 l 18
 344 4 360 -108 378 -212 c 0
 392 -295 402 -404 402 -459 c 0
 402 -547 360 -628 264 -628 c 0
 168 -628 126 -547 126 -459 c 0
136 780 m 0
 136 852 192 908 264 908 c 0
 336 908 392 852 392 780 c 0
 392 708 336 652 264 652 c 0
 192 652 136 708 136 780 c 0
EndSplineSet
Layer: 2
SplineSet
126 -459 m 0,0,1
 126 -354 126 -354 150 -212 c 0,2,3
 179 -46 179 -46 193 89 c 2,4,-1
 236 494 l 1,5,-1
 292 494 l 1,6,-1
 335 89 l 2,7,8
 349 -46 349 -46 378 -212 c 0,9,10
 402 -354 402 -354 402 -459 c 0,11,12
 402 -531 402 -531 367 -579.5 c 128,-1,13
 332 -628 332 -628 264 -628 c 128,-1,14
 196 -628 196 -628 161 -579.5 c 128,-1,15
 126 -531 126 -531 126 -459 c 0,0,1
136 780 m 128,-1,17
 136 834 136 834 173 871 c 128,-1,18
 210 908 210 908 264 908 c 128,-1,19
 318 908 318 908 355 871 c 128,-1,20
 392 834 392 834 392 780 c 128,-1,21
 392 726 392 726 355 689 c 128,-1,22
 318 652 318 652 264 652 c 128,-1,23
 210 652 210 652 173 689 c 128,-1,16
 136 726 136 726 136 780 c 128,-1,17
EndSplineSet
EndChar

StartChar: cent
Encoding: 162 162 97
Width: 1152
VWidth: 2079
Flags: W
HStem: -16 58<541.003 775.134> 852 48<536.192 684> 1414 20G<882.987 952>
VStem: 200 184<217.897 633.52> 772 162<588.162 783.22> 900 52<193.217 330>
DStem2: 196 -550 258 -550 0.330181 0.943918<20.4712 620.104 759.664 1472.74 1533.82 2101.88>
LayerCount: 3
Fore
SplineSet
196 -550 m 1xf4
 403 42 l 1
 276 115 200 255 200 432 c 0
 200 684 388 900 638 900 c 0
 660 900 682 898 701 895 c 1
 890 1434 l 1
 952 1434 l 1xf4
 758 880 l 1
 879 837 934 734 934 663 c 0
 934 604 902 542 828 542 c 0
 779 542 746 572 746 614 c 0
 746 635 750 657 759 682 c 0
 766 701 772 735 772 753 c 0xf8
 772 775 762 801 737 821 c 1
 489 110 l 1
 532 67 589 42 660 42 c 0
 845 42 898 212 900 330 c 1
 952 330 l 17
 950 186 894 -16 630 -16 c 0
 566 -16 508 -5 456 16 c 1
 258 -550 l 1
 196 -550 l 1xf4
384 460 m 0
 384 341 404 240 447 167 c 1
 684 846 l 1
 669 850 651 852 631 852 c 0
 469 852 384 688 384 460 c 0
EndSplineSet
Layer: 2
SplineSet
196 -550 m 1,0,-1
 403 42 l 1,1,2
 307 97 307 97 253.5 198.5 c 128,-1,3
 200 300 200 300 200 432 c 0,4,5
 200 525 200 525 233.5 611 c 128,-1,6
 267 697 267 697 325 760.5 c 128,-1,7
 383 824 383 824 464.5 862 c 128,-1,8
 546 900 546 900 638 900 c 0,9,10
 669 900 669 900 701 895 c 1,11,-1
 890 1434 l 1,12,-1
 952 1434 l 1,13,-1
 758 880 l 1,14,15
 842 850 842 850 888 786.5 c 128,-1,16
 934 723 934 723 934 663 c 0,17,18
 934 614 934 614 907 578 c 128,-1,19
 880 542 880 542 828 542 c 0,20,21
 791 542 791 542 768.5 562 c 128,-1,22
 746 582 746 582 746 614 c 128,-1,23
 746 646 746 646 759 682 c 0,24,25
 772 717 772 717 772 753 c 0,26,27
 772 793 772 793 737 821 c 1,28,-1
 489 110 l 1,29,30
 557 42 557 42 660 42 c 0,31,32
 713 42 713 42 755.5 61 c 128,-1,33
 798 80 798 80 824 109.5 c 128,-1,34
 850 139 850 139 867.5 178 c 128,-1,35
 885 217 885 217 892 254.5 c 128,-1,36
 899 292 899 292 900 330 c 1,37,-1
 952 330 l 1,38,39
 951 282 951 282 943.5 238 c 128,-1,40
 936 194 936 194 913.5 146.5 c 128,-1,41
 891 99 891 99 857 64 c 128,-1,42
 823 29 823 29 764.5 6.5 c 128,-1,43
 706 -16 706 -16 630 -16 c 0,44,45
 535 -16 535 -16 456 16 c 1,46,-1
 258 -550 l 1,47,-1
 196 -550 l 1,0,-1
384 460 m 0,48,49
 384 274 384 274 447 167 c 1,50,-1
 684 846 l 1,51,52
 662 852 662 852 631 852 c 0,53,54
 513 852 513 852 448.5 744 c 128,-1,55
 384 636 384 636 384 460 c 0,48,49
EndSplineSet
EndChar

StartChar: sterling
Encoding: 163 163 98
Width: 1420
Flags: W
HStem: -16 180<721.122 1094.03> -16 48<173.81 374.187> 258 48<180.37 368.305> 666 64<212 506 729 1042> 998 156<1085.92 1254.13> 1402 48<931.032 1159.18>
VStem: 68 64<63.1065 219.889> 486 243<732.867 1129.38> 574 152<340.114 640.079> 1132 68<214.83 387.716> 1260 68<1159.37 1325.8>
LayerCount: 3
Fore
SplineSet
68 138 m 0x7ee0
 68 243 159 306 264 306 c 0
 369 306 449 281 554 245 c 1
 569 281 574 314 574 348 c 0x7ee0
 574 461 560 554 521 666 c 1
 212 666 l 1
 212 730 l 1
 506 730 l 1
 493 791 486 863 486 914 c 0
 486 1226 729 1450 1046 1450 c 0
 1206 1450 1328 1348 1328 1207 c 0
 1328 1077 1235 998 1147 998 c 0
 1080 998 1003 1036 1003 1114 c 0
 1003 1179 1054 1210 1095 1210 c 0
 1131 1210 1150 1195 1165 1179 c 0
 1181 1161 1201 1154 1211 1154 c 0
 1231 1154 1260 1177 1260 1242 c 0
 1260 1310 1196 1402 1042 1402 c 0
 848 1402 774 1240 746 1006 c 0
 736 921 732 821 729 730 c 1x7f60
 1042 730 l 1
 1042 666 l 1
 726 666 l 1
 714 455 699 355 635 218 c 1
 758 181 869 164 973 164 c 0
 1069 164 1132 224 1132 295 c 0
 1132 325 1124 372 1089 406 c 1
 1129 437 l 1
 1166 400 1200 337 1200 268 c 0
 1200 110 1119 -16 935 -16 c 0xbee0
 769 -16 673 47 564 119 c 1
 489 39 384 -16 258 -16 c 0
 161 -16 68 33 68 138 c 0x7ee0
132 139 m 0
 132 58 199 32 256 32 c 0
 366 32 452 86 506 157 c 1
 412 219 342 258 256 258 c 0
 184 258 132 207 132 139 c 0
EndSplineSet
Layer: 2
SplineSet
68 138 m 0,0,1
 68 214 68 214 125 260 c 128,-1,2
 182 306 182 306 264 306 c 0,3,4
 336 306 336 306 398.5 291.5 c 128,-1,5
 461 277 461 277 554 245 c 1,6,7
 574 293 574 293 574 348 c 0,8,9
 574 514 574 514 521 666 c 1,10,-1
 212 666 l 1,11,-1
 212 730 l 1,12,-1
 506 730 l 1,13,14
 486 824 486 824 486 914 c 0,15,16
 486 1067 486 1067 559.5 1190 c 128,-1,17
 633 1313 633 1313 761 1381.5 c 128,-1,18
 889 1450 889 1450 1046 1450 c 0,19,20
 1167 1450 1167 1450 1247.5 1381 c 128,-1,21
 1328 1312 1328 1312 1328 1207 c 0,22,23
 1328 1114 1328 1114 1272.5 1056 c 128,-1,24
 1217 998 1217 998 1147 998 c 0,25,26
 1091 998 1091 998 1047 1028.5 c 128,-1,27
 1003 1059 1003 1059 1003 1114 c 0,28,29
 1003 1159 1003 1159 1031.5 1184.5 c 128,-1,30
 1060 1210 1060 1210 1095 1210 c 0,31,32
 1137 1210 1137 1210 1165 1179 c 0,33,34
 1189 1154 1189 1154 1211 1154 c 0,35,36
 1229 1154 1229 1154 1244.5 1176 c 128,-1,37
 1260 1198 1260 1198 1260 1242 c 0,38,39
 1260 1302 1260 1302 1204 1352 c 128,-1,40
 1148 1402 1148 1402 1042 1402 c 0,41,42
 905 1402 905 1402 837 1299.5 c 128,-1,43
 769 1197 769 1197 746 1006 c 0,44,45
 735 913 735 913 729 730 c 1,46,-1
 1042 730 l 1,47,-1
 1042 666 l 1,48,-1
 726 666 l 1,49,50
 717 500 717 500 699 408.5 c 128,-1,51
 681 317 681 317 635 218 c 1,52,53
 815 164 815 164 973 164 c 0,54,55
 1043 164 1043 164 1087.5 202 c 128,-1,56
 1132 240 1132 240 1132 295 c 0,57,58
 1132 364 1132 364 1089 406 c 1,59,-1
 1129 437 l 1,60,61
 1159 407 1159 407 1179.5 362 c 128,-1,62
 1200 317 1200 317 1200 268 c 0,63,64
 1200 142 1200 142 1133.5 63 c 128,-1,65
 1067 -16 1067 -16 935 -16 c 0,66,67
 875 -16 875 -16 824.5 -6.5 c 128,-1,68
 774 3 774 3 725.5 26 c 128,-1,69
 677 49 677 49 647 66.5 c 128,-1,70
 617 84 617 84 564 119 c 1,71,72
 437 -16 437 -16 258 -16 c 0,73,74
 179 -16 179 -16 123.5 24 c 128,-1,75
 68 64 68 64 68 138 c 0,0,1
132 139 m 0,76,77
 132 83 132 83 169 57.5 c 128,-1,78
 206 32 206 32 256 32 c 0,79,80
 335 32 335 32 399 66 c 128,-1,81
 463 100 463 100 506 157 c 1,82,83
 426 210 426 210 371 234 c 128,-1,84
 316 258 316 258 256 258 c 0,85,86
 202 258 202 258 167 224 c 128,-1,87
 132 190 132 190 132 139 c 0,76,77
EndSplineSet
EndChar

StartChar: currency
Encoding: 164 164 99
Width: 1152
Flags: W
HStem: 108 88<409.421 742.579> 828 88<407.987 742.579>
VStem: 172 88<345.421 678.579> 892 88<343.987 678.579>
DStem2: 202 956 134 887 0.706674 -0.70754<0.76643 181.309 975.63 1154.71> 255 259 323 191 0.706674 0.70754<-170.412 7.40456 803.575 982.819>
LayerCount: 3
Fore
SplineSet
134 139 m 1
 255 259 l 1
 203 327 172 414 172 512 c 0
 172 610 203 697 256 765 c 1
 134 887 l 1
 202 956 l 1
 324 833 l 1
 392 886 479 916 576 916 c 0
 674 916 761 885 829 833 c 1
 950 956 l 1
 1018 886 l 1
 897 765 l 1
 950 697 980 610 980 512 c 0
 980 415 950 328 897 260 c 1
 1018 139 l 1
 950 70 l 1
 829 192 l 1
 761 139 674 108 576 108 c 0
 478 108 391 138 323 191 c 1
 203 70 l 1
 134 139 l 1
260 512 m 0
 260 328 392 196 576 196 c 0
 760 196 892 328 892 512 c 0
 892 696 760 828 576 828 c 0
 392 828 260 696 260 512 c 0
EndSplineSet
Layer: 2
SplineSet
134 139 m 1,0,-1
 255 259 l 1,1,2
 172 368 172 368 172 512 c 0,3,4
 172 657 172 657 256 765 c 1,5,-1
 134 887 l 1,6,-1
 202 956 l 1,7,-1
 324 833 l 1,8,9
 430 916 430 916 576 916 c 0,10,11
 720 916 720 916 829 833 c 1,12,-1
 950 956 l 1,13,-1
 1018 886 l 1,14,-1
 897 765 l 1,15,16
 980 659 980 659 980 512 c 0,17,18
 980 366 980 366 897 260 c 1,19,-1
 1018 139 l 1,20,-1
 950 70 l 1,21,-1
 829 192 l 1,22,23
 721 108 721 108 576 108 c 0,24,25
 429 108 429 108 323 191 c 1,26,-1
 203 70 l 1,27,-1
 134 139 l 1,0,-1
260 512 m 128,-1,29
 260 374 260 374 349 285 c 128,-1,30
 438 196 438 196 576 196 c 128,-1,31
 714 196 714 196 803 285 c 128,-1,32
 892 374 892 374 892 512 c 128,-1,33
 892 650 892 650 803 739 c 128,-1,34
 714 828 714 828 576 828 c 128,-1,35
 438 828 438 828 349 739 c 128,-1,28
 260 650 260 650 260 512 c 128,-1,29
EndSplineSet
EndChar

StartChar: yen
Encoding: 165 165 100
Width: 1152
VWidth: 2078
Flags: W
HStem: 0 48<352 494 658 800> 476 64<160 494 658 990> 728 64<160 443 669 990> 1386 48<24 136 318 460 786 922 977 1104>
VStem: 494 164<48 476 540 694>
DStem2: 318 1386 136 1386 0.459493 -0.888182<0 585.016> 619 805 669 792 0.460317 0.887755<11.475 655.261>
LayerCount: 3
Fore
SplineSet
24 1386 m 1
 24 1434 l 1
 460 1434 l 1
 460 1386 l 1
 318 1386 l 1
 619 805 l 1
 922 1386 l 1
 786 1386 l 1
 786 1434 l 1
 1104 1434 l 1
 1104 1386 l 1
 977 1386 l 1
 669 792 l 1
 990 792 l 1
 990 728 l 1
 658 728 l 1
 658 540 l 1
 990 540 l 1
 990 476 l 1
 658 476 l 1
 658 48 l 1
 800 48 l 1
 800 0 l 1
 352 0 l 1
 352 48 l 1
 494 48 l 1
 494 476 l 1
 160 476 l 1
 160 540 l 1
 494 540 l 1
 494 694 l 1
 476 728 l 1
 160 728 l 1
 160 792 l 1
 443 792 l 1
 136 1386 l 1
 24 1386 l 1
EndSplineSet
Layer: 2
SplineSet
24 1386 m 1,0,-1
 24 1434 l 1,1,-1
 460 1434 l 1,2,-1
 460 1386 l 1,3,-1
 318 1386 l 1,4,-1
 619 805 l 1,5,-1
 922 1386 l 1,6,-1
 786 1386 l 1,7,-1
 786 1434 l 1,8,-1
 1104 1434 l 1,9,-1
 1104 1386 l 1,10,-1
 977 1386 l 1,11,-1
 669 792 l 1,12,-1
 990 792 l 1,13,-1
 990 728 l 1,14,-1
 658 728 l 1,15,-1
 658 540 l 1,16,-1
 990 540 l 1,17,-1
 990 476 l 1,18,-1
 658 476 l 1,19,-1
 658 48 l 1,20,-1
 800 48 l 1,21,-1
 800 0 l 1,22,-1
 352 0 l 1,23,-1
 352 48 l 1,24,-1
 494 48 l 1,25,-1
 494 476 l 1,26,-1
 160 476 l 1,27,-1
 160 540 l 1,28,-1
 494 540 l 1,29,-1
 494 694 l 1,30,-1
 476 728 l 1,31,-1
 160 728 l 1,32,-1
 160 792 l 1,33,-1
 443 792 l 1,34,-1
 136 1386 l 1,35,-1
 24 1386 l 1,0,-1
EndSplineSet
EndChar

StartChar: brokenbar
Encoding: 166 166 101
Width: 512
VWidth: 2078
Flags: W
HStem: -520 21G<202 310> 1414 20G<202 310>
VStem: 202 108<-520 248 666 1434>
LayerCount: 3
Fore
SplineSet
202 248 m 1
 310 248 l 1
 310 -520 l 1
 202 -520 l 1
 202 248 l 1
202 666 m 1
 202 1434 l 1
 310 1434 l 1
 310 666 l 1
 202 666 l 1
EndSplineSet
Layer: 2
SplineSet
202 248 m 1,0,-1
 310 248 l 1,1,-1
 310 -520 l 1,2,-1
 202 -520 l 1,3,-1
 202 248 l 1,0,-1
202 666 m 1,4,-1
 202 1434 l 1,5,-1
 310 1434 l 1,6,-1
 310 666 l 1,7,-1
 202 666 l 1,4,-1
EndSplineSet
EndChar

StartChar: section
Encoding: 167 167 102
Width: 1042
VWidth: 2078
Flags: W
HStem: -536 48<370.721 604.64> 1402 48<446.243 668.867>
VStem: 158 138<-399.648 -204.5> 190 56<611.194 782.651> 213 118<1060.3 1288.37> 740 140<1135.5 1324.93> 748 104<-333.117 -67.9022> 800 56<237.543 416.73>
LayerCount: 3
Fore
SplineSet
158 -256 m 0xe2
 158 -153 241 -81 315 -81 c 0
 377 -81 420 -116 420 -177 c 0
 420 -231 385 -258 354 -278 c 0
 323 -298 296 -317 296 -363 c 0xe2
 296 -443 381 -488 488 -488 c 0
 686 -488 748 -331 748 -225 c 0
 748 -67 634 34 495 146 c 0
 344 267 190 404 190 636 c 0xd2
 190 742 223 822 294 901 c 1
 244 970 213 1043 213 1130 c 0
 213 1323 379 1450 550 1450 c 0
 764 1450 880 1329 880 1179 c 0
 880 1092 811 1025 733 1025 c 0
 675 1025 629 1061 629 1117 c 0
 629 1172 668 1198 697 1215 c 0
 724 1230 740 1250 740 1282 c 0xcc
 740 1345 676 1402 552 1402 c 0
 467 1402 331 1353 331 1202 c 0
 331 1062 444 967 567 868 c 0
 714 750 856 628 856 392 c 0xc9
 856 285 827 209 761 123 c 1
 824 42 852 -36 852 -134 c 0
 852 -298 759 -536 490 -536 c 0
 298 -536 158 -417 158 -256 c 0xe2
246 694 m 0xd1
 246 596 390 453 526 344 c 0
 602 283 675 223 732 158 c 1
 766 200 800 263 800 331 c 0
 800 428 675 559 539 668 c 0
 458 733 380 797 321 867 c 1
 251 793 246 717 246 694 c 0xd1
EndSplineSet
Layer: 2
SplineSet
158 -256 m 0,0,1
 158 -182 158 -182 207 -131.5 c 128,-1,2
 256 -81 256 -81 315 -81 c 0,3,4
 362 -81 362 -81 391 -106.5 c 128,-1,5
 420 -132 420 -132 420 -177 c 0,6,7
 420 -213 420 -213 402 -236 c 128,-1,8
 384 -259 384 -259 354 -278 c 0,9,10
 335 -291 335 -291 324.5 -299.5 c 128,-1,11
 314 -308 314 -308 305 -324.5 c 128,-1,12
 296 -341 296 -341 296 -363 c 0,13,14
 296 -421 296 -421 350.5 -454.5 c 128,-1,15
 405 -488 405 -488 488 -488 c 0,16,17
 545 -488 545 -488 591 -470.5 c 128,-1,18
 637 -453 637 -453 665.5 -426 c 128,-1,19
 694 -399 694 -399 713 -363.5 c 128,-1,20
 732 -328 732 -328 740 -293.5 c 128,-1,21
 748 -259 748 -259 748 -225 c 0,22,23
 748 -179 748 -179 734 -136 c 128,-1,24
 720 -93 720 -93 700 -59 c 128,-1,25
 680 -25 680 -25 643.5 13.5 c 128,-1,26
 607 52 607 52 576 79 c 128,-1,27
 545 106 545 106 495 146 c 0,28,29
 425 202 425 202 381 243.5 c 128,-1,30
 337 285 337 285 288 347 c 128,-1,31
 239 409 239 409 214.5 481 c 128,-1,32
 190 553 190 553 190 636 c 0,33,34
 190 785 190 785 294 901 c 1,35,36
 213 1013 213 1013 213 1130 c 0,37,38
 213 1223 213 1223 262 1297.5 c 128,-1,39
 311 1372 311 1372 387.5 1411 c 128,-1,40
 464 1450 464 1450 550 1450 c 0,41,42
 705 1450 705 1450 792.5 1373 c 128,-1,43
 880 1296 880 1296 880 1179 c 0,44,45
 880 1115 880 1115 836 1070 c 128,-1,46
 792 1025 792 1025 733 1025 c 0,47,48
 689 1025 689 1025 659 1050.5 c 128,-1,49
 629 1076 629 1076 629 1117 c 0,50,51
 629 1175 629 1175 697 1215 c 1,52,53
 740 1239 740 1239 740 1282 c 0,54,55
 740 1332 740 1332 690.5 1367 c 128,-1,56
 641 1402 641 1402 552 1402 c 0,57,58
 517 1402 517 1402 481 1391.5 c 128,-1,59
 445 1381 445 1381 410 1359 c 128,-1,60
 375 1337 375 1337 353 1296.5 c 128,-1,61
 331 1256 331 1256 331 1202 c 0,62,63
 331 1161 331 1161 345 1122 c 128,-1,64
 359 1083 359 1083 377.5 1053 c 128,-1,65
 396 1023 396 1023 431.5 987 c 128,-1,66
 467 951 467 951 494 928 c 128,-1,67
 521 905 521 905 567 868 c 0,68,69
 622 824 622 824 655 795 c 128,-1,70
 688 766 688 766 731 718 c 128,-1,71
 774 670 774 670 798 626.5 c 128,-1,72
 822 583 822 583 839 521.5 c 128,-1,73
 856 460 856 460 856 392 c 0,74,75
 856 313 856 313 833.5 251 c 128,-1,76
 811 189 811 189 761 123 c 1,77,78
 852 6 852 6 852 -134 c 0,79,80
 852 -186 852 -186 840.5 -239 c 128,-1,81
 829 -292 829 -292 801.5 -346 c 128,-1,82
 774 -400 774 -400 734 -442 c 128,-1,83
 694 -484 694 -484 630.5 -510 c 128,-1,84
 567 -536 567 -536 490 -536 c 0,85,86
 346 -536 346 -536 252 -456.5 c 128,-1,87
 158 -377 158 -377 158 -256 c 0,0,1
246 694 m 0,88,89
 246 627 246 627 326.5 533 c 128,-1,90
 407 439 407 439 526 344 c 0,91,92
 671 228 671 228 732 158 c 1,93,94
 800 242 800 242 800 331 c 0,95,96
 800 399 800 399 727 487.5 c 128,-1,97
 654 576 654 576 539 668 c 0,98,99
 384 793 384 793 321 867 c 1,100,101
 246 788 246 788 246 694 c 0,88,89
EndSplineSet
EndChar

StartChar: dieresis
Encoding: 168 168 103
Width: 880
VWidth: 2078
Flags: W
HStem: 1112 192<155.205 320.795 559.205 724.795>
VStem: 142 192<1125.2 1290.8> 546 192<1125.2 1290.8>
LayerCount: 3
Fore
SplineSet
142 1208 m 0
 142 1264 182 1304 238 1304 c 0
 294 1304 334 1264 334 1208 c 0
 334 1152 294 1112 238 1112 c 0
 182 1112 142 1152 142 1208 c 0
546 1208 m 0
 546 1264 586 1304 642 1304 c 0
 698 1304 738 1264 738 1208 c 0
 738 1152 698 1112 642 1112 c 0
 586 1112 546 1152 546 1208 c 0
EndSplineSet
Layer: 2
SplineSet
142 1208 m 128,-1,1
 142 1250 142 1250 169 1277 c 128,-1,2
 196 1304 196 1304 238 1304 c 128,-1,3
 280 1304 280 1304 307 1277 c 128,-1,4
 334 1250 334 1250 334 1208 c 128,-1,5
 334 1166 334 1166 307 1139 c 128,-1,6
 280 1112 280 1112 238 1112 c 128,-1,7
 196 1112 196 1112 169 1139 c 128,-1,0
 142 1166 142 1166 142 1208 c 128,-1,1
546 1208 m 128,-1,9
 546 1250 546 1250 573 1277 c 128,-1,10
 600 1304 600 1304 642 1304 c 128,-1,11
 684 1304 684 1304 711 1277 c 128,-1,12
 738 1250 738 1250 738 1208 c 128,-1,13
 738 1166 738 1166 711 1139 c 128,-1,14
 684 1112 684 1112 642 1112 c 128,-1,15
 600 1112 600 1112 573 1139 c 128,-1,8
 546 1166 546 1166 546 1208 c 128,-1,9
EndSplineSet
EndChar

StartChar: copyright
Encoding: 169 169 104
Width: 1672
Flags: W
HStem: -28 64<634.328 1037.67> 274 48<735.589 956.078> 890 21G<1115 1158> 1166 48<735.589 956.078> 1452 64<634.328 1037.67>
VStem: 64 64<542.328 945.672> 392 184<539.051 948.949> 1130 28<274 309.925 576.092 598 890 911.908 1178.07 1214> 1544 64<542.328 945.672>
LayerCount: 3
Fore
SplineSet
64 744 m 0
 64 1170 410 1516 836 1516 c 0
 1262 1516 1608 1170 1608 744 c 0
 1608 318 1262 -28 836 -28 c 0
 410 -28 64 318 64 744 c 0
128 744 m 0
 128 353 445 36 836 36 c 0
 1227 36 1544 353 1544 744 c 0
 1544 1135 1227 1452 836 1452 c 0
 445 1452 128 1135 128 744 c 0
392 744 m 0
 392 1036 616 1214 842 1214 c 0
 920 1214 978 1193 1010 1181 c 0
 1036 1171 1062 1161 1082 1161 c 0
 1111 1161 1124 1184 1130 1214 c 9
 1158 1214 l 25
 1158 890 l 25
 1122 890 l 17
 1108 948 1085 1010 1049 1061 c 0
 1018 1105 963 1166 842 1166 c 0
 670 1166 576 1022 576 744 c 0
 576 466 670 322 842 322 c 0
 963 322 1018 383 1049 427 c 0
 1085 478 1108 540 1122 598 c 9
 1158 598 l 25
 1158 274 l 25
 1130 274 l 17
 1124 304 1111 327 1082 327 c 0
 1062 327 1036 317 1010 307 c 0
 978 295 920 274 842 274 c 0
 616 274 392 452 392 744 c 0
EndSplineSet
Layer: 2
SplineSet
64 744 m 128,-1,1
 64 901 64 901 125 1044 c 128,-1,2
 186 1187 186 1187 289.5 1290.5 c 128,-1,3
 393 1394 393 1394 536 1455 c 128,-1,4
 679 1516 679 1516 836 1516 c 128,-1,5
 993 1516 993 1516 1136 1455 c 128,-1,6
 1279 1394 1279 1394 1382.5 1290.5 c 128,-1,7
 1486 1187 1486 1187 1547 1044 c 128,-1,8
 1608 901 1608 901 1608 744 c 128,-1,9
 1608 587 1608 587 1547 444 c 128,-1,10
 1486 301 1486 301 1382.5 197.5 c 128,-1,11
 1279 94 1279 94 1136 33 c 128,-1,12
 993 -28 993 -28 836 -28 c 128,-1,13
 679 -28 679 -28 536 33 c 128,-1,14
 393 94 393 94 289.5 197.5 c 128,-1,15
 186 301 186 301 125 444 c 128,-1,0
 64 587 64 587 64 744 c 128,-1,1
128 744 m 128,-1,17
 128 600 128 600 184 469 c 128,-1,18
 240 338 240 338 335 243 c 128,-1,19
 430 148 430 148 561 92 c 128,-1,20
 692 36 692 36 836 36 c 128,-1,21
 980 36 980 36 1111 92 c 128,-1,22
 1242 148 1242 148 1337 243 c 128,-1,23
 1432 338 1432 338 1488 469 c 128,-1,24
 1544 600 1544 600 1544 744 c 128,-1,25
 1544 888 1544 888 1488 1019 c 128,-1,26
 1432 1150 1432 1150 1337 1245 c 128,-1,27
 1242 1340 1242 1340 1111 1396 c 128,-1,28
 980 1452 980 1452 836 1452 c 128,-1,29
 692 1452 692 1452 561 1396 c 128,-1,30
 430 1340 430 1340 335 1245 c 128,-1,31
 240 1150 240 1150 184 1019 c 128,-1,16
 128 888 128 888 128 744 c 128,-1,17
392 744 m 128,-1,33
 392 850 392 850 430.5 940 c 128,-1,34
 469 1030 469 1030 532.5 1089 c 128,-1,35
 596 1148 596 1148 676.5 1181 c 128,-1,36
 757 1214 757 1214 842 1214 c 0,37,38
 922 1214 922 1214 1010 1181 c 0,39,40
 1062 1161 1062 1161 1082 1161 c 0,41,42
 1119 1161 1119 1161 1130 1214 c 1,43,-1
 1158 1214 l 1,44,-1
 1158 890 l 1,45,-1
 1122 890 l 1,46,47
 1097 993 1097 993 1049 1061 c 0,48,49
 975 1166 975 1166 842 1166 c 0,50,51
 712 1166 712 1166 644 1059 c 128,-1,52
 576 952 576 952 576 744 c 128,-1,53
 576 536 576 536 644 429 c 128,-1,54
 712 322 712 322 842 322 c 0,55,56
 975 322 975 322 1049 427 c 0,57,58
 1097 495 1097 495 1122 598 c 1,59,-1
 1158 598 l 1,60,-1
 1158 274 l 1,61,-1
 1130 274 l 1,62,63
 1119 327 1119 327 1082 327 c 0,64,65
 1062 327 1062 327 1010 307 c 0,66,67
 922 274 922 274 842 274 c 0,68,69
 757 274 757 274 676.5 307 c 128,-1,70
 596 340 596 340 532.5 399 c 128,-1,71
 469 458 469 458 430.5 548 c 128,-1,32
 392 638 392 638 392 744 c 128,-1,33
EndSplineSet
EndChar

StartChar: ordfeminine
Encoding: 170 170 105
Width: 780
VWidth: 2079
Flags: W
HStem: 910 54<298.067 402.557 585.254 681.281> 1410 36<295.676 431.35>
VStem: 164 116<970.867 1144.2 1275.11 1387.69> 472 108<989.648 1209 1212.93 1382.78>
LayerCount: 3
Fore
SplineSet
164 1035 m 0
 164 1137 230 1175 325 1186 c 0
 391 1194 429 1210 472 1237 c 1
 472 1295 l 2
 472 1353 451 1410 363 1410 c 0
 318 1410 272 1390 272 1358 c 0
 272 1347 276 1337 281 1328 c 0
 288 1313 290 1306 290 1293 c 0
 290 1274 274 1253 234 1253 c 0
 191 1253 172 1276 172 1308 c 0
 172 1378 254 1446 365 1446 c 0
 520 1446 580 1360 580 1252 c 2
 580 1021 l 2
 580 971 609 954 640 954 c 0
 648 954 665 955 679 959 c 9
 686 920 l 17
 671 915 644 910 630 910 c 0
 559 910 501 926 477 1012 c 1
 472 1012 l 1
 437 957 391 910 307 910 c 0
 221 910 164 957 164 1035 c 0
280 1048 m 0
 280 986 315 964 364 964 c 0
 409 964 448 1002 472 1044 c 1
 472 1209 l 1
 431 1183 403 1174 342 1158 c 0
 295 1147 280 1102 280 1048 c 0
EndSplineSet
Layer: 2
SplineSet
164 1035 m 0,0,1
 164 1107 164 1107 206 1142 c 128,-1,2
 248 1177 248 1177 325 1186 c 0,3,4
 407 1196 407 1196 472 1237 c 1,5,-1
 472 1295 l 2,6,7
 472 1410 472 1410 363 1410 c 0,8,9
 327 1410 327 1410 299.5 1395.5 c 128,-1,10
 272 1381 272 1381 272 1358 c 0,11,12
 272 1344 272 1344 281 1328 c 1,13,14
 290 1309 290 1309 290 1293 c 128,-1,15
 290 1277 290 1277 276 1265 c 128,-1,16
 262 1253 262 1253 234 1253 c 0,17,18
 172 1253 172 1253 172 1308 c 0,19,20
 172 1362 172 1362 228 1404 c 128,-1,21
 284 1446 284 1446 365 1446 c 0,22,23
 475 1446 475 1446 527.5 1392.5 c 128,-1,24
 580 1339 580 1339 580 1252 c 2,25,-1
 580 1021 l 2,26,27
 580 986 580 986 597 970 c 128,-1,28
 614 954 614 954 640 954 c 0,29,30
 662 954 662 954 679 959 c 1,31,-1
 686 920 l 1,32,33
 656 910 656 910 630 910 c 0,34,35
 569 910 569 910 531.5 931 c 128,-1,36
 494 952 494 952 477 1012 c 1,37,-1
 472 1012 l 1,38,39
 442 964 442 964 403.5 937 c 128,-1,40
 365 910 365 910 307 910 c 0,41,42
 242 910 242 910 203 943.5 c 128,-1,43
 164 977 164 977 164 1035 c 0,0,1
280 1048 m 0,44,45
 280 964 280 964 364 964 c 0,46,47
 426 964 426 964 472 1044 c 1,48,-1
 472 1209 l 1,49,50
 427 1180 427 1180 342 1158 c 1,51,52
 280 1143 280 1143 280 1048 c 0,44,45
EndSplineSet
EndChar

StartChar: logicalnot
Encoding: 172 172 107
Width: 1152
VWidth: 2078
Flags: W
HStem: 650 96<62 978>
VStem: 978 112<274 650>
LayerCount: 3
Fore
SplineSet
62 650 m 1
 62 746 l 1
 1090 746 l 1
 1090 274 l 1
 978 274 l 1
 978 650 l 1
 62 650 l 1
EndSplineSet
Layer: 2
SplineSet
62 650 m 1,0,-1
 62 746 l 1,1,-1
 1090 746 l 1,2,-1
 1090 274 l 1,3,-1
 978 274 l 1,4,-1
 978 650 l 1,5,-1
 62 650 l 1,0,-1
EndSplineSet
EndChar

StartChar: registered
Encoding: 174 174 109
Width: 1672
VWidth: 2078
Flags: W
HStem: -28 64<634.328 1037.67> 287 56<1183.46 1327.21> 302 48<414 556 720 862> 746 48<720 931.103> 1138 48<414 556 720 926.468> 1452 64<634.328 1037.67>
VStem: 64 64<542.328 945.672> 556 164<350 746 794 1138> 1000 164<352.954 684.182 850.429 1093.92> 1544 64<542.328 945.672>
LayerCount: 3
Fore
SplineSet
64 744 m 0x9fc0
 64 1170 410 1516 836 1516 c 0
 1262 1516 1608 1170 1608 744 c 0
 1608 318 1262 -28 836 -28 c 0
 410 -28 64 318 64 744 c 0x9fc0
128 744 m 0
 128 353 445 36 836 36 c 0
 1227 36 1544 353 1544 744 c 0
 1544 1135 1227 1452 836 1452 c 0
 445 1452 128 1135 128 744 c 0
414 302 m 1xbfc0
 414 350 l 1
 556 350 l 1xbfc0
 556 1138 l 1
 414 1138 l 1
 414 1186 l 1
 870 1186 l 2
 1083 1186 1164 1076 1164 970 c 0
 1164 846 1074 792 932 774 c 1
 932 763 l 1
 1089 743 1164 667 1164 585 c 10
 1164 456 l 18
 1164 373 1189 343 1255 343 c 0
 1279 343 1303 349 1324 359 c 9
 1338 317 l 17
 1291 296 1246 287 1191 287 c 0xdfc0
 1112 287 1000 316 1000 440 c 10
 1000 583 l 18
 1000 667 958 746 855 746 c 2
 720 746 l 1
 720 350 l 1
 862 350 l 1
 862 302 l 1
 414 302 l 1xbfc0
720 794 m 1
 869 794 l 2
 955 794 1000 866 1000 955 c 0
 1000 1041 963 1138 855 1138 c 2
 720 1138 l 1
 720 794 l 1
EndSplineSet
Layer: 2
SplineSet
64 744 m 128,-1,1
 64 901 64 901 125 1044 c 128,-1,2
 186 1187 186 1187 289.5 1290.5 c 128,-1,3
 393 1394 393 1394 536 1455 c 128,-1,4
 679 1516 679 1516 836 1516 c 128,-1,5
 993 1516 993 1516 1136 1455 c 128,-1,6
 1279 1394 1279 1394 1382.5 1290.5 c 128,-1,7
 1486 1187 1486 1187 1547 1044 c 128,-1,8
 1608 901 1608 901 1608 744 c 128,-1,9
 1608 587 1608 587 1547 444 c 128,-1,10
 1486 301 1486 301 1382.5 197.5 c 128,-1,11
 1279 94 1279 94 1136 33 c 128,-1,12
 993 -28 993 -28 836 -28 c 128,-1,13
 679 -28 679 -28 536 33 c 128,-1,14
 393 94 393 94 289.5 197.5 c 128,-1,15
 186 301 186 301 125 444 c 128,-1,0
 64 587 64 587 64 744 c 128,-1,1
128 744 m 128,-1,17
 128 600 128 600 184 469 c 128,-1,18
 240 338 240 338 335 243 c 128,-1,19
 430 148 430 148 561 92 c 128,-1,20
 692 36 692 36 836 36 c 128,-1,21
 980 36 980 36 1111 92 c 128,-1,22
 1242 148 1242 148 1337 243 c 128,-1,23
 1432 338 1432 338 1488 469 c 128,-1,24
 1544 600 1544 600 1544 744 c 128,-1,25
 1544 888 1544 888 1488 1019 c 128,-1,26
 1432 1150 1432 1150 1337 1245 c 128,-1,27
 1242 1340 1242 1340 1111 1396 c 128,-1,28
 980 1452 980 1452 836 1452 c 128,-1,29
 692 1452 692 1452 561 1396 c 128,-1,30
 430 1340 430 1340 335 1245 c 128,-1,31
 240 1150 240 1150 184 1019 c 128,-1,16
 128 888 128 888 128 744 c 128,-1,17
414 302 m 1,32,-1
 414 350 l 1,33,-1
 556 350 l 1,34,-1
 556 1138 l 1,35,-1
 414 1138 l 1,36,-1
 414 1186 l 1,37,-1
 870 1186 l 2,38,39
 1018 1186 1018 1186 1091 1122.5 c 128,-1,40
 1164 1059 1164 1059 1164 970 c 128,-1,41
 1164 881 1164 881 1104.5 834.5 c 128,-1,42
 1045 788 1045 788 932 774 c 1,43,-1
 932 763 l 1,44,45
 1045 749 1045 749 1104.5 699.5 c 128,-1,46
 1164 650 1164 650 1164 585 c 2,47,-1
 1164 456 l 2,48,49
 1164 394 1164 394 1184.5 368.5 c 128,-1,50
 1205 343 1205 343 1255 343 c 0,51,52
 1290 343 1290 343 1324 359 c 1,53,-1
 1338 317 l 1,54,55
 1271 287 1271 287 1191 287 c 0,56,57
 1158 287 1158 287 1127.5 294 c 128,-1,58
 1097 301 1097 301 1066.5 316.5 c 128,-1,59
 1036 332 1036 332 1018 364 c 128,-1,60
 1000 396 1000 396 1000 440 c 2,61,-1
 1000 583 l 2,62,63
 1000 652 1000 652 963.5 699 c 128,-1,64
 927 746 927 746 855 746 c 2,65,-1
 720 746 l 1,66,-1
 720 350 l 1,67,-1
 862 350 l 1,68,-1
 862 302 l 1,69,-1
 414 302 l 1,32,-1
720 794 m 1,70,-1
 869 794 l 2,71,72
 931 794 931 794 965.5 839.5 c 128,-1,73
 1000 885 1000 885 1000 955 c 0,74,75
 1000 1030 1000 1030 964.5 1084 c 128,-1,76
 929 1138 929 1138 855 1138 c 2,77,-1
 720 1138 l 1,78,-1
 720 794 l 1,70,-1
EndSplineSet
EndChar

StartChar: macron
Encoding: 175 175 110
AltUni2: 0002c9.ffffffff.0
Width: 880
VWidth: 2078
Flags: W
HStem: 1134 88<152 728>
VStem: 152 576<1134 1222>
LayerCount: 3
Fore
SplineSet
152 1134 m 25
 152 1222 l 25
 728 1222 l 25
 728 1134 l 25
 152 1134 l 25
EndSplineSet
Layer: 2
SplineSet
152 1134 m 1,0,-1
 152 1222 l 1,1,-1
 728 1222 l 1,2,-1
 728 1134 l 1,3,-1
 152 1134 l 1,0,-1
EndSplineSet
EndChar

StartChar: degree
Encoding: 176 176 111
Width: 1152
Flags: W
HStem: 744 80<426.389 725.611> 1412 80<426.389 725.611>
VStem: 200 80<968.798 1267.2> 872 80<968.798 1267.2>
LayerCount: 3
Fore
SplineSet
200 1118 m 0
 200 1334 360 1492 576 1492 c 0
 792 1492 952 1334 952 1118 c 0
 952 902 792 744 576 744 c 0
 360 744 200 902 200 1118 c 0
280 1118 m 0
 280 950 408 824 576 824 c 0
 744 824 872 950 872 1118 c 0
 872 1286 744 1412 576 1412 c 0
 408 1412 280 1286 280 1118 c 0
EndSplineSet
Layer: 2
SplineSet
200 1118 m 128,-1,1
 200 1280 200 1280 307 1386 c 128,-1,2
 414 1492 414 1492 576 1492 c 128,-1,3
 738 1492 738 1492 845 1386 c 128,-1,4
 952 1280 952 1280 952 1118 c 128,-1,5
 952 956 952 956 845 850 c 128,-1,6
 738 744 738 744 576 744 c 128,-1,7
 414 744 414 744 307 850 c 128,-1,0
 200 956 200 956 200 1118 c 128,-1,1
280 1118 m 128,-1,9
 280 992 280 992 365 908 c 128,-1,10
 450 824 450 824 576 824 c 128,-1,11
 702 824 702 824 787 908 c 128,-1,12
 872 992 872 992 872 1118 c 128,-1,13
 872 1244 872 1244 787 1328 c 128,-1,14
 702 1412 702 1412 576 1412 c 128,-1,15
 450 1412 450 1412 365 1328 c 128,-1,8
 280 1244 280 1244 280 1118 c 128,-1,9
EndSplineSet
EndChar

StartChar: twosuperior
Encoding: 178 178 113
Width: 660
VWidth: 1544
Flags: W
HStem: 660 112<216 531.579> 1050 84<114.306 271.87> 1398 64<177.91 361.268>
VStem: 60 38<1173.16 1315.82> 278 34<1158.13 1246.3> 428 140<1078.73 1346.35> 568 30<860.56 914>
LayerCount: 3
Fore
SplineSet
60 1222 m 0xfc
 60 1344 145 1462 305 1462 c 0
 481 1462 568 1350 568 1229 c 0xfc
 568 1124 508 1034 404 938 c 0
 353 891 310 852 214 779 c 9
 216 772 l 25
 451 772 l 18
 499 772 528 804 542 834 c 0
 554 861 558 870 568 914 c 9
 598 914 l 25xfa
 578 660 l 25
 86 660 l 25
 86 706 l 17
 166 769 233 823 320 926 c 0
 398 1018 428 1111 428 1202 c 0
 428 1308 388 1398 248 1398 c 0
 155 1398 98 1322 98 1237 c 0
 98 1173 136 1134 201 1134 c 0
 258 1134 278 1172 278 1206 c 0
 278 1223 276 1234 269 1247 c 9
 288 1259 l 17
 302 1239 312 1203 312 1173 c 0
 312 1120 282 1050 200 1050 c 0
 111 1050 60 1112 60 1222 c 0xfc
EndSplineSet
Layer: 2
SplineSet
60 1222 m 0,0,1
 60 1320 60 1320 125.5 1391 c 128,-1,2
 191 1462 191 1462 305 1462 c 0,3,4
 430 1462 430 1462 499 1394 c 128,-1,5
 568 1326 568 1326 568 1229 c 0,6,7
 568 1153 568 1153 527 1083.5 c 128,-1,8
 486 1014 486 1014 404 938 c 0,9,10
 314 855 314 855 214 779 c 1,11,-1
 216 772 l 1,12,-1
 451 772 l 2,13,14
 513 772 513 772 542 834 c 0,15,16
 558 870 558 870 568 914 c 1,17,-1
 598 914 l 1,18,-1
 578 660 l 1,19,-1
 86 660 l 1,20,-1
 86 706 l 1,21,22
 136 745 136 745 165 769.5 c 128,-1,23
 194 794 194 794 236.5 835.5 c 128,-1,24
 279 877 279 877 320 926 c 0,25,26
 428 1053 428 1053 428 1202 c 0,27,28
 428 1398 428 1398 248 1398 c 0,29,30
 181 1398 181 1398 139.5 1350.5 c 128,-1,31
 98 1303 98 1303 98 1237 c 0,32,33
 98 1189 98 1189 125 1161.5 c 128,-1,34
 152 1134 152 1134 201 1134 c 0,35,36
 240 1134 240 1134 259 1155.5 c 128,-1,37
 278 1177 278 1177 278 1206 c 0,38,39
 278 1230 278 1230 269 1247 c 1,40,-1
 288 1259 l 1,41,42
 312 1225 312 1225 312 1173 c 0,43,44
 312 1126 312 1126 284 1088 c 128,-1,45
 256 1050 256 1050 200 1050 c 0,46,47
 133 1050 133 1050 96.5 1095 c 128,-1,48
 60 1140 60 1140 60 1222 c 0,0,1
EndSplineSet
Substitution2: "Superscripts to Denominators-1" two.dnom
EndChar

StartChar: threesuperior
Encoding: 179 179 114
Width: 660
VWidth: 1538
Flags: W
HStem: 642 36<211.492 370.833> 888 20G<144 188> 1084 36<275.395 387.257> 1338 104<152.473 462>
VStem: 84 79<709.151 836.497> 90 24<1170 1232.44> 460 140<756.086 1025.1>
DStem2: 202 1066 297 1120 0.703851 0.710348<105.225 374.776>
LayerCount: 3
Fore
SplineSet
84 809 m 0xfa
 84 862 116 908 172 908 c 0
 204 908 224 886 224 859 c 0
 224 830 208 814 186 798 c 0
 172 788 163 769 163 757 c 0xfa
 163 706 231 678 300 678 c 0
 416 678 460 783 460 892 c 0
 460 995 424 1084 320 1084 c 0
 282 1084 253 1073 223 1045 c 1
 202 1066 l 1
 465 1333 l 1
 462 1338 l 1
 257 1338 l 2
 212 1338 173 1332 149 1287 c 0
 127 1245 119 1218 114 1170 c 1
 90 1170 l 1xf6
 97 1442 l 1
 530 1442 l 2
 562 1442 580 1452 603 1471 c 1
 622 1448 l 1
 297 1120 l 1
 299 1117 l 1
 313 1120 323 1120 338 1120 c 0
 464 1120 600 1048 600 892 c 0
 600 729 452 642 302 642 c 0
 193 642 84 697 84 809 c 0xfa
EndSplineSet
Layer: 2
SplineSet
84 809 m 0,0,1
 84 851 84 851 108 879.5 c 128,-1,2
 132 908 132 908 172 908 c 0,3,4
 195 908 195 908 209.5 894 c 128,-1,5
 224 880 224 880 224 859 c 0,6,7
 224 826 224 826 186 798 c 0,8,9
 163 782 163 782 163 757 c 0,10,11
 163 721 163 721 204 699.5 c 128,-1,12
 245 678 245 678 300 678 c 0,13,14
 381 678 381 678 420.5 739.5 c 128,-1,15
 460 801 460 801 460 892 c 0,16,17
 460 977 460 977 426.5 1030.5 c 128,-1,18
 393 1084 393 1084 320 1084 c 0,19,20
 265 1084 265 1084 223 1045 c 1,21,-1
 202 1066 l 1,22,-1
 465 1333 l 1,23,-1
 462 1338 l 1,24,-1
 257 1338 l 2,25,26
 217 1338 217 1338 191 1328 c 128,-1,27
 165 1318 165 1318 149 1287 c 0,28,29
 121 1233 121 1233 114 1170 c 1,30,-1
 90 1170 l 1,31,-1
 97 1442 l 1,32,-1
 530 1442 l 2,33,34
 568 1442 568 1442 603 1471 c 1,35,-1
 622 1448 l 1,36,-1
 297 1120 l 1,37,-1
 299 1117 l 1,38,39
 313 1120 313 1120 338 1120 c 0,40,41
 443 1120 443 1120 521.5 1060.5 c 128,-1,42
 600 1001 600 1001 600 892 c 0,43,44
 600 776 600 776 511.5 709 c 128,-1,45
 423 642 423 642 302 642 c 0,46,47
 213 642 213 642 148.5 686 c 128,-1,48
 84 730 84 730 84 809 c 0,0,1
EndSplineSet
Substitution2: "Superscripts to Denominators-1" three.dnom
EndChar

StartChar: acute
Encoding: 180 180 115
AltUni2: 0002ca.ffffffff.0
Width: 880
VWidth: 2078
Flags: W
HStem: 1054 408
VStem: 342 278
LayerCount: 3
Fore
SplineSet
342 1072 m 1
 448 1361 l 2
 469 1418 501 1462 551 1462 c 0
 595 1462 620 1431 620 1396 c 0
 620 1353 592 1316 569 1288 c 2
 374 1054 l 1
 342 1072 l 1
EndSplineSet
Layer: 2
SplineSet
342 1072 m 1,0,-1
 448 1361 l 2,1,2
 485 1462 485 1462 551 1462 c 0,3,4
 583 1462 583 1462 601.5 1443 c 128,-1,5
 620 1424 620 1424 620 1396 c 0,6,7
 620 1350 620 1350 569 1288 c 2,8,-1
 374 1054 l 1,9,-1
 342 1072 l 1,0,-1
EndSplineSet
EndChar

StartChar: paragraph
Encoding: 182 182 117
Width: 1188
VWidth: 2078
Flags: W
HStem: -520 21G<458 546 784 872> 1370 64<546 784 872 1100>
VStem: 142 404<870.475 1227.21> 458 88<-520 682.135> 784 88<-520 1370>
LayerCount: 3
Fore
SplineSet
142 1054 m 0xe8
 142 1246 304 1434 514 1434 c 2
 1100 1434 l 1
 1100 1370 l 1
 872 1370 l 1
 872 -520 l 1
 784 -520 l 1
 784 1370 l 1
 546 1370 l 1
 546 -520 l 1
 458 -520 l 1
 458 674 l 1xd8
 270 698 142 862 142 1054 c 0xe8
EndSplineSet
Layer: 2
SplineSet
142 1054 m 0,0,1
 142 1150 142 1150 190.5 1237 c 128,-1,2
 239 1324 239 1324 325.5 1379 c 128,-1,3
 412 1434 412 1434 514 1434 c 2,4,-1
 1100 1434 l 1,5,-1
 1100 1370 l 1,6,-1
 872 1370 l 1,7,-1
 872 -520 l 1,8,-1
 784 -520 l 1,9,-1
 784 1370 l 1,10,-1
 546 1370 l 1,11,-1
 546 -520 l 1,12,-1
 458 -520 l 1,13,-1
 458 674 l 1,14,15
 319 692 319 692 230.5 800 c 128,-1,16
 142 908 142 908 142 1054 c 0,0,1
EndSplineSet
EndChar

StartChar: cedilla
Encoding: 184 184 119
Width: 1006
Flags: W
HStem: -482 48<323.585 455.199>
VStem: 228 88<-431.037 -315.766> 380 60<-156.498 -88.2785> 510 96<-401.166 -207.283>
LayerCount: 3
Fore
SplineSet
228 -337 m 0
 228 -278 267 -240 312 -240 c 0
 348 -240 366 -264 366 -288 c 0
 366 -311 354 -330 340 -342 c 0
 324 -356 316 -374 316 -390 c 0
 316 -429 362 -434 396 -434 c 0
 431 -434 462 -412 480 -381 c 0
 499 -349 510 -312 510 -272 c 0
 510 -230 482 -207 434 -193 c 0
 403 -184 380 -172 380 -146 c 0
 380 -133 385 -119 405 -80 c 9
 454 -94 l 17
 445 -110 440 -122 440 -132 c 0
 440 -147 451 -151 480 -160 c 0
 540 -178 606 -227 606 -310 c 0
 606 -355 590 -399 566 -426 c 0
 537 -459 486 -482 418 -482 c 0
 317 -482 228 -434 228 -337 c 0
EndSplineSet
Layer: 2
SplineSet
228 -337 m 0,0,1
 228 -294 228 -294 252.5 -267 c 128,-1,2
 277 -240 277 -240 312 -240 c 0,3,4
 338 -240 338 -240 352 -254 c 128,-1,5
 366 -268 366 -268 366 -288 c 0,6,7
 366 -320 366 -320 340 -342 c 0,8,9
 316 -363 316 -363 316 -390 c 0,10,11
 316 -434 316 -434 396 -434 c 0,12,13
 449 -434 449 -434 480 -381 c 0,14,15
 510 -330 510 -330 510 -272 c 0,16,17
 510 -215 510 -215 434 -193 c 0,18,19
 380 -177 380 -177 380 -146 c 0,20,21
 380 -129 380 -129 405 -80 c 1,22,-1
 454 -94 l 1,23,24
 440 -119 440 -119 440 -132 c 0,25,26
 440 -143 440 -143 448 -148 c 128,-1,27
 456 -153 456 -153 480 -160 c 0,28,29
 532 -175 532 -175 569 -214 c 128,-1,30
 606 -253 606 -253 606 -310 c 0,31,32
 606 -381 606 -381 566 -426 c 0,33,34
 517 -482 517 -482 418 -482 c 0,35,36
 337 -482 337 -482 282.5 -444 c 128,-1,37
 228 -406 228 -406 228 -337 c 0,0,1
EndSplineSet
EndChar

StartChar: onesuperior
Encoding: 185 185 120
Width: 660
VWidth: 2078
Flags: W
HStem: 660 36<166 292 420 546> 1422 20G<314.5 420>
VStem: 292 128<696 1237> 334 86<1336.23 1442>
LayerCount: 3
Fore
SplineSet
120 1088 m 17xe0
 232 1200 295 1325 334 1442 c 1
 420 1442 l 1xd0
 420 696 l 1
 546 696 l 1
 546 660 l 1
 166 660 l 1
 166 696 l 1
 292 696 l 1
 292 1237 l 17
 283 1239 l 17
 242 1174 209 1128 146 1064 c 9
 120 1088 l 17xe0
EndSplineSet
Layer: 2
SplineSet
120 1088 m 1,0,1
 264 1232 264 1232 334 1442 c 1,2,-1
 420 1442 l 1,3,-1
 420 696 l 1,4,-1
 546 696 l 1,5,-1
 546 660 l 1,6,-1
 166 660 l 1,7,-1
 166 696 l 1,8,-1
 292 696 l 1,9,-1
 292 1237 l 1,10,-1
 283 1239 l 1,11,12
 220 1139 220 1139 146 1064 c 1,13,-1
 120 1088 l 1,0,1
EndSplineSet
Substitution2: "Superscripts to Denominators-1" one.dnom
EndChar

StartChar: ordmasculine
Encoding: 186 186 121
Width: 780
VWidth: 2079
Flags: W
HStem: 910 33<323.665 456.335> 1413 33<323.665 456.335>
VStem: 124 120<1028.54 1327.46> 536 120<1028.54 1327.46>
LayerCount: 3
Fore
SplineSet
124 1178 m 0
 124 1334 242 1446 390 1446 c 0
 538 1446 656 1334 656 1178 c 0
 656 1022 538 910 390 910 c 0
 242 910 124 1022 124 1178 c 0
244 1178 m 0
 244 1014 296 943 390 943 c 0
 484 943 536 1014 536 1178 c 0
 536 1342 484 1413 390 1413 c 0
 296 1413 244 1342 244 1178 c 0
EndSplineSet
Layer: 2
SplineSet
124 1178 m 128,-1,1
 124 1294 124 1294 201 1370 c 128,-1,2
 278 1446 278 1446 390 1446 c 128,-1,3
 502 1446 502 1446 579 1370 c 128,-1,4
 656 1294 656 1294 656 1178 c 128,-1,5
 656 1062 656 1062 579 986 c 128,-1,6
 502 910 502 910 390 910 c 128,-1,7
 278 910 278 910 201 986 c 128,-1,0
 124 1062 124 1062 124 1178 c 128,-1,1
244 1178 m 128,-1,9
 244 943 244 943 390 943 c 128,-1,10
 536 943 536 943 536 1178 c 128,-1,11
 536 1413 536 1413 390 1413 c 128,-1,8
 244 1413 244 1413 244 1178 c 128,-1,9
EndSplineSet
EndChar

StartChar: questiondown
Encoding: 191 191 126
Width: 852
VWidth: 2078
Flags: W
HStem: -628 56<359.266 524.07> 148 48<314.382 482.577> 652 256<452.773 647.227>
VStem: 84 148<-387.855 34.9429> 422 256<682.773 877.227> 512 72<170 545> 554 154<-516.724 -350.934>
LayerCount: 3
Fore
SplineSet
84 -171 m 0xf2
 84 99 254 196 386 196 c 0
 426 196 470 190 508 166 c 1
 512 170 l 25
 512 545 l 25
 584 545 l 25
 584 48 l 17xf4
 550 48 l 1
 537 76 524 93 504 110 c 0
 477 133 437 148 382 148 c 0
 256 148 232 -33 232 -204 c 0
 232 -379 281 -572 453 -572 c 0
 503 -572 528 -552 542 -518 c 0
 553 -491 554 -449 554 -418 c 0
 554 -375 575 -344 624 -344 c 0
 677 -344 708 -374 708 -425 c 0
 708 -549 588 -628 455 -628 c 0
 219 -628 84 -395 84 -171 c 0xf2
422 780 m 0xf8
 422 852 478 908 550 908 c 0
 622 908 678 852 678 780 c 0
 678 708 622 652 550 652 c 0
 478 652 422 708 422 780 c 0xf8
EndSplineSet
Layer: 2
SplineSet
84 -171 m 0,0,1
 84 -75 84 -75 112 -1 c 128,-1,2
 140 73 140 73 186 114.5 c 128,-1,3
 232 156 232 156 282.5 176 c 128,-1,4
 333 196 333 196 386 196 c 0,5,6
 460 196 460 196 508 166 c 1,7,-1
 512 170 l 1,8,-1
 512 545 l 1,9,-1
 584 545 l 1,10,-1
 584 48 l 1,11,-1
 550 48 l 1,12,13
 532 86 532 86 504 110 c 0,14,15
 459 148 459 148 382 148 c 0,16,17
 232 148 232 148 232 -204 c 0,18,19
 232 -260 232 -260 238.5 -310 c 128,-1,20
 245 -360 245 -360 260.5 -409 c 128,-1,21
 276 -458 276 -458 300.5 -493 c 128,-1,22
 325 -528 325 -528 364 -550 c 128,-1,23
 403 -572 403 -572 453 -572 c 0,24,25
 520 -572 520 -572 542 -518 c 0,26,27
 554 -489 554 -489 554 -418 c 0,28,29
 554 -344 554 -344 624 -344 c 0,30,31
 664 -344 664 -344 686 -365.5 c 128,-1,32
 708 -387 708 -387 708 -425 c 0,33,34
 708 -515 708 -515 633.5 -571.5 c 128,-1,35
 559 -628 559 -628 455 -628 c 0,36,37
 342 -628 342 -628 255.5 -559.5 c 128,-1,38
 169 -491 169 -491 126.5 -388.5 c 128,-1,39
 84 -286 84 -286 84 -171 c 0,0,1
422 780 m 128,-1,41
 422 834 422 834 459 871 c 128,-1,42
 496 908 496 908 550 908 c 128,-1,43
 604 908 604 908 641 871 c 128,-1,44
 678 834 678 834 678 780 c 128,-1,45
 678 726 678 726 641 689 c 128,-1,46
 604 652 604 652 550 652 c 128,-1,47
 496 652 496 652 459 689 c 128,-1,40
 422 726 422 726 422 780 c 128,-1,41
EndSplineSet
EndChar

StartChar: AE
Encoding: 198 198 133
Width: 2236
VWidth: 2078
GlyphClass: 2
LigCaretCntFixed: 1
Flags: W
HStem: 0 52<48 269 347 598 958 1150 1358 1860.78> 724 52<778 1150 1358 1633.59> 1382 52<854 1061 1139 1150 1358 1848.12>
VStem: 1150 208<52 724 776 1382> 1768 48<434 548.864 953.136 1068> 2036 52<1058 1153.29> 2118 52<335.822 447>
DStem2: 269 52 347 52 0.511643 0.859198<39.9081 822.458 882.486 1547.95>
AnchorPoint: "DotBelow" 1254 -20 basechar 0
AnchorPoint: "Bottom" 1254 0 basechar 0
AnchorPoint: "TopCap" 1460 1580 basechar 0
LayerCount: 3
Fore
SplineSet
48 0 m 1
 48 52 l 1
 269 52 l 1
 1061 1382 l 1
 854 1382 l 1
 854 1434 l 1
 2078 1434 l 1
 2088 1058 l 1
 2036 1058 l 1
 2024 1115 2008 1191 1946 1278 c 0
 1894 1351 1813 1382 1718 1382 c 2
 1358 1382 l 1
 1358 776 l 1
 1544 776 l 2
 1622 776 1677 828 1714 884 c 0
 1747 934 1768 1039 1768 1068 c 1
 1816 1068 l 1
 1816 434 l 1
 1768 434 l 1
 1768 463 1747 568 1714 618 c 0
 1677 674 1622 724 1544 724 c 2
 1358 724 l 1
 1358 52 l 1
 1695 52 l 2
 1823 52 1944 88 2016 187 c 0
 2086 283 2100 350 2118 447 c 1
 2170 447 l 1
 2164 0 l 1
 958 0 l 1
 958 52 l 1
 1150 52 l 1
 1150 724 l 1
 748 724 l 1
 347 52 l 1
 598 52 l 1
 598 0 l 1
 48 0 l 1
778 776 m 1
 1150 776 l 1
 1150 1382 l 1
 1139 1382 l 1
 778 776 l 1
EndSplineSet
Layer: 2
SplineSet
48 0 m 1,0,-1
 48 52 l 1,1,-1
 269 52 l 1,2,-1
 1061 1382 l 1,3,-1
 854 1382 l 1,4,-1
 854 1434 l 1,5,-1
 2078 1434 l 1,6,-1
 2088 1058 l 1,7,-1
 2036 1058 l 1,8,9
 2028 1098 2028 1098 2021 1123 c 128,-1,10
 2014 1148 2014 1148 1994.5 1193 c 128,-1,11
 1975 1238 1975 1238 1946 1278 c 0,12,13
 1872 1382 1872 1382 1718 1382 c 2,14,-1
 1358 1382 l 1,15,-1
 1358 776 l 1,16,-1
 1544 776 l 2,17,18
 1643 776 1643 776 1714 884 c 0,19,20
 1736 918 1736 918 1752 979 c 128,-1,21
 1768 1040 1768 1040 1768 1068 c 1,22,-1
 1816 1068 l 1,23,-1
 1816 434 l 1,24,-1
 1768 434 l 1,25,26
 1768 462 1768 462 1752 523 c 128,-1,27
 1736 584 1736 584 1714 618 c 0,28,29
 1644 724 1644 724 1544 724 c 2,30,-1
 1358 724 l 1,31,-1
 1358 52 l 1,32,-1
 1695 52 l 2,33,34
 1918 52 1918 52 2016 187 c 0,35,36
 2064 252 2064 252 2083 306 c 128,-1,37
 2102 360 2102 360 2118 447 c 1,38,-1
 2170 447 l 1,39,-1
 2164 0 l 1,40,-1
 958 0 l 1,41,-1
 958 52 l 1,42,-1
 1150 52 l 1,43,-1
 1150 724 l 1,44,-1
 748 724 l 1,45,-1
 347 52 l 1,46,-1
 598 52 l 1,47,-1
 598 0 l 1,48,-1
 48 0 l 1,0,-1
778 776 m 1,49,-1
 1150 776 l 1,50,-1
 1150 1382 l 1,51,-1
 1139 1382 l 1,52,-1
 778 776 l 1,49,-1
EndSplineSet
Ligature2: "'rlig' Standard Ligatures with ZWJ" A afii301 e
Ligature2: "'rlig' Standard Ligatures with ZWJ" A afii301 E
LCarets2: 1 1348
Ligature2: "'dlig' Discretionary Ligatures for Latin-1" A E
Ligature2: "'dlig' Discretionary Ligatures for Latin-1" A e
EndChar

StartChar: Eth
Encoding: 208 208 143
Width: 1568
VWidth: 2078
Flags: W
HStem: 0 52<122 314 522 938.863> 714 64<104 314 522 809> 1382 52<122 314 522 938.863>
VStem: 314 208<52 714 778 1382> 1238 234<432.746 992.831>
LayerCount: 3
Fore
SplineSet
104 714 m 1
 104 778 l 1
 314 778 l 1
 314 1382 l 1
 122 1382 l 1
 122 1434 l 1
 841 1434 l 2
 1137 1434 1472 1192 1472 712 c 0
 1472 232 1137 0 841 0 c 2
 122 0 l 1
 122 52 l 1
 314 52 l 1
 314 714 l 1
 104 714 l 1
522 52 m 1
 795 52 l 2
 1139 52 1238 364 1238 712 c 0
 1238 1060 1139 1382 795 1382 c 2
 522 1382 l 1
 522 778 l 1
 809 778 l 1
 809 714 l 1
 522 714 l 1
 522 52 l 1
EndSplineSet
Layer: 2
SplineSet
104 714 m 1,0,-1
 104 778 l 1,1,-1
 314 778 l 1,2,-1
 314 1382 l 1,3,-1
 122 1382 l 1,4,-1
 122 1434 l 1,5,-1
 841 1434 l 2,6,7
 931 1434 931 1434 1020 1405.5 c 128,-1,8
 1109 1377 1109 1377 1191 1317.5 c 128,-1,9
 1273 1258 1273 1258 1335.5 1174 c 128,-1,10
 1398 1090 1398 1090 1435 970.5 c 128,-1,11
 1472 851 1472 851 1472 712 c 128,-1,12
 1472 573 1472 573 1435 454.5 c 128,-1,13
 1398 336 1398 336 1335.5 253.5 c 128,-1,14
 1273 171 1273 171 1191 113 c 128,-1,15
 1109 55 1109 55 1020 27.5 c 128,-1,16
 931 0 931 0 841 0 c 2,17,-1
 122 0 l 1,18,-1
 122 52 l 1,19,-1
 314 52 l 1,20,-1
 314 714 l 1,21,-1
 104 714 l 1,0,-1
522 52 m 1,22,-1
 795 52 l 2,23,24
 895 52 895 52 973 88 c 128,-1,25
 1051 124 1051 124 1100 184 c 128,-1,26
 1149 244 1149 244 1181 330 c 128,-1,27
 1213 416 1213 416 1225.5 509 c 128,-1,28
 1238 602 1238 602 1238 712 c 128,-1,29
 1238 822 1238 822 1225.5 916 c 128,-1,30
 1213 1010 1213 1010 1181 1097.5 c 128,-1,31
 1149 1185 1149 1185 1100 1246.5 c 128,-1,32
 1051 1308 1051 1308 973 1345 c 128,-1,33
 895 1382 895 1382 795 1382 c 2,34,-1
 522 1382 l 1,35,-1
 522 778 l 1,36,-1
 809 778 l 1,37,-1
 809 714 l 1,38,-1
 522 714 l 1,39,-1
 522 52 l 1,22,-1
EndSplineSet
EndChar

StartChar: multiply
Encoding: 215 215 150
Width: 1152
VWidth: 2078
Flags: W
HStem: 445 136<508 644>
VStem: 508 136<445 581>
DStem2: 246 910 179 843 0.707107 -0.707107<0 465.983 562.15 1028.13> 179 183 246 116 0.707107 0.707107<0 465.983 562.15 1028.13>
LayerCount: 3
Fore
SplineSet
179 183 m 1
 508 513 l 1
 179 843 l 1
 246 910 l 1
 576 581 l 1
 906 910 l 1
 973 843 l 1
 644 513 l 1
 973 183 l 1
 906 116 l 1
 576 445 l 1
 246 116 l 1
 179 183 l 1
EndSplineSet
Layer: 2
SplineSet
179 183 m 1,0,-1
 508 513 l 1,1,-1
 179 843 l 1,2,-1
 246 910 l 1,3,-1
 576 581 l 1,4,-1
 906 910 l 1,5,-1
 973 843 l 1,6,-1
 644 513 l 1,7,-1
 973 183 l 1,8,-1
 906 116 l 1,9,-1
 576 445 l 1,10,-1
 246 116 l 1,11,-1
 179 183 l 1,0,-1
EndSplineSet
EndChar

StartChar: Oslash
Encoding: 216 216 151
Width: 1618
VWidth: 2078
Flags: W
HStem: -28 52<684.62 980.757> 1410 52<687.243 982.474>
VStem: 146 234<437.331 977.212> 1288 234<447.936 988.198>
DStem2: 146 22 204 -28 0.675168 0.737664<2.27651 250.697 423.987 1527.57 1700.12 1952.11>
AnchorPoint: "DotBelow" 834 -20 basechar 0
AnchorPoint: "Bottom" 834 0 basechar 0
AnchorPoint: "TopCap" 834 1580 basechar 0
LayerCount: 3
Fore
SplineSet
146 22 m 1
 319 211 l 1
 213 335 146 504 146 712 c 0
 146 1178 486 1462 834 1462 c 0
 1001 1462 1167 1396 1294 1276 c 1
 1464 1462 l 1
 1522 1412 l 1
 1347 1220 l 1
 1453 1094 1522 921 1522 712 c 0
 1522 246 1182 -28 834 -28 c 0
 666 -28 499 36 372 155 c 1
 204 -28 l 1
 146 22 l 1
380 712 m 0
 380 561 398 436 432 335 c 1
 1202 1175 l 1
 1125 1331 999 1410 834 1410 c 0
 548 1410 380 1172 380 712 c 0
464 257 m 1
 541 101 668 24 834 24 c 0
 1120 24 1288 252 1288 712 c 0
 1288 865 1269 994 1234 1097 c 1
 464 257 l 1
EndSplineSet
Layer: 2
SplineSet
146 22 m 1,0,-1
 319 211 l 1,1,2
 146 413 146 413 146 712 c 0,3,4
 146 848 146 848 184 968.5 c 128,-1,5
 222 1089 222 1089 288 1178 c 128,-1,6
 354 1267 354 1267 441 1332 c 128,-1,7
 528 1397 528 1397 629 1429.5 c 128,-1,8
 730 1462 730 1462 834 1462 c 0,9,10
 960 1462 960 1462 1079.5 1414 c 128,-1,11
 1199 1366 1199 1366 1294 1276 c 1,12,-1
 1464 1462 l 1,13,-1
 1522 1412 l 1,14,-1
 1347 1220 l 1,15,16
 1522 1012 1522 1012 1522 712 c 0,17,18
 1522 543 1522 543 1463.5 401 c 128,-1,19
 1405 259 1405 259 1308 166.5 c 128,-1,20
 1211 74 1211 74 1088.5 23 c 128,-1,21
 966 -28 966 -28 834 -28 c 0,22,23
 707 -28 707 -28 587 19 c 128,-1,24
 467 66 467 66 372 155 c 1,25,-1
 204 -28 l 1,26,-1
 146 22 l 1,0,-1
380 712 m 0,27,28
 380 489 380 489 432 335 c 1,29,-1
 1202 1175 l 1,30,31
 1086 1410 1086 1410 834 1410 c 0,32,33
 617 1410 617 1410 498.5 1231.5 c 128,-1,34
 380 1053 380 1053 380 712 c 0,27,28
464 257 m 1,35,36
 579 24 579 24 834 24 c 0,37,38
 1052 24 1052 24 1170 198 c 128,-1,39
 1288 372 1288 372 1288 712 c 0,40,41
 1288 938 1288 938 1234 1097 c 1,42,-1
 464 257 l 1,35,36
EndSplineSet
EndChar

